<mxfile host="65bd71144e">
    <diagram id="pyFOITWGm1L5QSNy7el4" name="Page-1">
        <mxGraphModel dx="1487" dy="614" grid="0" gridSize="10" guides="1" tooltips="1" connect="1" arrows="1" fold="1" page="0" pageScale="1" pageWidth="850" pageHeight="1100" background="#ffffff" math="0" shadow="0">
            <root>
                <mxCell id="0"/>
                <mxCell id="1" parent="0"/>
                <mxCell id="18" value="" style="rounded=0;whiteSpace=wrap;html=1;fontSize=14;fontColor=#FF0000;fillColor=none;" vertex="1" parent="1">
                    <mxGeometry x="530" y="104" width="335" height="398" as="geometry"/>
                </mxCell>
                <mxCell id="17" value="" style="rounded=0;whiteSpace=wrap;html=1;fontSize=14;fontColor=#FF0000;fillColor=none;" vertex="1" parent="1">
                    <mxGeometry x="145" y="104" width="277" height="398" as="geometry"/>
                </mxCell>
                <mxCell id="26" style="edgeStyle=none;html=1;entryX=0;entryY=0.5;entryDx=0;entryDy=0;fontSize=14;fontColor=#FF0000;" edge="1" parent="1" source="16" target="19">
                    <mxGeometry relative="1" as="geometry"/>
                </mxCell>
                <mxCell id="16" value="OpenAPIのyml定義ファイル" style="rounded=1;whiteSpace=wrap;html=1;fillColor=#E6E6E6;fontSize=14;fontStyle=1" vertex="1" parent="1">
                    <mxGeometry x="181.5" y="292" width="205.5" height="85" as="geometry"/>
                </mxCell>
                <mxCell id="2" value="APIを公開する人" style="shape=umlActor;verticalLabelPosition=bottom;verticalAlign=top;html=1;outlineConnect=0;fontStyle=1" vertex="1" parent="1">
                    <mxGeometry x="261" y="125" width="30" height="60" as="geometry"/>
                </mxCell>
                <mxCell id="3" value="APIを使う人" style="shape=umlActor;verticalLabelPosition=bottom;verticalAlign=top;html=1;outlineConnect=0;fontStyle=1" vertex="1" parent="1">
                    <mxGeometry x="682.5" y="125" width="30" height="60" as="geometry"/>
                </mxCell>
                <mxCell id="6" value="" style="shape=image;verticalLabelPosition=bottom;labelBackgroundColor=default;verticalAlign=top;aspect=fixed;imageAspect=0;image=https://miro.medium.com/v2/resize:fit:1200/1*4UiSxxmeMwu_wLpSeaBK6w.png;" vertex="1" parent="1">
                    <mxGeometry x="197" y="381" width="85.19" height="48" as="geometry"/>
                </mxCell>
                <mxCell id="12" value="" style="group" vertex="1" connectable="0" parent="1">
                    <mxGeometry x="289.82000000000005" y="383.5" width="97.18" height="43" as="geometry"/>
                </mxCell>
                <mxCell id="10" value="" style="shape=image;verticalLabelPosition=bottom;labelBackgroundColor=default;verticalAlign=top;aspect=fixed;imageAspect=0;image=data:image/png,iVBORw0KGgoAAAANSUhEUgAAAPgAAADiCAYAAABjnAr2AAAAAXNSR0IArs4c6QAAAARnQU1BAACxjwv8YQUAAAAJcEhZcwAADsMAAA7DAcdvqGQAAO5wSURBVHhelP1n8K1Zdt6H7ZtDh9s5TMfJARhMxGAAIhCBSAwACVoiZZJF2pIsl+UqVdnl8keUy1X+Iqv8QR9cKlfRkixTKipSoEQwgBDCkIMJwOSZng7T3dM59019s5/f86y1333OvQPKzzl7r/Sstfe733ef95zz/9//PfDu+/+3166NMQ6ojQPqbZUtzNj07EE516rCAfKdUULm9VnNQSq3+Mq2qyUlidoTqtN6rHGgZInoMkQ21WrmdrBC4YEYjrduP5FrZakhSKzcjRnftaJ4grI9Tzu3qj0PIwaK4wBOwuqSVLyDUQmt6BoV2GrbKCW6j10HT8pWOznrOUPvMpO0I9HgoKv1HLCgCBa4D25ZFZIua8dBjbhuhM7PGPtnaMvrM9X8mSdYnwe1zd3HisTqpBI7uTQRbuQnses0Vl6juQkmul1fyfB5UMxhXPZ2NDkdnCNOghTyC4m57wLjIIr5EBeyNQ9M1Aw86rPg0Ulh2NS9du2qnS6DU505S5twnNzkN6jhuUx2Rsz01Hkw/HSxM8fwo+HHvpp5dQC4Rgzq9XFnTJw8eWgeVytmboXNlVI1XNh2xDU295pg4JMNB2m185vKOCg0Ym2DRfa4CLe+SHAWDyGfq+gYHFJXdIWLV7rjzqHJI+lzaSTg+dqPHTivgO6pKWy/DPvcU7MDLmJ9Oz57p0wGtPKWcDrgmBGxdmXHfKA1riII9HDssS+OwLbQrqt2ZJb0kyqHj6sdHOtSp+FyquH8qpUXDfRKIBdpcpCROk6XYI5sQU+4YEudr9vSD/bEskmKVGBSc5GNnaGN1r14VWOLb7lbXg5vQ7E7qQ9YgOcRraib9dcKyxx959xi5NrjeHPUtADtw0yWtjQXNcNNOt7ITSTofLV+WK8WzlaofZGJ0ufuR3bF1FzDk6ocPYKWC8yvOTcXGvmg5O64gZey/eR3TmE7Cw24WVFb9UJco+JxD1zWL4626AIH5qQiBSp4OjEnzJSzTrt5lnXM1tvXbadu19h89rSNtJ7x3VVdkFyrm7ucHrfq5NxZvQ7FmPlwe5+A6zatkXXuY1thz+LeZ5CTF5Hg4FqEYfstl1ET6aE6ZEshojs6B4qSgFutgXx7h1JchsgwW3TmGMsMCfC0o7xTJ4DgzlMxSV+EdVe1Tqu463QDFV8cfrSehAZciwrRtd5xK0HFqjPH1VHqBacp3jxoeh7A75ZYMdK8cPFOyQlsMpsMinhZfaoioVTM3Gqy/QkDCa/cAeQGF2AuQcMvrAHSF3BOakHsacPY+KklkBLh3JWdFFfGipS5VkluLm6ztokL4QPn9FxKNDA7bSddBqbXbPo3gvMWe0UfSUdzerCmR23JlrlGdw3Cu45kF2Rkc28vEPMtOjSPC8m2PH2U8+SkmK0OYU1d8CLgiLNTuxb9Vi1+WnzJO9AXqYCfVqaiUuZ8wo8a3T01V7+fiy8Vq4Eev/zke5PFkxrrC0fAZ3viXnSH1DF3Sc+h9DTuOpLyryfJ9d0JNVdLwds8AySPcEJFdYdlH87tbiwf0m/XmE9cQcUke+NN6R6g9cbM5TIhHzbn3mUZF+mgwNpdzfrREeVt44w7M8Dnld2CrmfpvjDP+Y3QTHGW3G0MLDVipnhGs2QyNmmsMXRS67gxvC5VwLVQKgdsNdFSoI9ruyxaYZ0tbC5lyPKDZx+bdSBiq418rIjfJd99/7+zcLbSTMYHVHIfmwety+0jPkdnuA7G2jLBLlHSY9cdqC+kYCP6MvFqVWKee1CMg4aSjByTTffx2Yxt3RroUyTPbiB81aL89E+dLsbBgwfHAZoeHUbuwIEuAsI8cOiQ8/1Zes5vq13PrWCHpGR+6JqjNxgvMviwrxY165j0eHysaHJam+PWulmvWHOnBhi71BRegxuW+fnbOaRfnbY5AF8LzBljoZpSNRa2Wgf3wXGq9pzcft6/AqJ4TZTf7B7Jsuay+dbjiCdW+TpUsY1dFeKuuvF17SISDH1F56G++75/J6mdAJwgx76v7SL77SNSLXJN2MWc/EJZF7pRp2DSPBWQlS0DiR1xY3RApEWlcszdxU7f1PQ33XL7OHnq9nHsplvHsRM3jcNHjo2Dhw4XWR3HX3Py9JTXVR2O0CY9rNyjVXVD2z/IDw4dOa58ruig628rH5HxJctFOHU0K91Rr16+5E2N79qVy+PCmbfG6eefGedffTFk8ZyvtuouZ2UpvI+OVYKz+3zt07sMUDwvtquzKYvPdXLENktGKQvhIeHGBVAnf0XPuVDpW42yrRWVQ2rAyZW0WydYfKhLXsPH3HXbnvpWd3+EneNzYI0uwC3edgffr9TgitHTB4eKnD93AjnQzdp6CwcWew9k+0cr6+o1doqqa44OcqNHyUmRTmBdBOCTgUsX0xJDdFrj4MFD4457Hxrv+ZEfG7ff+8g4euLEOHz0uDbaUW/UA0yWHIG0dRjbLmpzxlbZOljtG/n3fY0bxdpe5Q+ay1XdzV9+4eXx7S9/bVx+/rFx8txzOq9XQthBkjnnXid/ouMNNUZVnOu52lrvcjutQinSXskUldp6bPfls7B3F1QBjlUdfGixtqz278P+noNwI83ArAHnuO2rfG9KdAm7u8aSu4/rOFtR9de/8K1YYzMVn57rmu2+RVfkQP/cdFI0lE4Ye5r39y5cRUrdQWz6EIq2oRakwQL35u6QszvRIXXzfVnFhBku8COB7YUi0vWtpzjzX3NmSHlHjp0Yn/2lf2088pEf3eG0PqWUeacU1vicd+k34vmTh/xttwRsH4CPjWV74QL0biv2fYwz5xLhzf34d58Z3/nmU+PiRd3VNcnjZ18Yp95+bBxcN/kspAJVw+en/DlvaOo6gC3dx9YHQnr7q9B2OxCIu1a9+ArUNdc+vahkINcwbOe82iUz96GKC9ZcF6Wv2xrHnuZUZynhE6YohWucTY+J6rlKwevrLlGXSRZadBArSDyYPAm0G+WixdeZ0fHtXNvMqVH0A4/e/78xx6GVMFFMOFIp2we4LXxY+4ivIl1bOTN3jofMwgdrjJQ5eKEPrjPjw3KWuhx6R1cprebQOKI79MPv/9j41M/++jh+0y1mgikr9Tp/tYbtcvTG3o/vSJSquzPGqgurvM6HsnBR1rE33rVx7tw749vffHI8/+xL44psctnwvBDcdOaZcfPb39UFrp25Xm1Aa1UlJ3YuLp5quR46cZO9wWe9hs9BXw/7lDrD7TBXsN21F3TcqLpW1e9R4+vZhxu3Mxb/D0ClhNddcnLV7dZJ9V14LK9Xp6u30uuKtuWGE6BPfx/fFCtT9qO+gzejFqVRB7wziqlw7Zm+djes/sD8MuqsthukdM9DB2iO1CYIe2YwC/AsRooY8+JziFg+1x47fmJ85NM/Oz78yZ/R2/Gb7Ju1xXWa0L4/TfYQ4E/lRbVyw824L1H+5/B+kFSBV199czzx2NPj9dfe1KYe3uC8I7uqCbDafAl3y+tfHyfPfr+yyK9BJ7C3C3hOytBoPpc6ez2ww+oSsk6sL4tit7ELzat51wfB4psDeigPQOWMELQVSVeRyrV/G3DmBWW1MyktqhRdPNuoYNVrnKgbmO9Sc5a7nnkdwijepG95fD2bqmolElfzpvAZKV8Dku2Kl7lpWchyCFL6CISU0oXCyig/keo9Zi6EbEorjrW+vQC0X4hDSLw3TjhLfuuqc+TI4fFTv/I3xkc/8/PjuDY3W54pkep0UVt37F/Rth+bpVFgta9r6q7zqV03ljokQF4Xr0NabaRfwqS//dbp8fi3nxynJflG/uChA+PwoYNqh8ahQ4fdDh45Ps7e/bFx9dAxsnqVBGkYPiF1rRh2zsZ4SIdjSEzFEc6nfwSKm3oV9gGGpL6cmLJdD6XgaJzWix24jrDwwbQUhtF2rq9gbu7pg7y9AFnWhPDQyHA9h/hM0p4ATrOjFz/qBhUIg2PajdrfJXuOnleQrLIsMueOH3QSeVp4pzvZDiyL0qoAkMJROXdGxUOHxIncn6piXrxtcP/MbpaQ7nj01rZX1fK0abuaFtfu7lgwGg/CuGPFEIWL/Of+0v96vPsDHxtHjxzLpsCv8I02M9j39bUKVh9wHRWc/qXdqP7qZ9Kr3eN0AztxddaL1y80HOuFd/S2/KuPjXfOnbf/kLq0g9rYh8aRw3zDf2Qcljxw9OQ4f8uj+ezufC5agXoMwvFI1EoGpVjQucUZVjfy8cpiABWaG8wyev8ct2sg+UlFc/MiYTWV8eNQw12hBDdR5CjmLPG4NQ4NHZOHx0xFV/c48XgONRGr7lMtVTJP1/Pcul74ILGSE6kTbuaKGk71db3v5FVRxxRIXv2iy1IhkE0wd9gthFnH1BWiA6h9QQjJL2NfVp5fzVXdB+O3itsi9Lh8RixPsI7p23RssxxzlfjmL1vEhk1jQ3/ix395PPDIBze/upqObTbM3EA/qKm7jlc+cEDLMf3/fzS/MNQ83NTZ3/aePn3qVvvsmbPj61/+xrh08WI2te/cB7SpD2lTH9Y7mCPjkDY2d/C2r9z+6Lh2+ISyQS5br6nPUa1sn4NabzfH7RXIal85i5vzW006djd8Ga8wr9QsJKObNbkdx8YTdA3XLT1O+DNqVzfA0YYm3mw81U1/VEts0AUmqqrCsx7ntHjLrMKZ/sTmKhTNx0nLU3Y8sJAgx7qtHzZ1dZ2Igrfbgp0FIh17VlSDb0ctFhUnIWqiDcVNRN+8Jq5XdGd1rVXWGJ7ZuiPxyM6PccpPgItDqkvYdW184KOfHT+sz9xHjhydG2V/w4DV/4MkQHY7qDFmXMrkq0N2a/9sax5NXcd4Fd50NY5DWH2td975s+fGM088s21u3bEP11370OHcsS25e2tze6NzFz9x27h60z21YFkyg7oU3jx+ffWZkAuvz4mN+DITwUbFokl1ZlvzVNL6Dm9MXoNYae3em5dR+XNzuG/O5tuBUna8lOix1tzyT66U6OVkzt3a3Tqm5oZepbfjmOB8V7RiWNToZbHoAisg8CSmXH4GkQDSm6E3iFAFmNqkOabmMyLAUWu/vUVJzcqtWoZJyFJqMqY4B2WDw9SxzKt5I/RKqNz5QkNzFKm7uXLvuPuB8dmf+Uvj5MlbXGZt3jx7OsDel92a13kM3fr00ZjXaleb+TL2fa1zstvO8UXf4out+OWLl8ZzzzynO/hpf9Y+5M/b3MF1567NjfTb87128NhN4+rJO7R5qcy5Y+0C672mvk6CrK+aJtCrnVOA5siUjsrfvC2mh/w3n7h13Hv7A+PuU/eNY0d4J8Gdj2J1XVZd53HAOyBefCGbRJupB5F/5oK9/J7vxL7J2FbUm7sRUmovweC4osHx6EsudrZ7eWrumWX1VcAh9J6HUPQJc9UsFTvw6H3/Np5ExeaRYA0k3b6ErVMggOOILQNSpZvV4YWK2sgBw8+JcJ7rd0Jj9VURn/TWi9s0MFOkSN5+5/3j1/76v+ffUOtwA73t1p2Ko+Sq/yDZOvjTeIYGYGrTFm7EXePbtrox98qVK+OpJ58er73ymmtfqY84fBrjJwdsXPSrapYHDkk/oM+++A6My5IHX/vuOPS93x8HLl9wUS7sXgskQDfszFZqmDvJlcmJnVkbm59zn9Bn//e964fHD7/nM+PWk7f53QYVr1y9PJ5/7Xvjse9/fTz76pPj0uWLapeSWAO4bDTLbVxQCk6r6pDFmT/zLl5WqirlQkSr4y+uj7X43GuiLlX2sDg7L0DfRpz56rzn6qc8fR91vAiJk5O9CfbHb782+L+lmKsWQx1yLdw+ujpoEBc+xDLJBRs7KHrqQC6xUxq5Flq45tkptX3TU4RpS3PuwXHTTbeOX/yLf2c89O6PxF8N/KskWH034nnuNef2A8eiGvB8XaFHRHJc5djxLxLs56+xK1eujmeeeWa8+jKbW6dfQb8g1Kb25taG7g3OoFdGbfCSV9jobz43Djz2j8eBC6fJzjoXckmCxQlwl4vrBbUv34lWqwS/NfjwPe8bn/nwz487b9HHgor7T13kOXHuwhlt9qfHMy8/Md48+9p4/e1XxkVteBDe1vcMd9HVduf0gzaI4Yu1qq2LIHbnNa73LDXVEe0N2Rs02K9DtxfnqYDzd+YB9vYdCvlW9K7t1E2f/M3doLrOUDEXtL/c9rcSwGm3IQXuddh37iQFMUXc8ze3F6mLTX4hi7d68rPuT3/2l8b7PvQp/2ioUSVnA6u0zlSktL/Rb42BuQvHdlRj9dN1fMf/P1eqW22/9ZdyTZv7zaeeG6+88Zod/qKOt+XaRPz+vH8URrOdH48dOJxY+9D7Arr26hPjwKWz1lnvdT2NngQgOO3Kr3nFbkI5NWnGfOie948f/8gvjttuvhtiMrduR/DF6F2n7tULwnvHg3c9Ou6740HP9Z2L58alK9noc5J1DBmudLBvg2WMzHKJ73Edt6+uwCS0NWuX220H5YC31dquaGApf9tbrTwmQpzZ8OLZeuSh227+5G9GjTMDWxVIj90DGe2wOr1rBUveZmzRpHW43/b4QnBUmMbibH4su72w1NcjM8xYzUH6M23VeujRD42f+Km/NI4dO1m+rfyU8FuvBlR2wj4VN7cIk6fWr8yrb8rKAzeKtw5u5Ed6eaSs/g68/b3nx5vffEpvq6+Mazcf07zzmbs382Fv5HyR5k3dsl4A4GWCOmD5xsvfGdfeedtDrJPIMeQ4GdfST1Z9O/b4YncrinFcn/V//CO/pE17f+KqU6HUtLQIyjikE3Jc5/HOW+8ej973/vHRR3nRPjLePvuG7ugXQmMcgLGMCViXxl5ojhugp9AsV5K6zq1rw345Es9xdO2W3W1HKavU1QdWa52SeXq6JpIxHQ8p/S68wcNR72deE9DWRfe6FKd2J44M5IziysEESi3ZvIJ028xwD52TYi1T30fUrh3gV6tvshKP76Temv/6X/13xy0337bNp5pBik5U3gJFrrzrpLrV3tGViHSdaoCaGO3rEzPj/3NlKTt+dRfeOD1e/sp3xpULl8bhS3qjrc174OQxb2a+TMvdm2/Ps5m9ydnY6+bmF2AoRlG9jb/yynfHtXOvM8LEdnQLPAnBx7jG63oQfD319yX0WvCf+uhfGA/f+wF7+rjMK91qBSLrGuu4wLsTNjd39A8/8jF9fj/ljX5FHzbmz9PXhKlu9aYp+BCspV+PtChS0BRxMBVy3q1NolmaQx8DDk+pzMacgyEdXrRCaStN6GttC9fOXY9XOHTbLZ/6TU+6rjonytzl4SiKzQpOzjbNmdfcjSQtTg4g3QL583Px6IYG3O70xPaTblSGw/SlMvjnnX/+1/6tcd/9765YgJy665deHbJ9YI2vemPft0rr5Wjba6SJr8tY6pRg9YN9DvLCW2fGi3/ynXHh7bOy+b2lA+PwZcXY4CfY5Mtvq1U7oDv5vINrczuPankaV/R59+qZl+UoJ6KDQvMNnxuJcmFF1kVnR4IH9eLxoYc/OT7+vp+Ss0okZKWHCzbNqAn0PJhD67yQ8bb9Aw9+dNysjX5M5/78hbP+Ym4HXveuW/n4GCtPzBnDtrUqVaNdYOpdEM8NOI7YSRfPLive7htV0djnpybe+LEB1t5ncDSF9fQirMwp1BfNyGzl8vYV6OHIo9abremWviCStwGfmsct9kwsewdULsB3OXUluaA/o8/dH/vEz3gelO0WTsRi7ugU7x9dgTX2g3z79p8qS7lhnMORsvrWBpBXL10ez33xW+PcK2/mM7faQd0d+Xf62ro6uSfHwfpllmzo0nmr3pu9FsSyiiMus8HffqFc20XoVfdOzvrjRyaLiZcvzrhbaIwH737v+OxHfnkcOXS0QlXZeVDizb/QqnH3YjYa5UPA5aPIPbfdr3Ee8ef1w7rLv3nmtXHlKv9STvVc19Wc5zm3Tg23Pqr46RdWSDpA++yckUULupJ1BXfiGAryx0AmipA5Bmhtda19ZB4g69nm8olE4Kz0rK1ilI9mlCKK/0rJVrnTBPXoqpcFJVh+NU4e0n3/fBM4TG5yctdefjBkW005aG3Pz1XUIiz1XQ+8d3z0Yz/l8YkWw2h7NnWrzXIf2vOtHGCpgZDwO7a29vcLRZ9G++VAEtvP53wjG+0H1jlGfdZ+6WuPj7Mvv+5adP7RCoY24IHTF8ahty+Mo0eP7DR+9n0MnV9w6Z+RH85vuPELMfn9dL1QqBTr3+eHXyCyju8AehY61whARk9O8uBzNoncevIO3bl/epw8drOsvvC7wnbOOZyc+7IdsIUjum3MVniSm8fxoyd9R//Zj//q+Os/92+N977rQ1pnforQ5BSBi+mOHylaD6jtx+oE+NWSq3mX7ZB74IEMNJ+jvTKGzxejVHh2WYd97JbxDIKqsTj88MeujB7Z9YsuzAwXsS2B1wemRQlD+nKQ1qlXvuQivY7J18MvEMTMD6Vh03NLXL31nCRdQHXmr/Hq7PqZw6233DZ+/M/8+XHbbXe7xtoogvSmsyPo+OIy5gasPFpvyN643cCOXTktaeQCTx10rCXdjfhqPS5n6e0XXh1vPa+30EYuasO5lf3iW+PQ2UvezMeOHq1NftT/yCb/2EQbWgfh30tXs49N7hfuLla11GTV2jviZmjN68rJyXWwfTknvHh88KFPjLtOPeBTNa+LxrT5mTy6BpJYbxBx1wSMbTLmqPNL/w7lwLj95jvHL33618ev/NhfGY/c8x5/I991clU5u3yZL3rfOHyTQN2rGyR3rr8rZg4rfT1eNFtWMgMk/FhbZnw/CM2GpR6D9S/gP3Sb3qI7Hs9Ud48oSd6MYB3RLrpts06ekYl3LfqOhqZivrrjzZS3ATrLF9a6K/4UfPpHf3788Ed/wncjCqRGJMO0nUXVA181gh2/kdz3oez7pizlB8ZXqQ7ZDdxI0i6ee2c888Vvjotn39EY9bZcMi2637LD1p386J23jCMnjuft+XxbTi3JqJb2a2lZ3QsvPzEuvvFcYo3mzuXP+m0gQCFE/FzXqI/e90Pj0x/8BZ0TjV85Rdnmg4BfG6uxxq1JaUZsnnq0UzCDJz7VZNy7br1nPHLve/VO4lZ/Nj997q2QgXnJqc7w2Fx3MxYsaqWor83a8wVo9i0ZHd48BQWat8aoRw3r1fZxXZZUcnRT0KQ4C6CrAJ8ZKzYnMLsO0rm9ieVy4baTy78G4pWVV2Z7vKHVZMPzQTkWvkHd4tvbA+C3jG7hMWnXxqPv/vD4sc/qMx5/Ykl+10e2rgaQ+dy6+UC/hjS323b33POLf0P/D7D35WxdRx2SOJhxW/psfOHi+N4XvzHeebt+Rk1CNLdcIO0T9Dn98vdfG3yVNu/cdZf2W3TLfouujyalp2xW1ajzkfVf/H4nhbttnQWfl0gO7N7bHx6f/fCvqu4Rp7mM49HLkca4dm7o2hEmmAo2ufnA9K9OHRQfDz767k+NX/nMXx4//kN/1r9FN6HSWb9GVaXGPMat4Fq6B9qyZZeByOwqYwu1ZyIjhm1ozowLn3Oyzwf47G8SUg6OxdcRdnkK6CnsRAJ6ziINDgpnSHmrrDzGmAF0fybrVG10vY2g2aKGLoLtBVJ2H5BNXhj08uB/GZb5uO+51V8HpcbNemv+5/7cXxsnT97kt88QUnOTAD1zLH1t6tykg7atL61rd/uBG5emDrkzp738OebiX2tZ1zG/+J2nx+mX8uOrbG61SsbuRoal6l15/cy48uIb2uTcyfgCMpu6N3Peom+SzX/twhmVTD7jbqA2wKdzQ+94Ppfz2P7s9TVvoE9+4OfGCW2seMhHk+SZIRgkUh2prll63FE8AmoHVsBH7IVSirwEWBd+5/3HP/Iz4y//5L8x3nXXQ5pKjguGZyhurx+Ytps9EplVN9CySBHKKWvDEnaOx+pjw5FKHtfWNn+wabNU4v6epBxSdN1glWerPmWSpevZk2mGY+40uDYsC+CNKIL/l5CEBA6QAu7Ny2LhWz82MLlaOEkeFMgF1iRJJcy/Oa58uEePHh8/qrfmd939rnZ7zYB1NV239u34yy6XsfrnJsMmiK7GZrW/Gmj9+o0ZnXl13pTEbyDnMUz72nj9mRfHy0/mL654/YiYp4deIXkY6KWap9fdC8++Oq68dTYbuDZ5NnVs39HRJZnbtYvveF0poyHcp2Q2MvMBucilkxSCrwX43LE/9t6fGffc9ohtnu7Mi50yqmLZNsi1Atdy+gNM2lwHgFABx5BSPFf7eRIxZeL+Ox8cv/5n/tr47Ed+etx2023y5HiqlIHIOPg6ueZXqBlEmqMmudboRj/LCBlr14EZX/xw3Bzb/JsW7Og6DwdTCGsNCTL7IomynYRGL4ThV22onoH8HUmS93sV6D4SSOMu7Yu04h4TjqxZykVsr7lQ3/Puj4yPf/ynxhF/xkwEge6Go0rRvJHaX3pvrukrOfPUdXw2deRxfa/5a2v/jpTyg/i03i/maHzekr/w2NPjysXL8m+ZOxe44JhN1rI5OgTlXfjuC+Pq+YuqXZvabdvoNL8IXr0wrl4+r9xa/2p8O84pdD11iRLDz7mpzQ8kH77nQ/rs/cPi57cMzZYSyjbn1LAy3fHBT6z7Lg+N2FXfUCoq2RsxKLJgbTOtO0/Pk/6tup/W2/ZfHx986CNak7qGXDdJcM13+chthXfhjKQJyWtOvyzY3pwZr9HDAOg7sVzvGZm81jawdjwIcKVcDw6GRxe30i3wwSroQm51wjnRzXed4uoqnQdacURyiDuwyd7MxW23BVIHls/e1/y75j/xE786brn5lOO9iIA856pr3faetK5ux1d2S8p6I9uoWA3Vd2k3dcjehmDGqm1bdK+puy6m4i88/sw480Z+dTRDZuPOCzpG1IrR+fSX/+qZd8aF7zwv5ao3+aFuc3Nn01+7eN5/O53z0g9gyY/IeKel3lXFaZlvv4lf06a5dXzsfT+rt+i3EM2kaSK7bjVDAtX186wOZO6g6WA/3Ha9eTAm31LEGtsgDxWfBL+A8+Bdj4yf//ivjs9++GfG0SPHTagVtL6JeNpXkSk7isPHpW6Oa4gBafWVOnMLuF2jCC0bO3UpW+caMHNdSy5hM+QkQPOWbV8chkUVcrQ5iGgmWepi4qTbYpNLP8D/iFZvI+G4UueqlkubyzDq5SMPOx8FpFDX3IPjp3/yL46HH3qfL1qnSvqVizhSiD/NdukcY1yR+NYN3LJjjc4H8FtHdAPMY3/DGjqYth2XYlnrgOy8M6+9NZ7/7jPOydtveQlIr1n74Vc8LE+Gn4AWt+KkX33zzLj87Gu2/Dadt+u8La9Njn7l/FvjyiXu4Kxxzt12jmlUbJ/Oi88xYez8Cumf/cRfH6duuhuWeYkIpZiquXV8g/SVY7nFw5+U0uPD6RVgKZBGxjDL3MAeeHbGS3/TiZvrbv5r47ab75An62Y0rwbzf3qRJ5b7DQSIlHCnuIS5c0x0qzdEKtwISaqqAaWqrqGgf+DJRbJNsEqauFs+lwmscF2KVaoDyefimP4cphpEnJWQbefo6mUyTtWFtVRsqrjyiGO7O5eKRPvA+35k/NhnfsGmXaAKcNGCjnW8plvlmlNa5xYHAd+tbGBJPkpNZ7ay2aBgJ6bWG3c2dWvO9EmeefP0+Or/9OUtoon1wyTPIXpL84z8TDkeZ5h/+cU3x5U3zmHNO/e8i4t06fRr4/I7Z70UtAwSK+VzXvICoKd8fU6OHD46Pv6+nx933/ZQceRmbtbEs08WOeikMSixao5NyfzjsK+xYwS4/JOaiiF6vPYxEj7b5QOthqfr6sGPjL/+c39nfOChD/vXXp1JsiESx9RFK3s7yuIqbuF7UTj5fqIzrseOv8s5N3uEMZDmVXzSSgJzlKfP4JkEQPM31u3gbruk+TNYndS41RU3LG9JP4LSGAOeDObqg1VzFOk7wOazX3z1dXFgZ6AIItfG3XfdP37+537DF1VNI3dTyW47NjpK2Y51w7fq3coG6JbV/HkVXd2Ure+3HNJsO/NaYoCtTLtw9vx46qvf9V9oydjqsijW3dfm6ItrX/JXVLHm5HRyr71zeVx+5jV9sL+kedTGpjl+dVw885o+g19QXl2g87ygp/NHsZSb4B+vPHr/j4z3Pfhpcx2XQv78EWmjDJfTRe9o+zwICiV2r6mu50fRKrTApNKx0MNfvd3Tcpx4CtL5pv3PffLP6y37T42jh49sAebEnH3ssn0+0DJSXvh61ISbitGs9KC12ieNjSB9zak9i88J8dqnDqvLcPblaAKJMOSJsDdg8NIl5qQrN6J00GnyzUPlorCVz2nWGasmbyjPPm16ShRL/jRz1fjHBZ/+1M+O++7l3wUrVA2sulPRaV2mzEb0LNoW22ww89S1z/VKBY6X0nNoX2/oubH35lLbcEqO/6WnXxhvvKSNaJ8eBBxVL8O/w6wT1efF547WtiTLtcXFR5Xv2lvnx6VvPj+uepPzq7nZ6Ne0sS/oDm5wHmq9uWaRvgH44TLpi/O+Bz41Pvm+X/SviToCQbXDw66MKS0ypz1Mjh/Xw8dKbQU3JgGuYivur8ttfgfWuXBCWhcYgy/gPv2Bz46/+lN/Y9x8/OYlWW3OkWHn6ru3j1Zrz7wAx8VPPHaOyqHKmO5SOl/ImqhVyGvjPdUgkHkUhXO7FQBz4D7Kac9Ook5yD6g2/yXYgs0Dt+daLxRMbM6NWVzJ1Q2RxsUm6QXhCsRnUGiM9z764fHxH/kJXZT8dDegfDdgnS4pc62QpU7+3ATlYEbxdHxX7xr7DVguY+7ktl+Nw+oNDdpP4635c089N65cZpE2RuLqVYcloXaWRooMj4WNXo/MxZr0qY1rZy6Mq1/5/hivntG8cl4un3t7nHnp6dQwz4p6HkJSJWTpHPIic+L4Lfrc+uu60/3aOHrk5DxvRglA/TZnXLCqZjHdnH+Jbj2wEJf6nRqKy+66+3Mob+R0w5F0HGeuuRmrB9+qP3TvI+N/8TN/c7zrrgdzzXUNZI/j44vu81BTDqX94nARxGlKQtZQSiZ5HkPBb/GpsdQL4qfYmsEtQKXW4tFswUcaSqRoF3Yv2OyvwDZkAlmgtuNBz8723LhIDvDvd3tyYnAAftsGCc6s4nbyxM3jZ37qL4xbbrrV4TkXgZpu6N0Wm001fSgF+6LuxDsXtAToO5wK2k9b7FWCG/HZ6L3Z+VdiT379iXH2rbPi6eyo5SxFNwu/NPT5q6pl98MWfMXxs3qxefK2XH5eQJ58bRx6+vVx+PSFcfG1l8bFs2+Km7Vm7UGyq1FadW4+eef4wAOfGX/2439jvFdvyxuwPE7lugwCu1yuIaMpK+JiBn3ey1rJUmf5dvcaEIvDvePTh6y67RCmzbxRpa/1affeft/4Sz/+V8eHH/5offSpIPXmNU0+CRHE8bhqrYnPTo/jHrQmWTGQvIVXNRr52FyQH70rox+69aZP+C+6AAIMPFv5XICi9iUdMQ/GLnXLwHOkluYK5uggJ10ToS7frMsq1qIQF19BGOT99J/51fGJj/2kx++yiE6xvjjQOwZaN6UMNj6ONQbqNKZGORFu+OwpuWd33I1COobVB6yXo31PPfb0eOaJZ8Xn+GjbN+LWNVn/eYay1W2xG8o0LkppJReO5nXw3KVx6MzFceT81XHs4HH72VCXLr+TiUnHd4s29X23v3d8+JGfHO9/8MfGo/d9TJ9V+SOWmb1Kum7bdiBKZfwOtRr+5g6YGzGpftdRevmjlWyH4GvIibvxjYG9+Myr6EJaayTuq28cP3ZivOvOB8flK5fGi68/D7Hi12Otu3NtL8DvQCaecb0xws6oqdRtwsY2umsZyTD/4Xv+jvxVcGaX4ggnNmSzWmESfr+pC8yBuEAoMZreveGLhXuCHnZzF1+y1HWO3dbo+Nb8o+Pv/I3/ozbkIc77Ut/hyAjDviJNXskV+Pa5XZvW6DHAjn9PoljvIpJrLtifL/L0W2fG7/3258ZV3VlZE9+d9fCPAKV7c6LzaNv6toE7r3No/Pir8+DNevalTny0zMdSd4iL2uSHD/LPTPmTV9Tmr8H0WPAqQej89iQEc9M50swFX2xzpLo5Ej1yz67eL8poDqSm7elDWthe/c3nmH2Nd1WJXZ5e/HogoWNXr14Zf/LEF8fv/PE/9mafwapjocOKpb5sD4Cqk58xc833eE0D9thfPOo1QbKvn+ZFqs0COqfbW2f1PG0UQ2QWACQeTkbCy+a2Y6a0HX1qRt5ixeO3NDu25DRVnPpqdqvjMyK/0MLdm89ATAvKLKFWU83UCs2jW+OlXs+tOmt8Nvz7rf3F4UaNBO1zfK8uwMbRfr4t578Zunr5iuw8wtNFaFJsQ/p6Ee7oPMzfNrzhOTRv828ucrKBDx08ok191J+pb9Vd++Tx2/RZ9Kj9fFtO3QnWf4Jroa4HNctC1G0jAl9XrlVEciwSAVNLYMKqUnNdIS12aYti/96E/Ms5q6vMdjHVHE8C8V/zC9zH3/up8ec+/avjpuM3+5i245pEC49cdgbY29xTS083a8HHgc+2WhIs7KuAH/BtyyOd6zFJJdaEJBUmRw/FY1ZvKpNevcJeHSYN1ws2vbRg89bmT2HXPXDo4Pjkj/zEeOTB93nRAQJ9trKB9Wpg2uq6zTvA2tS13pi2prO8mE++dcmpLzYb21h0x6Mu+rXx8vOvjNdeesNHHGcuGrd6dEZ0QTX7YvDvoxfftvsNXWdGnJu3+HZ5fomZVXX6EBp9/qxXa0edsugRG1+dw8jS41OnsTYfvcbGRnVzpJDJuq6pni0B29YknYbuWjQbyUPGNPD1MrRtjjq3uK20jxe6H3rkR8anPvAZuWsuZnaVYNcSPBWTE9PA/maduviJp1iwqMaN7OlLHWu64HjfVqNE9Ek1ZmJnzyoCB7QdlPWr2yZPleJ7CDj5IsKAX48UQcafGrTYaHfefs/4M5/5hXFCn4E8z6XNu6aIttX5sMppW9p+M9/K4ivgJ29nQ5eO+Fe1npPrLLpb24vvnXMXxmPfeGJcvHBRfjm4IAEn3krZjka3xgZtH4WQRun4XGCzc44ldRdKpB46WCI+HUj3yUdvP8i5T8B6sYG5iw3MLUTfjctJF9XdWoFZxT/HXbHkzsMNe+rWZqwrCnK0b/4/eOWAs/F9BVunZw0Zlm/YP/WBz457Tt3vmIN781t/sOiH1HldecLx+wVYsZ21ctt6e5bjuB6+PQQi+S16cvTwWLHdYGbE0tUcADKUkO/wyieup3FVXr8FrygLNyddfI7QLuqgykDSzM0rqkmSn/nkT4/7732ofHJVbLXd0JeWjxgbD7Q6c0vfzwdIpmo704rdBGFRk1tx620TRKeVMf2q+Z1vPD7eevO0nZOL7k2Xc+OYFUBybF9stnmaOHnYrtG8OoboGOFZlr8/t3cE1uwjXFek6CW3WOBz2j7GQ1HXevOR0TtTcE3IGK5ks8dsPseAyk+P+hqzKJ6rxB3uygE1zA7k4/iaC6znudkFftPtFz71ywkybo3dbNeS7NsbVtLVSaGWM0KPbs7+dQtBDonFLWOxKGleJNdqDBXLPxZI0HU88FLN4Rh9gFh9cU1ivRe1f605dQ3Nb685LTG/jnTMHl4n9AIhzvse/fD4iU//3BzCElUHhu7jU9LUkW5V24/EfL+T3OFh16DWo04JnEusnIi19UJ2HEy9a1cD6zgvv/DKeOLbT8uWx1xpIhDflqyPgtzEgUPq/AVZnRtXRvcgpcvXF1Jq5xFsklqrv89z5lW64LOkGOFwyEk8vUey7hYiAV9nGWE71wBOj+ef91ZKuYqdMYOpBDquybWyzX9ltp7xsFP5Rj7bCW1wfAP6Q/c8Ok4e5xd8CBbBre384lbQRx/0uYwnawaQ/aZ385WmlOmjvqWFA6icx/rhVMGBWiQ1hp1JdiSQt9rIDuaEbTaTDHc2YpUPef3FGLhXmXDl5xBT8+SJm8av/+rf9M++sUljPebbXjWAr9ep/X0J7zeA9IYtfacm/m7wVn/rq91SDezoxGjo1dZ6586cG1/90rfljNcnWw3JCngzEsNf8C91VLWsR8fKV/Zc7raR1usiks4De0pzHPQpK8PwtYG0fxc5d5WjZruJ7SsVtA7Pzd7AuRo2vuqLYFlTKtdUMgdre0IKT9vb8YAemVi0wPZ0FKf6diNpWbsx7rj1TsuscbMa27j+2bXMzttFjSKR6FbHY6l2jqfOhuvsAl6vaW48dGrzYHm4BvaaLr24OQhEcvoPPGDFk4vBhWxt+pbPOBmrYz2xyGvj53/yL4wH73s4dLUStpGgfaBj1iVvFGsfre/KMydixo2Oa2Kr37INYdZabUm3xQ/Qr1y+Mp547JnxFr/QMpcmD2setHSCxqZZ5zO4c+Grd07J/gLN88bfDTceOMkzw1dD4qAvJk4NQ/h64Ly41bD46ZQG11YdTKzoLmu17BIJZMy4tvENOZvKmI1Flb5lzrnROlLk7Xji32J7Y05UouKt1a3MNex0i86fgm7svyj3eXFeJmr7euRMTSw1GGTneyyw1DFTfKR1xfiTYlbi1IFQQAZ18w2rGJDE8eTMw7ZqhEuHBT93eKRp5PoTiAhdp/OdK2PmEkh737s/ND7x0c9CsB8K6gr7ok7drZyWaju+iAwl2GYK8Gj2BtMmXjZojn3VgA9FxnV+Gv5q4LVX3hzPPPXCuHZFx2YnF9J2MWHjzbpL92fj/OwW2ReNFIt5Z7fEnXzHi5/vJIrjY+KcV7wf0nOKsub76HGbM3XbyNQ2yleqQO3Kml1HGhkfhFJGIdcP19EW6pors2OAaNZxFzmW+F1D6sbr47QzrBkLsGiU4fcFjBtwgtaqLrZUzy2WvaDX2JgF5Fv80125mebmBfMObnflIvLLp2Tg2QbvRUhAHNu5EKwT6kUr2X56a87pO74zzMHqORzX55kf++TPjLvvuNcuDthSre+M846pNnVzS6qBfb1l1wHk1FRunI8Ppaa4cmig/dYXZ3PLNK5cvjy+863vjTNnztvpw6/o7MuXk10XvZrdpYNemdyBpTVfS8yZcdx8+WbcSux6VLmMA0Uy8+pIsGsJITkF9DkF0fr7HagVa1lof18Hs4ZEe2yWexutfZsdTGK0zZw2Y/W/ckuvGnrGDno8i9ZXX+Hi5Uvj1bdeWYIltcZeb8aRq/UG4/bMW2YSWx3PDdtiyw2/z5vqyLHVEOTwZ/BeVIqYUMWQFdlNXLybnwHkI8d56BVi5Gk05PM4+KtlcLePfODj42Mf+fSc9LqZ11KYNGDd8RwHTe9Bpr/ltrF3F6X9buhlgxv5e04AUerG/QGNOT379Ivjhe+/Ur7u8whDHhXPocorty8Otf7RmP0t8ZcngMscF9vRsstvu11W0nxqpLmp84+QygdWWVdNfBWwv3VJam++jb/59mw1JGojV2OQ60utjsNXXBWiz5zWDI6JHKklJsq3en0Nd73pTj03+8JB/+qTXx4XLvFrvRpXz4UJ0f7MtOACaoidAKgcY80rfrSS0cIpb89BY+j8V4gB2aCQ9qXg+7lUW3T5uUTyHHNEtSVpfpuYGKfWmm8pXYcOr6Ba26Yb/o8L/vzP/1X/dQ1QU5xxZB3DJgksmHbFS910Kb74NQfr7d9rc9MjW68GrOOvth4HQLe9+M+fvzD+6F9+w/+fd6//3IguhMDWK7CzutFLatnmhq483ha74S2fN5WXODYib5/7opF0nU0GWZM+PWAbh+aOaUB11+c/MXvsbzF/QuO6HdWDFw7pYMvdRac2bCOtV377qkZIDBa1R1lGU8umj4fjiz2hY974yaCYmVkO49zFc+PLj3++LLG6BsKmqpRvytnVi6e15qBtPqfUgMuwN4CiJriAVV2PtbnmjHNReAAK0wyYgpxxdbEgfPq+YPL2HfgTOaoXDAlLXOdHEqfxO9R/6Rf/2rj/7ne5fLeGdXX202UIwz41NgsxN0dyUhros8GtGrv+6/VG66u03nVk0KxHhKOOHw9+8fPfGJcu8T8EzkiCaj4PXovyKWZhxG4uLUtceWqItvvn3/F3I+zO1Tof1PTty5+1VstTrWy3Oo/2JtI1UnuDY4vL47VtfW9stDyjC8zbmv3xZd7IUgyOyVeWWb4eZ5xx1GR2HC2rIJTovM3g2fw+btYHXvRnX3pyvPb2qzOW61ro0pKoxFfpniIieNaYROuCDIewA2hp6BxbPcAMS/G8Kvlgfwaxl6c2Zsrk0F3CGcsmMQ/pTNuOucug3Kzr3MmdDb0RK9VjLk3xD77vh8enP/pj4al5cWgxd1qXu85fmBu3JkI/78j2lMRXjm3OG1pHkm++PZGzlb/b/scD7lZPf++F8dzzr8rChxdFq+NjkY2U7QfzJ9mLHd+UPjZJuOYHiYbnJS3L3LbtCMdrY0fipoDicC6BT5E16hbLovLk23Hja6v8e4FCGauPG4DHx03dBN2r6zntA399rTvR5z7zI8Z8M2cfC4+K9TiGVMdsND8WvJ7f+Qvnx1ee/JKc2453yPVszrqVMuekiPv86aceI2hGkJl4NgRmcDPcu07ttTy5ButCEIMCeUuII/aESJkXXt+TMdxzAHhcqJuvzkwKzQeFe3p1KsQhZqdw5+13jV/66b84jh07vm2ObupadizvPHYb2N9YtN7YYPLRl+bNiy5pX8sbNXU3sgHScyhHx8+cPTce+84z4+IF/gQTDLBkWTW7hB0lo6N6zWSj9/aN1npbsTnlwcJVci60sDhlPmdSfFYyyETX2gK+jIofOLPPP/wKdHyFKVZmZ9/a7Kapm3xAPMJgzKJt85ycmpO1RvSZV7BeDsd60OK1XV7bz732zHj5rRfj8CErqnXNXRzdEWPNCxT0SVxIBf/jImRlYU3WMq/WuyJoHb6usjWEJbuq5QIgXj40FVzn48kWbY5XCmry0GVJ7wm7SOXyLoJ/kvfDH/zEeN+jH9SknLQzTquWe37a3NRqwLq69tH8o0nJRtfvONiJ034QR1PvFxjguLq5sYmVjuRQn/v+K+OFF193rn9TS5FckOpNoiNHkrARjh9VOFJY+dGqBakTfjd1REJwrW0onzYrNmW3wjN6OHpUrBhB8z1GMvLi0twMtlvLgVnPqTW/OryUJVVKWELxS1hBNaf4E+gqnGOdo/vRtOuOJxMJSk390iWv6K793KvPjnPn+W+kms8gCsJDjVPYVqKZWB63ixqll287t5l3r0G3nVp+lM8dN+wyXK/YGdMdlhufHfmSDIqWyjEiwJJXf7nrdT29a/Sv6KErxzWDXIAc+LVx5x13j5/+zM+Po0eOpo5r7W7ceYddm7qdc9E2TUNZ7XgN3eEZp6nbkdVASzBjWbnodFXLQF/GAmfPnB9f+uJ3ElMy/9wwUa9mdCvlq2/KExMq5rIeC341O5uJTGOpeeFMpHjOpcXrz/qlN4q2NPoyJnaM4mR+fREadb4j9q6ZAvpsFbBQV6ZrZtY1V4RcXvuoQdvO1YMAul9Q449SgljUqRTVQE2NxSlQ+83Tr43vfv+bClWseLY0j8xN17eUmd3cnngjg/jZNTJ/aabOM9aHWFI9HJ1HcgCntOeUy7SLzz7jr59nejO6Hv4p1TyASJIWzhAc46ku7+HT6vNKf6tOrV/7c//6ePhdj3rS3W6E9jOd/TVa86wvnNbdsPd8wDLTua5O363d8BUP2C6jOdbL5mfev/d7fzIuXLxsL6uAzB110S2xpZUsQkm1uiNDcIR52G7ZtXBlkzuIrsaXmLFByyDcggxHy9ebdo9SUkoHVl9hhmZsdjv1Zi4Kz06Y09x+bh2KHuY5GAW9+eW3kG/yDEhFnLyNMMcu6b66Dn3vxcfH62+/Yt8OPI+N17Woz6nxOOXrqQZ1bci5bdfkO8fkZGx5zZP0M7I89a/JFszJTJIePRnfQjnxsvEVJ1d7Gw3yWq34NiuisdU+/uFPj09/9DNt7jZ1c3NNfy6+naau5XZvvEHTXMxV67rMxjG30tVt8Y6l0VlXt3J2xl38j333++O55171eiWuUXptOsOxju5KKkeXpaKZoS3ZGlW+5hbLPvs9CSRmoh1r+AKqCSHcyo9Wochq7WvEvTpT3x741tZ4wbFGzaMdmmPPa8NSafLUrLM20X1M7Qb4+uGYHZErFjNDb+sEOkzsa9/7su3Zaq7zhdYWiB9sWrDa5CdHvQM1z2UKy2kLZXGgeRvWPIDv4HMR2+/6VRzTNWSJ50fx+FHYTKpYVN7OW3VOFFOqtoVj/Kz7r/3FvzWOHD4y5zpl6Zb2BCzgxsmieHM1t2TAaDUHwYvfLjXzi+08dch9Dgi3Wju7Rtmtd/j1194eX/3qk9IYxdEtyN2YhxI4CobbgoL867HOGiZSJzHeCHUea2wN6cT2d53Y/U7A5yQDS5QCpCbUeWCJG1wL2/XQ4djqkB0rbOP1mROg0tBrMF83aj1Hv9mr+LyXiBpeYpnLchRxJr9tgzHUEOWDY4mDZzmwU9fuGfv2M18Zr75ZX64ZCvTcQ0oNGj5kwkHpPQXaDFeOS6rl40XPIzpwbnMZu8Yn0n7/fkUuBJL5vJwgnqZXiShqPgCNzLgupEYofJ0J363xIN1Hmoua2NHDR8fP/cQvjttv5b+ICWoquTNiOzn66rOksxZRWsYo2xsE6UDk/HcA5UTPK11cbuq2GpsO2u67N37PqWxz1C5dvDS++a2nx+nT5/Pux0R3/mw8CwrMMjON5eZjzwVOXs4T6hbfNndVUCyb8mBdGKBzK78kb3eXUqmHBKHYkfPcZs61c8pX07I/0QSKmV7d6nWvAvMCXdAeZP83056PUyrfXa4kYK84Pv7ixL/1hlSifliP7VDRbK8HJbQJLl2+OP7wG7+TT50ieMVJabLmFXhC0RCZtFmZY2xCDlfbgRL7vDu66sKM+WA6u6RsXdcYGzmbsCeRhrFNKMDmt9YysY1I31PYsP0XOuGiXPNn7p/45E+PY/xn/WZVC9E6HfZ+q9C2yYrvht0xy1zS3sSA8QV8s6nrvJ22+tBRKr/n2LFGz+X7z786Hn/yBR97Troauc5nTrKdiETs+dyYf52mQlgVJ8d5iTjqfNQtZg9z6BhgWtUaHd1caLHa52uhDEfVzRroiJZ25LootRQ/PWBFDV9/C5hu+9yra/4m03nMzp8youMTMjYuz+hb+jqrxa/27CtPjdPn3ppO+sm2QcdKSnbigu1lqehRfax9JieYBzVM8mLE7YY/dkAB8lODiP/74CCF+v8X64PfGy6O4rg4tk2G282dNlIDW9rFf3x3aPyZT/3UuO+u++rA0oB1fO0nnUDKTK59JSefFrcVdDf0brLnDXWvGVLglTpzZmubbgEvINOv9kdffMy/lrpz0qR6A3odNjl9s2gkS5n1xK7G5IHV0ivWmzsbmz99bMM+KIlvl9h2zjL8+iXWFMRQbCQf2HdD1HiFHVqFelyLSVBQ8/N1iKlufwzMXs++zlbSyt/UuvaUZp+6G/FmvUaZcauClEuXL41v6e35latX5lpPwOu9Iczz3nXc19oTqnA8aoiZ3zyqbOMU05jeqSjiyXIzTZYulTj6IHyXI4JDzd90w8FXhcztojL634RDM7/yLeK037q4sB+8/5HxCz/xy/lxEe6qh+jSwPYNYqvszWpULexlreNrf8tqRvtKgjWngb7T1E1OS+HzX/j2ePVV/rtfPAQi+8dfse2xzLJF9wKZkj9lDDcbNvqM65F3sMtFQ8db1+Kkg5xx8TsGCNnmHMZlTEKD/Phy9jpOcvsk0VGvyxdmzE9jbmSVR7NduS0bPQZobg4AexeE8HX9G9ZcjxcQqkVYWK5lGTGef+1pt55PjRDL6eos8eHdBkLDl7C0KpoKBSmtb5mpxPxTY4Mj5Vj9Fel/D16dDtB/uAFVnm0AwZwSmaF1LyKKE3KhxK5sG/LX5MCpW28b/6u/+m/b9mWHIhoC3XJpwLqNjEHrjd0nDr1vbg1MN09jmwNwPbUeE5RruxurgZZgX3dT1y8ovDX/wpcfL2KxOT5I5sRnW61lH8W2mU2yjq+WMvx6y58XgPicA9DLDlc+8uqBQS0+o9fSeQ3REzcjd3N4JPtFw0biJmfOqAmYaTQ3McFlK+4OR8bqJKLlMbAJdU6f51kzEWPTBBdJpa6XHFmSqJmeHpUYkfHoZtyP+LhrP/fK98aZc6dN4NGjIM2r3lhUdGo2j9Zza2UbDWKT5VFDNY1wITU4B3Gabi3A9i+N+VoxOiyJzxu209R81HxD3rxGH2jxaNTlxcK2JDum8Es/+SvjvQ++l+vDQHiz0rBbb7sa8CW6jA+nP2OvjXqzJg77b8BbdXXNd1ti2Dvx8lkunLNnz4/P6625vxzSwuIDWUdrU3rVvFzwarPOaqA2tfxIwtmwVkIRpx8GPCsdTw4W560vIYiWCiA3X/njmIg3Na87/UJ8FbfKnENEZOwYyO7tokUt7qabjy8u6dEqNG2wjWEDLSqKp6Z4pmg4n0eRulQJY66r8M7F8+PJF76Tm+AOlFH101Nz17cC96wrsR5DULFy511fQaHcSBJkrLA9amcaMPwZvDciA0HIgA5YD0cusFwscarJkd9GJ6LGDBTjEjZCsf99D79vfPZjP+Hr02wHIm3v6cD24usLthsg3ljULQ9ZjY3aMcsIY+o1dYBvn+taJRts6u8++cJ44cU3tvXyFbW18Jl/jqEL9BHtSsLSqtkvSenJwu9Yc/OS5XjlJB455/UDsHOxlTpdKtEqvlwD5aB2GR3rEHLVjVJmbSCdrNXlAwE7zhU5plnH48Zw7xjdni2wLKzUOmZi+7bTxvOvPjNeefOFGF6MZgnS+5iZstdeRnx5+FAgzLQtP5mCzxWJMQ0n7rKnUWOC0GRlaJfKH130ydlyPIQu1lwgcfA5298G17+TQ204F0c1Lxp3eo8kvnLhHD96bPzZH/25cT9frDnTodwZ0eNKQcG+ioEd3T1zjD5bAtPeqRXVME+x9q9x6+pmwwnXiuarhsrcATrH8PbbZ8fXv/XMuFz/ztvr5yR0U5mx/UlNbAaFyeOu3i8OddtxXs05fWzi8L38SyzHF2l/nZ9plyvoOU1K6ZNgvS/i2PCwrMTXSiFWrgmQPkjp1IS4ZeLreDJQOz7ntKwbmBx113GF9cabY9mLS+316rX20kNR++Yz/GJLHnHW+gPxfb4FRxXwF9b4fQwV64RFJkKeM2O0VDA34F7BjQGswymdaoxhrhy6LlFTGqY/l2G5MNIpjk1Udmdlsgd1QGKymRnAByu90vA9fP8j4xMf/sSshKw1MdDd0OOasjcV6Ph2yMGa67bYjRmjqaOBabe+NnWt++5ftiVLJHnp0pXxL/TW/GW+WPOyhNgnt3/n2zY5SLf02++Ep3n91PqiwZfTRtNqTH/BdvhRm7+hp2WpztJKN+wlZ1F9ioUedqOmoK8FnA64C5zI8XNdbOGFEXTdDmBT2nnl3EtyDLkEqkyAe61b9VbsWMTLk02FEt+Vq5fHS68/Z5fPyW6ZBWvAAzq/zZzXmHMqvajCnCc6vRy5Vpo804u8SKBg2BlVV4qUjnNQ/f5VmBMTcsA0+UhwQzQHWbXU+T+Kr8EM7YS//Au/Me66/a6YfuFAhrPT1K139WVK4XfD1ngr97r4ou+/SLS8ju/IJsG+H9v1yvnNbz87vvP483imMyemgV62RW1GDKTDie9s6nV5QeiIKJpF6mBWvULKOLKcpy2+1cw4mNk0OY+d0tfB9KWrZ0dtTrlQIrdiepYuoKXu4rMz+s58hXA3/pSVkD5+9Aonjq5yKydK4v2LQfQdAqhvnX19nHnntP3melpFWrgGJOJrEXLaLDmPTAF0N3U7a0HrekD6FsW9nTuQd86N/uffgoULqzGInR5Nz/jhdHIuQh9q0ohIsZcO+IsmSbUf/+hn593bTaRcgEHrq8/EBc5TsciNi/Amp5WdbrPNbZ8kjQ1quyRovWv1i8J+83FZGeONt86OP/zid8YlvTUH3mYeMJgbMFaanlk3FE5Sos1qmTpbO3BN75Ra5yGVOrMpsr0bgBsfxMRo9hjxxSbjOtT4dabDp6lzljvm3w6QSmEnt4s3Bf7MucHAW71kNH+rtSVBbTnTFkxbKeZODvO2Ygdr3TZrW6MZ/ntrBLmjIOTr85qTINnkbWq7+lJvgnKrU0ZSmiub8vLbI71Lzrj69uHscszu4DUuSu7OFPYBqowZlV6FXdyOfItOAznILimU33ztOq61kydPjr/1a39bZrYUE+4Z9R3Yetkd7jtk225ODmJHX2H/Uue6GhUDq5yNTpzG9LVOU4e8euXK+PyXvztOn7ngHK+GpBsJsJy8NV8WLEy7hN1v0NXsVydeq5YTveqKK9f/LLQmaZmg0ec00QQ63DHOFz50FNsy8tMAnD1vshgjEiRT6DA1y9fXCdi0ANtNXeTGaK1jjW0OFaDhmqQo3Vu6y7U9UQEOI17WM1rG1AOzJnDmvO7ejivDU6jvpBoh+7lNqO1dxLX16zUN8Nlv2ec59jSEnaweT87288W3rquYPiAIAiXx27NUISHpW7FkqvdCJB+ZE3F1HD50aPz6z/3lcbfemu+8lVaW5epDL7vRsZ07dOnA9toYW4r1dta0wE5uy2oNdMbb+dv1dbhrDr6nnn1lfPepl3z86wZzS0bGdyhxMON1t12mWGMl2xRr1RhjnpRN7nzGp4m3e0HrPMmcPtt1ngqOyVyyDNudV5hlpr473h697Dh3YzF6Ho5VPFeWlQnGMEWd34ySNuMozCPWfl6UctdhzzEqsB6DwXrIdfzICS+9SQWb7XPQRhJKndIgN/k5p1u6h02oro3S2ylsmpDJ7PpkOHMeA7/LiHCg0QQ1SeqEDkPpkLtsv9+XjyiLVctvH2/R3/3Au8dnf+SznrSpEmnUkrQ3aB3/7otBsNr7DVgnESmR42JumZ8bflrZvYlXH7rh/IrR4p2+Cxcvjd//o8d0935Hdv1a6MqahSS5E8v2CehWPvTVv/3cc/Ob54aILygGvp3xwaYTygaOz9SWnboplvM6EVD7jrX6fY0gKpFYx5s2fZbqlmFa8cZtvTu1vqZsMlDNv5G8JHZ+wzmLEzWVJPOmNTp+dYnToneMC+mmE7cmuMDc1VfG7vkBPWq2q+vXA8wv9IAJdOQnnozSFPM67AwcJFW9h05O/i66HszJG6E2rQtZC1rP2JDj8ZRnUVA8vfU/fPjw+NRHPjXuv/v+dm/oFI+riaALaxkPg6NkYilkd/uX1nWt45uP8hOv2kbxOYZZx77lRaEaHfNszhe/+uR47sU35HZU/pxAiF4n+7fR8W1VS6jZUu7kqd8+k+ORju2AHYVSmJBFB4qrri/cmSI9cxNwOh4HZ7RDjeTHyzwmV6J1ENvaVgNfWUzNmsesZmw1HavAnIu6HD/zcMhYxzaII/ohoyl7zMBjgUzIHKnTPbMYe4xTN98xjh45Vr7A3NoHJvX646At5yPHn7PvIJNzPLKZ22HFH9MrH50bWP+kSy151buOdIVcR53oubDzWcu8AIaJxCmkkviSL0jhKi+1NF2H+PWUfPhdD4+f+fTPaJAcoJ4T1knqRAHfbOrMQaeDZ58PwQ7kysnGLB+6FOvIanFEeLN2U3CG1XkcG+Xbk8+/9Ob4/S88Fochr+/IqerN1sdGQieDLiynT8QcKNJ9dY4bqcmjbmUZY7GDyLocAigS7enYrC3pumWsGy5jNPDnUvNDJp79zeaUdllu8aaSk/w4XIOnTbptXCy7kVynQIM4xSZzCj/2AtuZbxnbWBWZaLVkRDN0Pd/zXms7EVTVy7jll8gaxG6/Z6jOZ9H/BkN5tb7N7LWz3c4JAmpVyGHrNUePZ81uzl39JlvoPOr+bUZy5eUVo5KzOJJzkNh+u17ve0K5On7jF35j3HfnvRAnPDCN+rTSV2ynq+I0v8iEGx996wVi3WLu6vs+JAp6NdAx65K09SPD22fOj9/5l98aly7VWyuTe8OVCbP8XiytiTcoPul7Ly/mRKMv2XzXidcR/NZXLDxOgGyfh2kHOY+bqyN++52n4bhtn+GtVpwTO/7qPYamEs/iK6xfTk1Vc99qbbDdJOLUtd1ttW+MDrt+0XxcMtrn5gcyNkr8yGvjve/6YV0HbMwm7GJyuat33MKTthlb3bSRaf0AuXfOly176+wWcu3lGLb9sgJ/PjgSVfO1lFihNhXNtAxO7wNovjoPwi7AL8bHPvDR8Zkf+gzRcH4AekzLavEsY7vlknZT1zrA3t0uypWyxlvvjdrwceEr/9zI6q7jyuB/I/nKt54d3/v+qznUsFGyOuqYeedlgyLz8+ryppeNtm3iXuHmgVz4mw9bDlL6zt113Gt8ankeATI1Nh+ay3jc2E5vQkqEUwH0DoO+GMGMues5bz7H2wl62EJiiadWxjOW4+kpJratxQ7MNaH6knWsXXc7SxtmbK6LUL533fXouOOWu1OmwnMNskGEXLf2+/wk7nNNonipHf92nE4uzKoTia6c0kW8bqqLg6vO5bZ36PQMyr08j1ShJxGiNOJXr/rV2Ius3YCkNhvjb//63x5HjhyeY+EDJXamClY/OVmQ6IzZ+QbTIcaMLJvXMqfODW6mn1jraoYU6/K3Pu2F66buldffHn/8jWfGxYv5ddRiB7Xh2Hikd6w/T88TyVO5tuvLuTAEK3QcQ0lxPZTtktTEXw+7VMc11eW8odORV3aBc0lNPpol0vNJDc6lz6e56HDCbNXjolhHrbhl5wgOgqk4Zt7mct02UzvwXKJNzpafebc9uVsXXlWclSS2qo0wgK9rHs6N78Sxm8cHHvwRaeJtScLGy6y9ur6Tm0et/miBn57F15N3BNEr7uNxUnKjldpa5mZ4Kj2qNFTnB/lFl832AO3IBQzyMz8vnkK8XYaxhL3ZifPZ4uc+83PjwXsflHMtvGzylt0We80o95xHcw9qfKQvfAKVZJp0x+KKr3a41QogmE9zrTtSvtWudvXKtfGlrz+tTX7G374DZtAPPyuxPGGgpLMnLwRl1dwjyKnCzRVy/GW33mFJcnkRmSfdCKEvlnAS558TcG5sV52O5UKMzrjWoNW4kzd7+WsOUwpFM39Xb0bQ8R1OSfUlC3FN7sR1jkmtnrmnLrDE5Qn39mgGxxi7zHTS2YyP3vehce/tD/jdalZHrc+JVGqQj3Rc7hk23UEJDAAnPgCVi6uvnirR1kTOhxUHPR56lxVg+GoqqgftBY7tK8FzCofIFvdtH4tgtbtvv3P89Kd+ahw5fNQD4t65+94Is2DQ5fbcfSzzQJrXfr9NRycR2X4pyNnwo1Cj6oCOA+vq5ouA2mNPvTi+8LWnHdx+W6wgwjwpSA8Qexu9dNTKzxrl0cjJW9pciLD24zNXPKi5hnIumQeiwobTBfvbKfRFV5em7b4eWne8cpAZZ7PpypTaAT9bnbBejjmnCCPpFQBSt+qBx+AY0ePaHXc6y4+9SETu1uE04MZH7W3U2/UW/VMf+Olx9PDx6cscykoSTg+DvmXvS2joahwmx5ek2AVc7Z6ovP7eK674VuR24eKQi+CLouz5io6/uKCK2q9BuMh4hfvkhz81fui9P+RN1YDaFm6XQU5KXkWx+/4FHN4bdkPGd45ax80t25sXZY5fOe4T22n49lrnnj13cfxXv/3lcekyL3o6WhfebyDSm27htHc2C3WZklB+28VX3OPMOqiRtit/nooO7WF173N9ni1T7voacTjNKnNClg/I7rrtW/nW1XVs+1gQzGutsOqg47jdlmy0ybdgUCZUpgCf19Pk7vonqI9o3wyV4mOR0ME/et8Hx5/92F+Qq5zA+QuXRWJPTYc0G51TPiDRXvJqxex0maief7TIYgnL2Ph7PYSDeWstjaZcv3rLwYF0Kfs9gppOTkrbMB/wSnLryZvGL/zYz/pPIJfTgkk2FrXDQnmxpWK5oVdoB+L1j95s7uWBVXYdHxNy8TcWdd61AZIL8g++/Ph4++zFymWNpOzPfxasxXcnn/x9rAizfMWhYFXDR41uYRYPUCc+R10sdupLl+KTXTneGFaqqevNkiLU5HzDTTOm3o6OV65tHHVs5MctoDWvdMsyGVcyeTI8h9g0h5O8ZmJEwONRXKOMUHay7HS9SY4NY2EVD1Fc6yBrlBjXx0F9Fv/Y+LMf/4vjxNGTKVspPikmwhScF31+u26zZSbV9PBLF6HVOs3+KFyaM+PmipSmpzOaq4dumJToBupk+yFFV7sjDIxGjBlwUuTu/xkR+ZmPfmZ84JEP1GTCdT0Y6mwusK/8U6ccwNklCua1AuDCkU3eTj21/Y8G5rQOr+y1TYLQtR5/+uXxha8+7RcVPPMElG1hoHup0dzTslzE+rNVEvB5v3YBC3WuH2brsYtXdmP3vOBJzKmFeZF1TGZc5Z92DKs1RC7KzpRaOZ4/uuMOFMScesINq9NWdgWpFVnhXhOMyRek9zxAh0yrbqNHn/Y6EbAEI7ZjBMytmwkESwUfefTT42c/8ev6TP5g1oK5L/FtuMyD9BzWDAjSp0/j+3NmbHuqCJJc//zcDj9dMEwBnz9WV0yFwt5mIiwHhI7Cc84uXB94S7Wbbrp5/LVf+te3TSNuP/Zhj3LMo6mbLHSMDGOYE9Xot/HOo5XdcH45Eb1mzUXOGtVA+9tHO/fOxfHlbz47Tp+7YEdPqy9IwHIR5NG6mzil7eUlZtvRaGnUax95m74hXGIZT5CCGjvnpAfdP1c78FXJc/NbM9emII7mOz+rCv7FqAVdF9HjUcmSIVDiLLsYEm4OZsw09K4TWM90jY5Ozj6/DKWYhDnHVetz2DzHS8G3nAYjuTVHPbiTv+f+D49f+ORfHj/xw7847rz5nhAF4tl6eZDkPNcIYwKVsToO14HA38ZPNJme899XCH7pegEIu+z7bv8rqdZXvICDmvm0KUULYV/CImCljAvp+dd++V8bf+sv/A1CPb7RpuethyflyPXwwdWig1lrLVqiqbnQpJR/xVoOFp3lApdG0sEtjmtL+eYTL47/9B98YVy4dEVhPRTIhZEfQLCgPHrjOo5Hbx/8wK8LIR8pEoPHX5PF7h+TONK6G/WLx6O4ndc+4JGta30l+7jX70FQk5fj87ubsoHjely6dHacu/DqOPvOq+PC5bPjwgX+MmwKkn/y2O16W3pq3HLy7nHrTfcnj85VU8NmwXPIU9hiFjLWd1mhFnPx+z+JqGOaDHXIjJ1Yjj3Xab7lxplrrjmWejAvX49QlnivkeFYqzGaj4yfjnGvat3OjBdee3p865k/Hi+8+ozWTzeFiapLIscSl7s5b4dwspYOBjZju89SC7K4nOoiTg0Y1XiywTvfG8xGVbBvi7Fo649RXEf2w/c/OP6v/7v/y7jrtrsUcQGHJ+Syt+qV64aw32QUofTO20e7u3an3oi+XwMTn3PjCqcKXLh0efw///7nxpPPviZOTgQv6/1LK2w4yL4AJc3BdjyxjceFymbNJrVddfxAYsNQ/JA58SOxiZthrvw0TTi2Szp/6vij7vrQlXf56jvjsi7C0+eeH6+8+c3x6pvfHecvvGEOC5A1SSI+e/Ts6MEDh8fttzw07jr1nnHPHR8ct2rTHz18chw+lJ+gOG9vPpbVYfYMm5ONF47j6tDx9YuB6zCPijd60/YLm2niYU8aOeRWMffEI4zom8Ga19N+xiBjUkpBTI42/OtvvzzOXjg93jr7ht4Jnhlvnn19nD3/tv9wxNUr/A7JFf+lVrjIq/p8fUW+5NcqlEDO2pIAikN0hU1NUu7gzlbi/AAvmJmT3AcQC6Wk3Id00f2NX/3r4zd+4a+MI4cPO1TRPxXmdLmIHcz4NuM57A/CD6xzA3St/fhq/3f//Ovjn37+MU2hNiKNx87G9JabcSbsjTjt5e69cOfmXmptd+vKKb35+TffsYFHKx2gkucTL30LUUk9rxkKnj3/ki66Z7WhvzPePvucN7UJHDxjSNigAC/oEq5ZlOtQ1FtO3jPuuf0D485T/MbXQ7ZdS0FLq9EQifHkuOwuudjVcFiffik87ciGq6d9SDDjiy88dzo72FJ0gHmhttu+SJ5rvXQlJlzf3LLdNS/e5mOz4d+5eE7vlE77j0mcf4d3Tmd1LvSuSS+6+PgvkvCdPn/af9HV8AnY5tPno2sDfDXiOHDv7X95OWcslPo6qTST7eRZVBzeIdfGA/e8a/wf/ua/Nz786IccKsZE21UiaYJLRLXSr4qT30Ms2DNtu+5+APyg/JkUuXJW+vdeeGP8h3/v97Ww61vz3EGZnDeaeL3hYtuTzVn2jFnyUiFdF1Lu6hXH642FHe72AlA6j/kCQPP0J9pnnUjFveH1wPf2ue+P5175l9rU3/db8KtXLpntRBaChF4fZ4BalaI0OmUFc8B55PAJv4W//86PjEfv+7Fx8vhtmZ85G7dUYx6TCbVh7beo3M236SVr4pMvxbrcuzpBP+1vmGO52ZbWo80YreMSNC+flMQcmjad3xRjoycYrvWS6olf0nm5rM2NvHDpvF8Mnnzxu+ObT39NL85nzOnbNmPkbo8RATyc2qGbT374N2MwQ0INXRapZMshCvEqZ6o62e97+P3jL/70r/o/Emye0wq2o0aqqxfK2JS3L87OLRHsGIuZqQVyruPOUNWfQO9g5XRez4v/x/sf/v63xrMv6s62vCXPSd21rcOxf/G1rQebly/Otjy+CNlqzRcE8/vtOfPKxt94cBxR00GYj7DTaDW1UMa4eOnMePz7/8P4rtpbZ56Vzd8W07s11iFDbYlAKuNZ1Vz88Szu2eC3bDTr6rXL49zFt8Zrbz01vv/KH3su3NXXTZi05DqrbFct3ZdaDtM17Aal2EM8RmzUVbctS4pvUFUnn9GzBLbVTNqEfFJ4JphnzSemA0a0jGOtQygMUuvcNSdmAmr0QwcPjSNHjo4Tx06Mm0/cMm6/+c7x7nvfq3dH94+nX3pS5++ieQYp3TxOr3Jw6OYTH/7NRNRYTU4mK+sLC7RsVCXF+f/F/vov/2vjw4980PP0/JDmRbYOfKGItE7AeYtOcNrdytF+YF2d82kymb5RNi1d0D7Xa39NBhOV9vXHXxi/+4UnxsX+pRZd5H4BYm61Ee3nbswDHw9fNIstXjZKNrn5levP1Avf9aZM9XD7BQBn+3KgcHh2TrR0yMtX3tHnwO+Orz/198brp7+rz3h6N+Lzy/x8MHX8sLthEq2x9EKQsZlb5RScGtXwixH12yv9kubw4uvfHq+9/fS46fgd4/jRm1XikMM5lpScdVpfYpb25vqxHdKMg46tNZawMTlZQiEcX/PTWXXVZgXragRYhtYtLTbbutX4eEbgWXT8MbDbZ7sKtOTj2x233DV++N0fG08+/5heQM/a33Gja2l+/bn84Ly9p6oFvvhh9ufy2I5h6m38qZtPjR/9yCeds4L4Om5jTtr9dWk/GB4wIGfN29Fl7I/b/G6NabdTktyz5y+Mz33le/rcc5Hrc9bzcszinPYlseZnzmI3J8fdLbYp6rY1WaTPTrcGfpadcyBTrWvQZeyY3J35bP349//h+PqTf2+cP/9a8QRdKCHViL6wgZylEmaGOdftjHdtFZnoaylXyMKV+eJr3xqf+/rfHd96+p/pY89p++ecSwJ0m1L8KDs1K4YMaS83TOvuOquxO+PObW6wcHaTbXqMHNIM40r6VLZyLYXmmG+PrRiLbw4gzDUlru6m4zePP/fpPz9uPXEqfveFkOYhIOpsCwrgmNcw7+Aq5F9mcaJOKq/oZX/mhz41brvlVNczXKPzZLhpDPtXopCYQGl7yld+86u1bV+h1cXlWr4P7nGbhGg3ca7v9tG+8p3nx7eefNl12rv2aYQl5wB1x8PHscjP3biWIZARu2uk+WfevjsCfIiO07eulqdPxVo7+uZ58/T3xmNP/wPdOb+iu/ZlebYa5EZljmre6HlQopl0OY5Unq85vg5KSuFjXL9I7UwKlNuQ/o4+Gnznmd8ZX/j236tNngSXm5YgxXo7yo6PDdIBsOiah0Pt8ryyydvl3Dx35meOO57LGJLWygTbptudy6ImhqxE8zReWUufSaBDsS+B1KPVPB3XiXjgzofHBx76SPnlnMfBfCzkymB1ZcWbSdSAjpQflxob+9py4f4vf/lfTyGhKIGUPvCUJNnm5LAlulBfH4iOWyEXTvGAOeomr2AbvpRJL5vYPh8wt5qm8fpb58d//3vfHFf8o8Ag8d6AQR/z/rwc0SsG7uT1yPiSRd8xr4vJsqQ7ju86wBMpTx9TgAUyJvbL2tRff+I/G2fOv1BvvvhYAIMapthvVcc5x2N8xijbc4RL5uqzosY7AeGAanCuPX+38ldZkpIXx+WrF8fzr35j/NMv/T/0Gf17jjlMZ2WzF5ezOYbY63x6PbGlaGCNmFzZHcORa1LxOTeecIpksZ0p3BXp0LQnRM1oAVrPI6AOids8QY+JjM4a2iVsc3IEDprj18bhw0fGg3c9rI87J3D4PIaemaeL1OWIlWLAZD3w+sSavA1ml9qnPvyJce8d+TGIKYW2+6JAMHj76SLdT3+sPVSgqN7s20wrvCROXrV0m7R/1aMa/CGH//KffVV3v3dkJeq1UQLzzzHEv130NF3Q0n1xy9p4iQabh/nbQoFbE4rZLCR9JCi6Op/qpXFyr2n+F8azL31ufPvp/2ZcuXbZMXDgAD+6rBdlxuKMH2IT5jj6QjLYnDWf9JLElxe8Ro4ERfVQ60es/vLO0mIb15DEoXHOnHt1/NG3/3O9y/iOXOsxJTF9YL+6xFSjygSO+ulRdgYOskE2vTnpNf+uRwEZGzvoNXJfIYTr2t5bx4Zc0+/JCfYxzHYQiN1zETKWae22I/KuU/f4CzgDXzfBfDo99Rm8Xs7dacKTqCElzavWDvSf/PiPQ5qYaYXVJm3qtLbbCcpHy+W319R1HhdU28C+amCVO7EKzPHRq33t8RfHV9VmUXl9yDzg+47VMYA/MTDXx3lbs00MveJROw7KL/AWbNbq4gVfUFa2Bvea3oa/+Nofa4P/fhyGZ+5x+HKPt2TlcZ7jHJPvuMs4FQsw0GdmbM896pwndeScHAxsx6R6onaU5H8LeXH8yeP/7Xj1ze85yzBNXSE6x53rzrqUXotmOm7ZnUQHQeXUBKNXM63i8SeO3zEk/oJVd1WskPzK2ePPutNH/Y0Tfs59IqxTuUHJtm85ces4ceR4DPtSzX1S3XJWyGLhgXSrkOrV2JCT37RhYnedumN86NH8o5JOS7nY0yUfOo1o6wZD1rCukXRjUY2dmnvB6V+wn98wl2AReuzX3z43fvfLT4yLFy+Lk4peEj2QtPatI24xMXWBo3e+v/m2Tkxy2qir3G3mmKvaaiAXV1u1uabNRnlmPKPNfVl38d7Q/lbYc4InH99c87mr0moKQc8D2YH2dYLq5AUhJnAkC1D86Nz1fVcHlklql7ky8L55+rnxua//x+PsO69vtQxdqltCtY0yVyhPe9L3+gStW9a4q886Piuc72yUgECpxhJDyZDOCbY54pn+5sVbOqjxasyunrTmtaymji9ajx09Pm675a44qn5OnewUsM7Leghy8oWJf2bLW7I8E5N/++WXA+Mj7/3wuOf2u4tg12xxtODCan0D+uRO1AuL0HFLtTlfwX6c6HRMa8+33xquU87ms1jffPLl8fgzrzEDH1I2SQ7POmSPE53NDCO8xKhtHZQtwuaTzAlnLRO3OeOVv5VQl/mkbTws+9Sdv/DaeOyZ/3Zcvnw+NeFZqXNWb8mSzbzZ6LJ47VbYM/RdPPCx0ipjlZ6/c2Kv8/WY1OGY/eIivoSHJ8nxnpMz7KIAv0n3h9rk71w8Yz9Yjzc5fak3YCwc4uaEZUnYfruqBrVicqy9uVIKLTVnSklAnTkia6R57cTrQSh2wUqtF+elfH099GMmoLYuI7yC9L7u7rnt3hqr4i5Xg0vA2f2qV8nhMIle4oxGHgn8TyXvfdej46YTNzm0IRNplyWdCiJ2qIXUbD1az2/Oa+Gs2PJKEVyv2gpMN2KlN97SZ+7f/dIT48LFK+Xh2CFmEXNEaaxzN4CYXFOKa7mCSpGziZOfbzsgLDFadsZ1WE82v7Dy7e/9ff8DkV4/z6/y+cUY++yvumxy7uQeG56e/UIgO+ew5ku8G6g5zSlYqRiiAhbUkey7uV9ECDCGuL1u5kt/8+3vj28/8zvj4vwHGr1dhBoCX/e07S+xLP6oNjiuNoH1csBb1zK2NdsbVINYW6W7MvOPEZS+lJWeOSD56wl+rAR7iNd3F925dPN6AWTXmETuOXVfMRI3Pw5Jj5Q/m1whY/199PgqUpO67Zbbxofe/UFvdMr20GBuUuvqSNknFYpq7FCUQ6xbwxx8MW+INdZc16i2n4/+B195ajz53Ou66HSZieB4HTIJzm/MYqC2QZnzs7PRPOIh+IJW20rw4pG8OW6hLV8cJrWeBq5cvTSef/Xzuvtp7uaQRa28uzCoK7s9NNdA89t1fewKMc13dcmaZHmr0WfsxK3EhT19Au5JIQYtuZPGpKsc4L/nfeqFL9SXbkLH6nhdRIi1rHUfj/USkqg2F5+l51J6+yIM9J34NFpEyRghpE8L5Ctj8wmLseOHzzFZ3RLR0rYxYiGujbtvv8+emSP0HgR4/RLvi1PSsY77CCqRRaHJvv2WU+PR+x+Ov+Kd1q0x7Srjd27WqL3LBebvOdtn/zad+GLGVmM67TPK8B0EhXwpnfv1J14Y//APvkVEtjyuTyTNL6rblVpePVTACwm/c0ybjNIFx6clVGyO1TI6uUnpWFG7jsblON8+8+x45fWvyk+g8h3b7KwH/qRn3v3xgt8mO+TNv6Fq9J3PJ73iHC+tirnuCvnmUglWzRc0ke0cSOEm0lwG0kJDvaB3JF994rfGpcvv1HEEqL7Iy3X9TWhFkyKAVdXPnGl1fAClCrsve4412+aLB2SNHZXSazJzp9wbb5FwZkxAd3OgGqDGaqrx12T4sm2FR8o0DD5x59xJ8iUa4M2EoYC5OuF+O6mXg3e/65Fx9213JoduDww8vaVQ20PX5OLORK6vEF+3FRmzjKrV2IkJqIuZ4eBIpV28fGX8g9/7hj73XY6Deh1EiJzfAwe8DnIycyRcyV7sTpDtlXIwnPkCYDt8gDS74nFL9+SrvrBt1EKVw82voL746h9pI5y306lVjPPUafD9trDnVz0JodBni28MurJcmCqR9ppQaAOKkAptrjHp9VMI//sG5+VYeVHgdyv8KUHt7bMvja8/9Y+2dOe7M7aNv/lAuzd+HDFZg/xl4OgOGYtqYMcH14rkplcJNMkmZLLzS+ma+5SG+H6sVqHrlb7WbbVjFuVkvfmlF0O+mkUvr6Gzu30Md4BkVh3Ut+bEkbwKf/yDP+JkM1ouiJ3BOpY7Ry4Oj+HEjrq6PD3BXVznE92pFZg1KVO4Lqf5xeEXWT731e+Np194c/o8C3U0Fm5u5qWaf3fcA9qKjrFjlwnKplBiucjL5Th+n7AMZmBa8mhj4tp4/e3vjDPnnnV58ntcO1xf4/DWnFdk2xqDcaTBwdNnKHdyeBlnGzv6dlbgAHKKZ27F59iK47e9gIRJRZkFHHOoch7//ufGW2derPEBa2QlqLHik+TVQa4yjZU+9YqBua72UWvJkIrVHm+HOeeg6eaVYd1K1dur2ekzV0ozLNv4gViuBwmy+f30YDsG11Vjxv7PB82eJ0RE++Stg3JPQXUffd9HbAMklJ02I6kRO3I2da3T55KLM75Ngn5r71aB1m1mqI1jK2jd/jJeffPM+NzXvjfOX7yU1Mo3OE4JU/uFzojuNdzxAxbXIjqKT3JsX9BLTseToOaJ0eRmfHVOLWClVu7ez730B3rtvUTlpFHLjdyutM3DLwL14uJv8M1ILHXzdp15hJsaNHy82BnUrrk2j856j+t6jI3uBNtBeH0hJhbYVY0f9z3+/T/QXPPF57xGC+v6uNZWxpu9yy8p0VdbsItaMyHYozVxq2to0MUxNSk9P7cKWGzLsKHikX1cIWD5sdYoFH3ceevdtgFnJGelJe+8O41JueVPIHcBF9dZ4T874EdjD9x1P5EdeDoQ9eSckd1DBK62g44hl/Nsx4yhq/UBNohnnGDVwb497z04Ves7T788vv29l/DYv4GLmWOFpvk7If44seMj7re+8vtIJXsj4MuUw+dz73YIxW9QA1tPaoIMu5vhNVB79Y2vjYuX3pZKzeRyESRJb8iQmGbgzsYOwstmz3GCHOfKExhP8N24Id78+MuEXCvH2q3hSvXrrDOSLzWiC/2rsRk+x9FL/OIbj43Xz3zfvKSwBrlG7drRY1tRMa8H/pIINGxLOnhR1ALXNCOI3blC1XaatcjrhEpuVeWrGF7XlN0u17NsH8GKSrC+VjfXwh3j/rseLI26qZ1gGAf9uQSDVZ4Xg2z8ebmPqvYj78/fO5+Td27gC12BuKoGJSU71ljUaRCf/h1CYpYRRg+95qxj2Ea4iyTnzTPnxv/nH31pXNHNYZl+ERGcBCnuONYqUEi98pa7y8RWJwd6No5gAnpa+BuPoTKmA9kH8PBjV5Bvzvnnn9kF5MJhLvXFmXhQs6lzLp1LunR8/m+V5IPPpeUjwfZEDjnu+jkAtxxHGr3r2bdCtsdBRZfBW+eyZ43SsRxVxyz2cfrcq+Pl1x9Xmbyi+OK1FqRe1bgOWTuPtzIYK4EpIaK5tQKQld6zmznCVCV7Ztf1FfPc0Zd8xxYzBBTOS9S05Dc8l7Lp+bfi/hNgMrImG5e11n6txVA3D4SOk1CvwF3/Mz/06SgC3D5R3YDHaAPYITCBaNdhTVn1BuOvPkrucxo9HMJ650ry++b/xT/7k3Hm/MXpLIrGqBNhvetMpYCelkzWruPR288mybrhC/qiZNW8drZLFsk5oQkyak7g9Nlnx/l3Xisr3MSqp6Y2cZ9JMv05vMZlgztWLwDmklqbOrl5YZiT6MGtqDm0xAUyF6JUjeJxOyuPSoZhYatkJhL4uLSxX3zju/7ll6XyxHbRRzrHcmN7VMwasiOZi9Dr0slGfDZxK7aUvA4dMge+9Xg71ucd5Nx0RHCC2uQw3jbmOnao2/UEiPNPSCk7jwuEzGdwwcUpmh9XdNATxeHkMR66511t3hDtR/oCLt3JQEZiMXOZbSi30ePwFnF+mS04l2nFNMyLuqODqUv56hPPjz/8ylNLfi1W2xh2BNm8W+sT5WWx1r461o6j84WcHiknv2Kdhy+t+DJi05duJ/nioMo+ffaZcbV+HdU/x5ZkU+YzNK/WvEXPGPizYUG41J8v2nQmVwtRIFv1ZPuoOrYTp1XcqKBNdYxVOf5Fl+blA3g1O8K7DlkJ/rXZuQtvlidd0ukWHxJ1Kru+dYwdjgzMGdY0+xyAVWte6mHXt/LlS+6CNopv1QJHzkVZu3pUYSqqXeu3S5gqG7xrRKhzjj/I6QRo4XuyOaH5rBRuLkPOzQce7v8A3cfj5mILmLpdy0QoWeN1Uuxum5gux0FJrsvpK1xnl9xBOc+/c3H8/X/2Ff94DF/Pjml6umrU26S6yg36YmTjwMlGIaE3ecMb29zoRhfGJsd+eFueY5iV65AKYV6+cn6cv/i6dL54YjFSY/7NbM0nX4oyL+QKcfTkTwGlmpM9R46j77aQfMf3wP3iIPS8+5gL2bqJuXc9NNDXTxpcqyYmp55yQlgaUXEuXj4/XnnzSbnia5jmap1SR6ViprqoEIqg+NSF1iXb7wro9pXTqHOprstm3gyWFLBuYrcKxouvtcTC2XCjY5wwF0d6A4UJ6aCP1T8bNfoUuUBe5v1RiQXl4Z+FOzGkXH8HxoP3PpC/FWZumiPkYVu3Jza33b1Jm1Mt8028a60gNLmgStmnzjlw0B3ZYlOvxt9O51vzF157e/uWlaZg8sMsV4YqjnViUQxfrLaTV1etW9dyooqvPMfk89pMcNKquMg+0ZVu2wF+LfXt8Q5vz9nIeKu2XyCqXH1cddx1oFGAhmif7+Ikccy8uKPKR21Ov+vlHYBVz0nzluzjI0YxX/auL0ki4bLJzj9NlUUJPwSPZy38lqyL14Zjc5Hx4mvfscTGY3fnAqltJSNciLYVjL+j0TrmUjKc0jHbsVzFA2ROidX8euAFRQ3P1ZAbXFZYU8NFJsMU1+jxQuiXmJgO6Hxd9S+7EAlPDdSB+U825TTrUVdDnzS/GlfSTSdObnkF9MVMjoRb5bcNrsulY8hCc7s1fqAuw3ZLsNRrvPLmmfFPvvCdcVZ38bVC1qKO3gaF1KRuvsBznbnkbNKtlYb4XAjJa9tK8eLvvBLGdkI3mz+cePEyfwVFqDkis4aphU6qNxJ+jxGdBznhZ6O2P64ajQ02+WxO7vDJzbTCc1/j+sWh0l273HbVi44txewzARthj5AxLJ0f/ytvPeFfYwWmViypnCNsG3nxrrx2h1hikoXmLy5ILl9ILJy8w+1ojUJnpbhq09/ouFv1EtakVHirLN9y+BM24XugwDXUjh05lrgSU7sjnD0Q7+7B6YHdvpuO13+ydiOQq6DPm9o27Q1rrvWiOK/kirb33Hasvp38Cqy5tM9/43vjyefqy6mKMTxqz9S6jN0F1IbpC5RXbVhsWpnp8UcwaFaMJWXTTIZAXuUwRkWWoRYuoJYgQjjXxoWLb2ou+bmwX4epJplRqmHPeWQOzKs5luQ63+UnzFXcvtq4CWeTp0Q4E4uatSkDvajbEOUQuD7WsYGjDiugZ5hjXLp8Ybz29jNzHdxbLPWS4sYxdm1vIIwuJqznt/2dm3l1PHXaZG7EwyxkwvF0XAnNcP60GsuglhmzxwE7ej2CyhWag+fY+u/CcSz53uAmq+NVKiUi54uvcNdtd/giwN+tsb7jTCwOjn9t9kXkHSFKz1Ri5YGdd7JC+MVru4FfovM7980Ll8d/+SfPjCs9jqEZFtHboRL5LqLRdby4dm+8NPSyqWeVaqkxf148iVVLKuw5HdmorD2+bZooJlu+c+F1y4P+hRQtnsNU4g6LHa7zXcNHhhLI1xdSzdZuv9WuO3Uc1EnLY/etemdCyTigFDtVx+SCeZM4a1glzzlBszgP/UtW4K0zz1uuyLGQH1bUrP+2SQXioRWihbKdrwZW116mFr5a4naFN50RPdCmq7MhAaeTF15fi9YrgA41NtdLjeVYZIQ+gx/hM7gzcMx5Y81vUrJ5OWBBXSZzNf/AyA4ClNuQoSvUExcYYF2czgXxL/U8LopNA3WaUmwjy7kMtdSJNCivdklvwf6jP/7+ePWmU+Pa0aPyESBGEg24er29o04KZQwuxloT/FJmKnf0q4rKn4zEu57rLJMyrzdiPO4zzrTS28m4bV/V23P+jzD5iKm5tHn8OnHOErX7S7Nk2qv4OmYdjzpm3jyQ+VlLqzq9rR13jh6VSI3Euq76ihnS/RMFv35giMeHfh+A9KLTAK+xru1OHMk3T2uDQ7cbQvSETU45B6QwhjkQ4naaG3OX0rl+qrsBKmxpO0JYNHM2QnONivmxEyheuXbyEcW1zgM7B7iDxLWJD/JTlA32k6OWX1X1glQhF6Ph9llxAnYDNaYjsW8wgSoTnVbGDbmLZNgde6G3vbh2uTTian/y0unxu8/ora0+Xly59TY7e2yuMQ6VO6c/X8VtJxe0Pz+Xy4AvQXoueHRkty0ec7vIeKQmJjrcPJLVvWQpOckqJIHGl2z2uwfEMk/rNIQY5Gb2HG9v0rQ6fFhRQPvkyjEltjGodrh0LF4ITHadpMv2U5ZDNYOY86OOrwk75fAx9lytmmvYZfI4p48njlXcnKkkd8aqZnx9lNvRMvSEnPbTNaFAxuaS7rpW7Z82sG+zPW6P7VjQPr9b8wOnniwFuk1pyxw9DDYSbvuk9bHMt+i2HYyudrB/M624ktK2Kga+CxfeUb/5GuuCdZ3pKqU5Frvjb1xh6uJA24mtQy/B5uycOOGdy1fHP3ziVW9kvsm9dscdY+gunsUVugZxK9mA8CdUtNgTfTn3C0VOgCr03Y0Nx4vD6oNYgE9ztgPkaBT8mDtoD39Usf43CxG3t/9BX2yZkxpTwB9v/DUf9fHxtpv5eb4mCq1k3uEGOW78IBdXR8kyu52um0Afm1HzmCi15w863GNjn79w2uWMjRp1yZ1oVw9VRde5eMyOF3ARDqWCxe/5lBleFyNUart2YB+k1KjKweYOxIU+a9vgmSvRfp6z1bs3weeAYktunzFFM0qFBFHnybg2zr5zXn2d2G4uhrwe+LqtSN4u2ocEzG+Hg71wpu5g0MfkGtL/8Ptvjm+8kv/HiXbt5E3jyin+j6yF1yBXjbWKP8vZ/zUxve/yxeO4s7ixaXCTq07K+v9nZ9kJ0jpp3fiJBjmRhpS2rvkflwjaPPy40mtUP7Zs+AK2lmoerXz5p6/SmaRJ0tdXM16UePgg5suY2vZ2P3/uqS+ZvRcud/w7hsAVqKVGzfmjQS8a2c0U5pwqLLtre/7X+h+dEEpeHykgBzubouJxbjroXMxyAZtyumb5O8cxty3W0kNYz3xnuJUFcw6CNXU1YhyK73CIl1nhDbV05vuY1KTPY8BVMX97kkC4eRWGEVK0A+P102+oL39hpYJ9WwVK/mA4p/Sm79a43m60GznHVo03L1wav/3ka+PspVxwHCTX19W77x7XDh+2j+PPQSOyOL7hyuG1QatNwXN7sWuY4Wa+4vPtMnUtm4OrpGO8YOQ27LWvAREOl3RDV+NHRamRF4+Mp4Bc6G7rg/mWHzC3OQdC6DEFFFZBnH5Rc+kMDhevrxIvEi8sZktfUfXxKx5pl+ula/wAnbyQbVLx/AV9zCrfXC8siWgbEi/D/NI6x32k8/f8Kxxz48nRth5sa9ueXXgupYe7zZ1z41pa7zykx+WuKieiHGd3blyInC/7xUhSYN2/yVaGSE7qTKHvYAReev1V6RW4AfoFGkqrvQD017dMeh8dB8i+X4COdRyFIdywa7p/rM/e3379nOfkjyDdjh0b1+69N+sh8nY0XQDES589mIBtt8ojZQ6uo1k2M1g3UB9pKi9YHH6HUOiZrZ5Dh/jPHRkHkfG2FSy/tVUyizr2zZrz7nWZcG2/5leB8MxVjPF45BWipIndBPG2j1NmB5l4dMG1NjMwpXLqYwiuY0dvinFDrOcxaBvp81WO6zdiByKYn/nSaD37hLsvKZF6qQ93rT9VKWaV9BhSdubitZQMMaLWxlxkzNK71ua3luDq5Eu2/FGHHW/B49ZEzpw9O15+47U6ZKYJEguvfcHKW/0TnMhl91JjQvoNcxbAh+NW5Pb9f7/x4rh8JZcjG5yNnpjufnfdNcYJvpSoJM17/8R0vT4+UxXojeKTNc9AWudE6CRKSVk8GBJVbhlu010vxhoH2Pxn+4YGIuxTbKLyeFZ65yIzJ5yL304usr7Qmudup68Uk6yr83siTtz8XfiwLFNIaJ+8+GTGAwWbtcS3y5/grpY0Mw4f5CcgBDKamzpmZX+1cNylL7/V1qX0+a7QRPw1sFriNUfs8u1fL1D4yzmxK0YZqeWNxK74UiL+TY1sn+rsvwg3ByyRG0J3cDYAX7iEWlPJRByrErKfei5/oL7v1pxAVDe9bEemYSCaUCKtbIZANnoopjB1odWVu3OUpXMX/K3HXx3Pn7ngefcxZWPmWA4dPjIO3HP3LEZqeNsF7y+xpp6LyLpeNDIxWl1crsOFVwVLLiujBtEZ0VTDNbEqjbKO4UIXYbuQNPeDx9VXVRGs6byFYi/KBBZv3/zOoPjUZfOYrc7Hred8sRJ63PoEMeEv6FyAAbW5+0cz3ol1XIWuN30y+99+21cXkH3AonWk5irh0WSfOH6HjaxH8QSvgRqjt9eMquveQ1XU42dse8q9zt7HXnoiWOqp6eMPdniEEOWzNN9ROaRg7+EGrqADLqan30kXPBBKjVGmG7ZbOQTOGtSqGS/2PPn2SEr/k8e/WQcS3y7q5BXgrdJoo4grZ+pSeh1bn76WFdvH02+9M/7r77wsmg+r6ubhDc9NB+Ktt4xxkl+9zenO8WdScKLoWTkT8mWx9440T7X+QkprIQWfa0vmLTgFcIYFcjFEEpthmvUoR47c2q7EekwO1AFbOGyHwnHrABhDNqWySXOu1nHMdixAjRW+a6hRkyTnstHhhRjYrqJdn4vHXwzKaB9wngxLEhPIu4yC9ONH67/oId0UjifzQfeckmrJcSQWP6cMq/n0IFaQWKH06UFhTvJvM1vmKIQSn/Po1CjlETMVY45VPuwcT9yG9GnCM0dYOQpgXrp8EYKn6A7pTp/B+bKnDzwBOKXgq8J4Pv+NP7YX3XWaJtgXdQOJQvsti1jC6Frtm41OYHqlbv7ytX3pytXx+8++OV49d8k3iNzBua5ySdL4dOlfujiuu+GpUyohb55zfN+5pDCmj3y5k8UHESYOOupj48cOoqqHYx6IkToLihZE240fGEcO30Km98o6TpAXlN3Lb9Frvts/Mqm4/RvP10Efm/yYTKS56wsA8HjzW3XgSfDcQ5zU8c2sveUztg/usOgmbjlxT5cwel5ej5Z+BLmeKbD5NqRwOKCOs2W5XU+Odll3c1iIshuLL+sVf2NRC8XnOWNVJ1p5lrhkYmn0xC6wwXVutjoe3vBPTzjxjvnqCUxW5x9QVOJjzzw+Xn/7jRgVJyNZmz59CRj+9UPlzBgFpPiacS07O2j0hNu1L1c8d/rC+OILb3s/zs2NxGZTS8d20/EevE8XzVG+uKrh1bnx6LdE2CrQJ4q1itNEnpm/OlLy82k79Oy7OdjToKhGvJwYaXnOOQS+1O08fvQOWXqYpIgHDh+HY5pgLpDMx7WYkw4CPsfVx5KJS+SgdlEx1gp0SkANZpbj43taMR1hDn4qj0xmP4/FpaQ7N6qFU/Bo1nNusqBWO3Xzg4pKcWLBc4uDrMnHMeeduQbo/Ogzr9iMmXUPIetSZNI7D4pEji3no0NGxae0uo4rG524lIxTvgXYcTEvHDYS0NCJT+d1feCRxY1kM/g/Pui/M41zHjgbUgfkU7cM8C+/8SWvXxrdpjMUegO1G33HXF7GFgtsE4s546lvF5Mw2ke7rAv3iy++Pb6vTd4XJdUZo+/gXMfmO1e+I0fGofvrG/VqKZ18W1L7syix+U238rcvVeiqrjdL5wumsC40L/kOek2tI4sfSZcY4x05ekrHcjRzV8tUMhZH6Pp+YUp+zkbgeat5dso1UmDLcRMwiXGMxbHTfnTx9GS8vuk2rS/eBlZWvwwjRzy5EvFoxnNuEZiHDx8dd9/2nvjMDZyubtZhWqRjl7+5ro0hQh8/UdRdXvzmGuRRr/0ViOu6XJ+H1SG0Od0a1LqnwaRbFxwoJjyKEZvJUmuAhJJ49p38lmMfn48rHl33vLpD7MQOSewcQFH+5LvfKEeQIQTFKAwQ0z8xK03eDtp34+TUR94g9tr5S+MPv/+Wf/cc9J3apeSKnodjSLVDd985DuizOFn9T2VXeElUxHVoNXEv8ny302sk2wonJpsDkz4npeMSJY2p58R3NetxuB05fLM+h99cY7ua4c1e+kQNlZYLGXhOvovL8Jr02tisDkj2JFsKDtssnr+gUL7/9LJ8KVI5eUG5UZ1GX4wGcShlW2iud93y7t1UaKYuZGB/fPQr4rfiPOd3S+Q6xM/aZYzJ61oGsapnLWhKRHuDbS48yU1rpBZdfLYXPUoJOw6MS5cuYU1fvOm4zoNe6S4iEw/upER+99mn/Da9Yw3rS67FGvcjJx2/pSObPaE69lVbgdkNEOez99Nvv6OLNQfEXdu6grmI2pemp9vBw4fHkUcf9J2Xh51aoGwa6QUOi2O3VJeFjqe/MSZ1m5VgTqETp0it5rSvsRPjIf3IoZPj6OFTC63G2tKEmotlesLkc+LXDdUbvWZizDUoK6Lt1CHDW4h6sgj3x4BU2upZr3xvFOub7YvRk1AtThgh0s2VKt89t3/Q4+L2WpBcaJt4oxnpmVMFJRZa5rOHzjHgO6dGyVNIzY4Fkdlw1vbmlFj7Jk+iaY4jbfDsiMBalGqOu9avjfPLf9rY6DH4ajOHJDs3sbLrbui3cJy8SnjlTf43yyet41qXqc5LGp1rVT2jtJTa4YO2rZf0vCSmvQDfK+cujX/4eH7nfP2bZJ6bjL5u3NjI2PilEzt0y83j4O2nzOcYiXGn61897ePe4jYpQqeWE+dlcqCgOHynm7qt4YQWvD2EHJ+UXEhO1vPQ4ZvGsWN3Suefi8bn+nrkYmV7Nh87c/JfSW2/+TNsG047qOBN7pasnkO86jHRDrLWGZF3P9f4ss2xKUTLZ3PGcQFJcrjOzHGngHxZPxzV9Dx6+OS4984P26aEYYV4fClbmcXJxw4UeFZ6mHKR2x+yQGktkBSeDBvudz620M+ctjOXqctwrNYYsI7Nsx73HsrvjtyFJdPZ5TpzPv/ScKUAOP6ji7wA++BhSGE+lrA8rzoxerz61uvja09+e1y5eiUhoeU++sIDc6MtZI+zoEOTk+nMwHVx4befeG28/g7/r3fimSd/f0wbuOx559aA4Wzcg4cPjcN3aePUnxbKoadGzw+ZY0Fvp43Sqy69Xwzjm5C6e+K3Rtd+p5e6nsBwr42bTz44Dh06nruvTlpmqfHqB/fMwuNgK8dTds2cS0vnruuAZpriejBYBS0qnvwU9Rhq+XXbrgXzkPzRjYpz8lNX/sotYmjOlUk/ffxJ4Af1zoV/61w+pVhWAy1Tr3RJz7HM5tdXTTYcq4KIZntuTVjOZR6Ca6NssrGOGUCes3eMnFnLNutXjCrYMRTWwXWdFx8Vi2rz/IVz0VImqHXMX1U1m2FWRjzO0rOm5zvb17XB3zz9lmusbUWba8yy5rGfs6hGc1adxgtF+145d3F8/oW3K6bZ0ojhkIbkLTs3kpXjDc8LQOlHTt0yDt16M2V9nF5o8fvVevrQswzpxKmliwzTdgO3Q4Wuc2NU4nWUOI4fu1stv/QBJk3HABjbqppv3IWOGsSwlnn4AirZtUFt3Rh72P3KgqIY4ae2JCFrBY8jr1/tO0eqRHI6g99eOzLuvf3D49gRzktiUDaGQIlSPR5xO+aIidu/MaPB2TZKOKULNdPSq1vi6wJvY8aHnewkpC++RI/Tc+rva4wlZu8MCMXbjiXx0+ff2mxhmxnXv0WSCNe1YqD2H9qLm5N2zXfw517hfwYRSKpmPq1qlJh+w0ouHedImTEB3faevzH56j733FvjxTMXpPZm5drhoHQvkeHNzEae8WrY5aPWoWNHx1G+cKv/Etnw3KaV9WFhOVa5EV5n6f2OML+7X1xrYNNazQmiXrng24j0o2JrrUMHj407Tv2wtLow1TLDnKHWbZMvkn3qzCchimv6hla2a7EetSY59J5LcYyqWb1BeJqlWER3tmsot2ot2amvAbdhDowTx24bd/Dt+Y1+3Lg5rJMXVwdWQsGu5VgkeZRqrT221ViDpgNHyy5mTB+Mjg0ph8UOD7ulhXkR215wZtWwqW6dQ3xlCGgXr1wcl/xPiWUtPNeU5g1uP4Ukco2GyeDzLQK2JImnz50dv/1Hv1tFBCm5IKpw0g3sNdetT6aDUiTJ77hRNXZ8gvOEl89eHF/Q3fuSHN7Y8q0XJ5INDLyRq7XesehjHLv3jnFQG92/moqfgj2YAM9VEe2XXtOvV2E9HMNTNLX47cJ0rTqthkP2Bc0NOCYP6vitt7x3HD1yCvp2JxT8ncGsGW7X9Nv5CsGiflftbg4pBd0vVpWT+cYfJzbHhEc2LqmZd8VDnpg/AuOXbfrzb6gt1JGXQneeeq/eoj9ku1wTqLZp5Du5eNLqdbZymWnb9CIXL/yOEnEhe6iZ40s8fcUrxfkpYn1eA3rADG1bC7ip0LHkNZyJo0maxHwXOYk5F40X3/i+i83KO/y6zu2qLrQmp2H5goBcCX/wlT8ab+htelPNK71dDez+hYo1Nj0eOypth1NGhWbssdfPueVClVdEHtyx/fnbdm1uJLHQLAGxQ2rIg7p73/SefKPOIu1c4Grr4vtFj3jNO6LXDivcaOnabr3Rqn2Lv4F/5y2ccO/dP6E5H558f+bWMfhiWLk2Na95HHrIaLvSoyTVfADHfFsB1nJUXmuS4OBJXer71dHNvTrfuSG4PrI+EGPS4aeWOIcPHRvvuf8nZcZuQHW6kDErb0HPPwyGjLR31RuUQFjSJWo76gS1u/4a28Zs1CZUlxXY+Dvc9k0W2H1BSCCO+PGFj/322Td8qBzZ3J8NEfyLLu3KCVwgcifB2yZ7bTz36kvjn3zh91KYGtAIustd1THMRQL0GUe2TrDQMYa0XMB///v7339zXNY14s2pYtRLTWcqh1a+qYvnWPze/NXwH73zdjX+KIR8esyTSVOXC9ouTyphrYoUt9LjIxagij7h14bKAZO7kmYtq2lVly/bbr7pEdve1J3nz4Waebnc9EhycSw4z/LBs1MwF14BdZ1fhbwuyCrr+pY1XzfWJv4GP/IitntM4Vu1M/Ld7/rJccvJ/CeXTTegF9O9xwmneTlebMbajUXpFlibhC2yeQinluHDirHPabS+xm3lmXp+CFmWwNIMlInE67iqNZ5/9XvlSMV5DusC4P1Scm1reUrPQW2voOY7sMX/3j/5B+OdixccN+AjK6eByST33Ea7kI4Xr7k3ki+fuzj++MUz2bBqhPozde7e2bzcnb155bAsnR+nzVxzs3lpN7/7gXHgMP8DSOacdfDQ09dL1jHrPLCl57N4tYrTm4MWh/VG182G3WLOKNscaQd097791Id1p7t5fT8aHnOQGq+Oj5spAcG1FPT4dHrmjQg5jprlAtGSmvTwkFCUyBvt5MWvapPru7h1Z6Ckr7gXXU9eB/p7HnDnre8Z73/oFyoD9BgBLGywjbvBnuJnnYs7c/KisAPmQU75w02NjRsFu+cKsB1hsNaFKe2rWnGVrBrl7PnldGqOdV4rLNkaQ3nC1l9560X1Hd3YvdF1jfsKyETUWVLcFwCLEWJL0L/99rzu4n/41S/UQoIobW7+xdfNDsbZYpic9waqR6WDKgcb4D/++ot7fwY5MfPN0+ywkcTU6nra9BnrhxdjHD55Yhy/+46d42Vw6tmn2yOCeWTpuIvm7SbLXJe9+Zuvcl1StuX1MJMn8Zaa2TaX7eK8SXfxU7e8Ty9KOX8+AJIYGN08zcZT61lUTbfMcfvdgCoxEX7EdjzY6GxM30GL5zVkQVS312MF7yqAhQu0QxVks27Hjtwy3v/gz+tF+giBqrwBu33r+UG/no2/+fQa08NKb9nAxfGg2o2RayLg2DbL49G8CasOtiWdB0BJjaKglFuAv9qhwXeldby141lj8aPql17v/2I5tUxryOG36CDldCLRVbxtJ5nkSCr4hPD/ZV0df/i1L+ouzh9ktLvyNnie5FvaNXWP074Fa43Wu/Z3XjvnL9fIzV146E6t+ze1ZGQjS9JLzx2bpru2L2aisvGr9bft3Q4dOTRO3nfnOHz8WAYWsgZp+REzBjbrIwXPJCXBX9Y5VjxrGyqU2BrkIHf4a7B1SAfHXXd8Ypw8+S7p+FdeGECHJ3DEAXZXd78MPudbDHJaRlPzC1yuk1kUPnOuu05G2zK1rDDsc6SPb6lzSJ+7H773M+P2Wx7BbSCj1wtbNbtugDXPMqLsfrGzGrHwaiaFOp620GUgbbvnuMipPIktXgxyol2PSdkYGTNJ1vaSMVfXG6df8druOAvUIubzT6Ek12QFBrA1Ow/t1j13sS9886vjm09913YD9lZJukayrwOkLwT7G6XfwGX87rP5E7r4mLwr68l9LD42c+mO1gZ3HKne8ylpfnIiD4xjt98yjt2Zb6rXReZlbfvPEWo9RMhiYtuzRAPGysnbrbeh2QzYFVbs+qkFDh8+Oe6/56f9rbo5QmJ5AaarG/iEPwIsmPNaW1Fcy8Z6NNI0FMdknbEsruYLShCHBHbNBVynKOYy18Zdp94/Hr3/p/Sxo/4EcMMlNb44ZDlTnfUq0z46z1k5WQds/I3NiH85LjnaIpa2xAvJC9aof1KxHKvzeVjGbrQvHeu0BIXNJH8vZl/0V/32vMoYxcdRa3DQr7p6MjkuaLqQarJFTkZeAgmbqiBv07/5vfxH7eSbWghn801b3erP+GV70GD61CH5gw7fepW/tbZ9vqaWN699/MVRH0nFilc1yAPZzGmHpr59Lue3225++F6Kajo1OSNrwvpsMvHeOMiKek0s9WAujcStEPE4LKrXfaMZuDwOyhK0T+fu2JHbxwP3/YKOW+845GOGaTLVOsPpxJd5WGtiOh9/GHxR2rr6mZuW2ujSzDu4+9bc49HUeXAhZZKrnP6fUY8fPTV+6NFf8y+1FHOm5Ng9hJt97mM0D1ilbvv86hF0DrEtBTv1Z0ol91jAcXix3BvtxyW+Gattqjuj7Z3jgF/zKtO5CaKEXKmlhPfKmy9ISjFFXcesyNbT1zxxnJyfJOiE4QQOkqDG573y+0JWQ/7zL/+L8drbubNWXQHjXw2PT0LVZbOBEhOM88UXT/u313zh0fTY/8KMzO1tuVOnTfyQdvTkw0Z3PGPaVjtx2816q36XbZATyQUcez0+r5nj+LySCQjxrZKOGs1Knt22A/tWh+bh35/e90mcOH7PuO+en9Qd/SZPL/VSsXUfhrv4E+MvrEnvQ5J+hTF46FDzZaG8DErdeiQ3LeATNJdpCpmlWJaOl18QLi7W2mNfOzhOnXxgfPaH/13/hp4Z6ijr0u6qpn3Ywe74st1vGyVwUsUA2mIpljm3T3qtadfxGJmCafYjIyZanz6UylvnCXpdQTSv2JZcfB8jj7bpVNN+rd/rp1/2fDOMovP8bsivqgLiEm7S7e/OTnWaWB9wLnwa/7H+t8eXvvW1NmfcDOtbCKx6wz51DOnSMafk/xj71mtn/W+/ux4XSprGou341NTRePQG72/br2vFXX13feChcejo4bnALjAXW7I3Q6z4UXwCNv88QYsszU+Q9SQvNnD+tGdGmrqup9n6C7d77/ox3cn1FpdSBqTSzE/rFy2IXOKQHEOvuCn7HztKdch33y0GWpv1HVbH0y31kHwhd5s+b//Qu39jnDh6R/jCHC9TSWLBkRSKw0iGNftjmWZtm0vsXWzZ5GRu1zH3ctcc0Hb6jJd5bj446C7PsVkpSOUa7Tcc4VW8RdNL8uup89+Bdwy4yDaeruM4PICJCe4iI0OtOQTluHzlyvhPfvu/0fWQy8VQCZeuUqaGHntpjWl3rlr7eHvOL7b0HZt5W/IQYfVZ741Nq/i82xOzJLqNEc4mj950fNzy4D2KBH3y/ZDeNguXv1jjt0CJ1QP7hih3R1MvttuMu8pSJjxPuGDzwKFx6tYPjgfv+9ncye0l4OzoEjo0KpSJzJzDqWZRrBqHjwP9a6Y+7qhCXUwV8wCVtLxDNqsU49TND40PPfKXxq03PTjn1CUgdSquWXuKqt/6lmi1+Qh/dFKzJ27H81EqnHJfB2KWETtwXtWg64+6dNMPWimJ6DFTQ4oWIPOEAbbjs7RC3eiYfMF27sKZOExnHcySViTFDvptH05W2WtFpBbYpMqXn1ddXHRmOZBT9/WnHhtfeyr/WTtul7Oi5qTAKSvgIanfskgWdGr/6KnXx4XLiXnjImW0hOaNbV3+Sp2bWQafx4H9NCnZzM3pVjXVTj149zhyYvlG3Qdfi42NYpmY/+lk+XOit7u8eS3hu8lTeoBdhgTHglzCu3IiR33LLe8Z73nor4yTJ+4rf+BxNTeOKeOxsbMWlEK6cY6ZU9nOtBHLa2UvH1c4ZxQjTM6V1MUBy3Wiw3R9mQ/c/aPjUx/4N8cpbW5+1uj6y+0Lc3kXS3H7goyeHMgoHFP5CozLlD3tmjtwiiTrsBSd+cyy6/Q6mOjntKqvuWDWEK6h2q4Tl7BpqB67jGVqZoW5jdSZc056XL16ZTz36pP5Z6JdgLhUzk/nMAe9Rc/CX63/HqYP3BPlSm/ID8eecnPppnLy/sP/6j/d+cUX10BZyqAzBK3MyOloT4D14pmL47tvnF/eQvfGTN78dVM1+BL2e3PL7h+FgcP9GXzWWvXK406vTKnj+K03jVMP37NzN8qyq3nVZUn6hRLbOn5C6IjmxF/RgEHksUDT/mDWcNLCNgu1+Di6tllVm9DRo6fGA/f+/Ljt1g/r2I5WhXD7jlae/OhItucH0xu0hqkxPLjgl6qKp4Suia6uBWLd7Otazksh6p04fud474O/pDv3r/vXUc1xnxqZgzW36PFvmF6VrXXqeM1zMqR0PC1+0DFj0Zk7ZWbNKVAYr5lmVU35JR2T22M5Zk9x4u84Acfab5R/MSd8bHG89Pqz44nnv259uq20WoZw6MSx9/1m1NoEqp63t/uouM98BJrnbNeB8eaZt8dHHn3vePS+BxzrBlquk6lS1/HWBv7Tr784vvv6eY/Pwxt51S3r7qKWzaq2cG1zXIu+xnbysCvOi8Oho0fGuVffHpcvXM78gWJuGoNnXNGV3Y74lKRqecHURsBnhrmNaKaXgjptIbU2X9vNNaxf09v0E+OWmx4eR4/cqk38zrh0+Yw5dcn5mfToKVAvNCZmIzfI87t93gUggXjws80KdfGmHrimNTw07jr1kfHeB35x3Hfnx7Wuh5VXyYJ718FVPskb+fex+idvzm93DbGmbrnYEbHLGUrpRUi447a2mGR80SPL41iAx3H7ErBJZ/dUnF+qu9feenH83tf++/Ha2/xrzq7jijAWxD504uj7a4Obt716cEJdIET0GZKry/k1rW5vly9fHjedODn+zEc/pQ3U3542qp40Sjpje3WwIxoXWfmEl85eHH/3a/zmGtTafFOyqbVxyC3//MUV5fZnbsd5aE7X2eZ3HfTUduMzumJHtMGvXrk6zr785sJhpiB2gFTjiW+6oziXBybH07r9VEOGt64Dwpp5QULJx1vUzU+v+Z84fve46eQD44g+l59750XtW96pFVnrz3EYljkiGxTKlATOHRPmXHeY83s1dzxxbYozK/DeUH6+SHv/Q786Hrz3x8fNJ+91nkvWECgWaPbFou91iFU249V5wV/04pdeSlHcdQwQX2ujTi6HuZffMzSvYg3XQuH4e23S2d9xh1BAGdjt6jGMUp2rxh2eH0E+/eK3x+999b8br771QkizANkoKsxetJr62uB9BwfbJu4DaTkTxaAYPM8zTm8QTjZfuH3i/R/RK/bt9gMYPYWiG33wKzyeCvewv/PMG+MrL5+RIxeGN6IkPG9WPXrT9iblorX0Bl508hSEz//Q2Tm+mxO3Hb3fxdCInzx103j9mZfHNf5LJJxEpITD+LVFO2ZvbI8/7XAxkgefQOzWW66cqZc/PjU7t3ltfDr+ddZxba4H/PvrbJArV8/orq53I8tC0/tvJ+akmjc3tJxZ67ixueCmj19ykcKFiOfgoYPj2NFbxwcf/gt+S87G5tdPM1Ryaljr0yjkeAJU7Iwbfq30jE2gM+3yRfZ4Ww7SfcLFKG91VcKx1htdY3IWAuqsN3UmZU9y8O/lhMALJGtO04unXoz5Tydffev58Ydf/63xpe/+rl6kT1cCRVDV+dA2n+3Cgdtv/hWZTECDUxinWmRv+PISL17NSpEtxqszG+d//xt/a/ztX/kr4zD/vc1WbJ6k1ju0+u0r+y29Jf73v/DseOz1/EHF7YTZ8AUGLNV4sDkpmg2qB3637YXhuhiP1ccGt+7ykar5hjb4s3/8ZOqzZTvftSMd8RyWGFJ8v1uwhBckVuAwYExHxXsePKSzPLhWfz3t8zx8PipqHzqSv8J5drx9+olx+uxT450Lb+nt+9vasJec41dBjcAFBtfnlwHtYwML8z1623oR0UeC40dO6d3CfeP2W9897rz1Q/JpUzvO07O0HstpBuNYWt+1Le2MbZ/sonhurCuwTzb8jk/JY+rhcBRJ3WK99h4TgoTrxW2erfmCkVjnWzQHFd3BrN+Vq5f8f71funxBN8OL47LsS1cu6Jy8M965eM5/QPHc+bfGOaQ28/kLZ+pPMoGakOFBqjZq+8HGOXDHrb+icZXIBckkKtQg1JN3YhPKlwsghnt1777/ofF3/8//N93F6+ebzV2KU7NtBJQlbHzpxdPjP/rKC9roV3wgfjgvmwgd39zgxcGbzVS+avYjFfOWXPy+s5e033FmEaBevXxlPP4H3xzn3jib8fTgHYCjsnmPkJrxZV68M+hNntiUTssg6V2GPrbj01p0Ni817I6v9FygMcKPCWeff02b+sKFN3RhvaqN/vp45x3JS2/qo9ZpXXj8+wJdEfVZnFRfJ6Rq7kcOnxzHj53yz7BPHL9rnDx+p9rd48Sx2x3P8QYZN+OXilUymHx8pa+xKPHZsp6arZc7+TEnvC5VF6QmL1Abd2cO8TiG3nNYuZbWWRvGkMJT8uz5N8aZ869rw57W2mqjasNe1Ca+cOm8Nvc72tDnx0Vv8gtac74j4W/691+v6TkhdS1xCmq8BjP1m+ry18ytrThw+y2/nK2tGZqsEXqbewNSJJaeGFjhN3bGrs33f/o3/s3xN3/x1+KiqWte60uJYPFd1Gfe/+Lbr4z/8YnXTfajCiDbZkOS6C3FhcUG7ZgeUpyTFwR7LHvT4ZgbcGkgXHXL3F/TXfzpLz+pF3DWILkEmUH4zAGdOlXXj9ronl/8jIBwvOrHX+cCu7rJYX2wZWBamiT0PIk3HxPpWHIcbx1Tit8SasNf81t33hpe0AWpO/tV/hwQYE56633kVm3uE/7vjA8ePKxjOlxvv/sdSqHq21ZnHV85LNDsYKO1jrTYsdf5AnTH8wxHD5YHYHvDWUdmM8e2sB91tSMtzG8drPWiZcGbcllr9t1nPz+efukr46zeGV25ctkfZXir7cYc6jxQPaiaPORn7/E7Dd4j7VvOHcfXPkAp1t7+eNwXMXdwG5VQfmP+Ny8Ql6JBkTpxDq9e4t7b7xz/+P/+d3Ux5L+9nalLjWJbUr9M2/xnBv/+Hz07njnNf6wmh+JZ4Ja42EhW7KNGvwr+aXfw6eMBz3Y2ncyZ58V2FqC/Ni6dvzie+tLj4/TL/NFJXlbAdpfOGPixmQdzpG1jbBIvXE4qdTK/HHDPw6oMLAv7/cQhanMyfmy05sUnpbiJd8BPx1u2D1iq29a8IjrJO+O1bpu+jkH6jPf4jmyxxuTGSt+25b5PveaxvUUvWR38rR5x9yWxu+L1sZSky3FGyzo0By/fP1zU3fjbz/z++MZTv+u33DNmqaaE+ffz40mNecNc/dQsW0qOSVcia4dPduo5reJWiE4wHrGDeXuesSrHyX1Hd7H2TUaV6ly7aztYPzBefvP18T9+/vcwDDKc1Yoac2NaeQhdXnj29IXxXG1uotsGTh4bx9tIjvXn4IBv0r2tZJvrlm/Ym+dWNvlpNR+X0YWjHp12UC+91Dl207Fx18N3+x+ksEbbsaN7Baz351Rz9MgvOoXTeWnwlMUJaL5Ty3a/wTl4J28DNvN3GLt8hpQcV3zU8LHJ7pFC7czmBV0n8xUquWs2iDZnZzy6tukUNBe9IU64+DtS2g5xM/v6BBl3IeocpFY3NkZ8jVanq5SNk0ljsrbIjl3Wu5tnX/rG+J0v/b/GVx7/J/XHDzc4k/mZPws64DoQphL0cTvH15AVH2cKEgvH69uTkURts3+VeN7bmbxfCZ0VeDEkiZGQSBKJZVBiKZx4bGj/+e/8Q/8jlB4UEDKv+C6BWSR0Nhb/FRHvH7w51bWfMXnMDYqOxG4fHOqSy90STufcoPULR+zOK8mY9XBc9p0P3DFuuSv/26cPxGgra5ODRkfQ5RdhmuOfM9sP8gsomO0B5rZvchdfYQtRuYyVIGDuuVKHNvVlHnRGCF3ZrWLhbb4tZ/N3jwinzFLMo6HbU3J2OglAYua4D5q21V18fgO6jWmFkxqG4iWXrnXkOl7qWotP4vHnPj/+6Nv/9Xjlzaft7euER+BJ5xA0rv0dagWXVbrURvilRM/5G7CNTKQwk8uXc7DyuV7n5P2WHMNOBblL1oL0W4wumBcDq4KmLt0LstAe//4z43f/+PMVix8sqkE8Gw1jjDcuXB5f9J9kyhzwc4dlI/purYCp6LrtovfmNE+P2NtdnnfNzkenruPdFFv95Kh5rIprGpFqR44eHg9+6IE6qLRcLKyTRLQKozXCweffCmubGTMHNWDvrB3EF9283fBUm7Ni+qSs4W38oMefLu6AmtuWLq2LUcv1+oW/8ysufaUb6OW3WcpKabRvi2WUzCH+Lb9Y8wASvx5dIw1+1wDxx4Y5Izfg8Jb8i9/578fZ82+avAwdkh3cBLl+uSIh2WXYdgOsMYFdH40IWuYljbrUK5pZ9kkRxfvSY4TAZS8hTzvjl9TNXRet/zKJTJ9KaPWqhz+v9rFJZKCYuSjOnDs7/tmX/oVe4V6fEwKoqw1mFfn/5OUz/pNMufeyqVK7ZXxpWN7AtltGRx46lBcpN9fPJicnb9nFrbf71Eo+Uop9mZOl9eTcds+pcccDt2dtOGj5kN66XgSvmB+1KIVwqYnbOW4LrSS2p9H+UsyNNnPjyPzbDGcDtst1DlCCuerig3F9rv0VNx+1YFvdmr9PmqqVZfwm5il/B8SxqGPkuvNiVKRpRh9DcrYaDWokb42FjTK1eZht+xovHZD/zMtfHV9+7Lf8I6+eUw3QYnt3gAMdCZZjQOOa45rxwI7hCSzlYw6JkcWLBoGAqh7DFAVqGHx8ccp1LexlNHz3TBIMv00vao2XeNQMVNKqYl9+7Ft6tXvKdrcbwVUU4y+m/k/PvDU3mcdVY1MxFBPuOysP7H77nc2n5o1bvoXfd+/wqp65m4/PLBKpi63mPwohO/6sAfUe+cjD4/AR/kBjHj4AQ1ad1Ose+Bwrnh/5RZEGelfqF1g6ZK/xytk0calvIi220QJZg6FP7hyf8QhYLQJCkjGdZI/9wJTK9/jEsO3jAl64rU8+XfSWcwxEx2rsNoEps4CanlV2YuYruOn4w4/QHKU4XF1z13r4zpx/bXxLd29vbkV9hbGeeYtoXnwoFafxFrBRtUHmzxWc+u7qCzHT1KWGLZXMXG06YUOOgVj7dU1XnuFEJuWJbsRY9LQNdTwTeTtSesQ4fe6Mv2zrn6euJXroOQXF+GLtJf6og0xvMHXeqGotuzlWcceU47uyNHTny48xc/Vovpvv3uSEn7qdi006vmrE8ch/y+03jfveXf+clMWtZnPpRU+Mzeo474zqTTp25cXOXWOCXD82VEqaCMTc6Iwoba/51jaisVoOmZIct+L7FPax9LjVNR/gm6280QPLhd81d6AFXvk7canOpoaFCthdtq2Srm1zF0kpmRftxt5QAnPhHetl371ff/tZXyc0oz++zkRfMfETKtGDeJ/MQHzIqJu9QXVVa06LULeC50INnPg9F74YlrP0kGSwmPFHgq13tkU4eUuKl5/5Ucpcd8E/+IPfGW+dyX9xurinjuw8/iRT/qgDVm2o2lj2qLMPKU/7kPAo5A3am5EGD766w4vfd/ZZs2ogvRbhp1UMbnHQD+vt/32P3D1O3sLfEeMIWD7Wj53ABSFfNe7S9OYgGYSY7fLZLN9i5ihXMEZpU1ETLWYuSNsdQ7Rc9AnZ9qMrz79fMB2FmgZrsxOTo0JL3Y2Aj/nYM+NC6fZVgT6eKWeXC9zrays+z0WenbqC83luZCE8U7urRAtMietqlnLh4tnx5Atf0Iszvysg+DqVVLyvV69EChSYo+6j1IBPfBbuqXFMc7CpAVfNIDt1J4daar1eBi4runYpV3OrbltIkJ+FZ7N3mkFR5yqHJtslCNHUdQYb/z/4+/9vS0Atlyugk8vGfvr0O/6HJWygfGGmWMX9pZl83mA7Uk3GjlQjC5HP2mm2ySMZn+taTXyxmT0isUWWj3brHTePux/Ib+yxHt33AXqV+mB1IKtdVjQJW02lK73XPhxse+l2UMtbfFcIfDDk7+Zgb7W3GKrfbfhR9uT5Ou0IdEuvFGYNW/QpuU56Rq4nq+tvPhOTY19HKya76ySS/I2Va5fOqXPAso0o9JlD5diu2ORGt6nu1beeHW+ffcV+g0P23Vs18q+hpJPQSRBiMmvvFfs3YHrtqIHB8bkO0IzkzDqQi263gW515VcwY+VHvc2yuiN7MD/xdyyYnyUZGMcyEK0tcn/rc/98fON7j8d2XauZsHQE356/er5+UcCf/7PpvGnV2Ji+6/K2evH35t1v/SUa48dHPermaBzDh86YjtPEXXOILZzWifE33t6lt+lHjudveQMumaxI2s6dfDbM8PKWPHd94Nh8BKZgIzVu+xuTPwPoMnhKtn9KAp7p4iu+9YiAAxaatwKX/epcE1m8iOrtr4CxQwqkm1PjBZmpYwjqWG52Y7c+L0QhmUercPMi1SQ7Buy1vcSlPfPSn0hncmq6jpC2MNUhE6tWeV1mvpVvXsHXoaT3mkCW87pWDGN9OQKVYqrhjwWbU7Nsx5Zoaz3izpbAnxAHp+E6HRComOMzoLc3ly6O/+wf/4Nx6XK9vSlAadZr5y6NN965kk0sZ2/Ubnq6JgcZmUdiC698aXoxULGNkxeJbYzUDJeNCy/+LY5UXIY3trrEsA+MW/VZ/KH33Vdrtp0e6+2rdUsUvW633Ck7VlxgtbCoQTm2ekATMrpWmbhbb5Sd8QqdPusVxNnqTZJhF/Gpl9yDGRXbGbNU+7upy3okuNIhNMemDT39bgPkYOcYxFZb4eat82gN145/U43nX/12aYJiXGeNbDzZuibsr9xwfMVKsN1i+20pwLwBcHv8Kgu61lK8urKBTdlqPHSd8mhCb254mky5fdA9cbdCk4EpclSYmnlL3tUPjC9955vjj7/7LVugUwFpb164Mk6reTPq4U2kbr7F7ju3FqrfZiMZ1lzH4t8+h2+x+S26pWI1rhscSXJWGz2StckLi21J84hL/+DHHx0nbjqmY8p3Ejy4g/BgcVp2bcfEzd27uNWA11LYueCmlDYNzQrTPOWQl9TyR1+RuQjirWOab8Vmcqtkas7MxGxkHUBisark5Bjlm2PKTcXOB9HpS4NT/Bwa3TbnSYXDA7eIFd1Bp1wPCixwLUFuJDN8++xL/ochZvadeIH/99ROqvC2MkGOQ35xO0Y/5yUFmxguSuJImD7NuXZSr45Z6GumgaUb0EJQ40JD+hDNV2ep2BVtWHQK8Vxn0MW7GG+xTc6JQb74xqv+ufi5C+/gmCmAz98vnL1YPxHsjclmConezX5kODiysTOacyXjy+dv/glr1+Nvp3fMC42uhOTS/KpXm7rH2pcZQ6p9btI/+pn3jkP+f82y8IZk6zkZaeTYP9e/OJZbTmOj0NWAxbVacN6S6/GQMWddi422phhtI936Liljzo1j4IEvHsGePBa/pflR+Oy6fWdAVzqt8tJyjliwHralUUS7Zryce+gl22YFN/wdHw3f5vK/AktkQyzmVleDn+rYJn1h4JnxHEvq2+OYudYrVpW7/lqLFr+AkiIxPedUMOT3H100SSAYrqdZfaTTZiEb/hltj4uw39BA9Q9VQPv5FzX//I8/P55+8fk4FlwWic/f1PEGU2EOjPp5O73XxET6Tl6+bGbpNNnUogb1+u7dd3ViLHtqIYmVTRzbsmqVNG+Jp+G/Nu6459Zx132nvI45SdWrmx5i1bJoaumKkRdZWxFTgojE7C4JXBNZzWAMIXMCfYGUPYkbiODu0Jzrn4YaeyeRRSrkmEtvQs+tH+1ex3JeF0ydDs9jsmNNAhznVjPjF18d/goZtju+IDz+kAl/a5ArBcDimqjfmvAdnesNCTt2++3RQSVKF90xxmQQYXf0zZd4Mq6DY/t5xVVMM6yJyd+TyOeDbWADMkE2tQQnISfCndj7v6zRF9IGfM+/9vL4rc/97nWxy1d0hz9zaWeDehOr8cgmSmOYvuvmbXs22rYJqzkmftm+e5NDMx+dxY9t7oyTE7996JKZTXPaz9ocGMeOHhkPPHq3f5V1O3FqrKdtXkw3vznErStmWtsS1uiaZ7ViKByDJkC8EwTP0DnC5i5dXfk4DrBDwVBzbKlpyIyrL8zVZ3U2o/0ieJ42qqmbNTzf+FJ7u/DtFlp3a2fVjK2uymDDx7DdPmjodKTim8WE8k10TOLwwWN1o8715JFnbvZECpgiKJYLZgfeWoKPEdsPHHSBPb1ewly7HZRPsRxb1iu+CHz6OMuvwuUubqIacYL+WegC5zOYFP+GlR1V9AYgPZPLJvLnTOX957/zP4xX33zdmZ3N/f68PgJk8fRAaoH8mVi53vQ08Yj1l2dUz2ZMg9s+3/mtN0cxOgGe7eZ4VEnGlI84lYj5XYKt5HRNMsLt3APjgUfuGnfqTo7NGrrnuL1WmJIEKxrZGqtQfOn2i1uZlk41coGEs3kpj2/NydjFdzzS7xQqtTnW3eijN3arqleONeaI0nZU+pLhYnsI+PYGicVHhWkXyf7SGzarM79I1uuYgJfGvOjhlmOBaeXeopko9k0n+R9n4+sfjdHcq/BODs2DxVqCOyBGyG/T67oErAGgBLVjbkUyD15UanxMIK7nonhqcH2azASl1MuLU9ldFSNjDlbohXSx5lVR2naSInnHzmYgfF6fwf+Dv/8fjytX6s8wExfv7MV8weZNRFOUuDeRpHUFmtNv3ZnXjk+7ND743MX7Tk7N/c/YufsmVrMv3V/glW2f7XonI8QO1zXVjhw5ND7wkQfGoSMydEw5fHUQJf3wb7GVrRc8DPtF9ougY/KR3AYjrzFr5IRnCwO0aHtCtuchSPbFABA79aVY73hLHk0Sps3hxmGwXqjdgGuuDiEjpjekkAsQ8xioV8mTKyTMWSm9G6icovgatFKTSyRr0Ckeg6fa+gJ4/Oit4+SxUzbtcgLavJLKlWtpKTiPxyBuWZTqcmxJ5LysKStgcb3CZf6+fvBWnfzeSmrBOOiDKDNJgJ5BRfZBVozJEi47nzEKmK5V9cSp0ub79WI6xvinX/zc+OqT+Y8ScJ+7dNX3L0pns7JRSy6tN7MXoXTfydvnnGy25Eg6vtSF1zHrPa5az0Eycdno6mc9SV5IOgdpTtn33H/beNdDd8qT9eD4dn41Fa83tj07fudYL17LznMOCiMGCS327JDURuDIOSS2+aIblJhGo2eABjJOaNIt6fBz/YS/lkFfzKB9yJ1g5ptaNusiDi+xcPrarSmFbz3+ybdiF5nl32QHq4w5jawXXP4H1EflEatPONKcNrlqyub6QLcH3EiLnsML3zUpMIEeu719e7DwHJzpOTJu4CDXcW3azkZBV4Psg3WsiiB7AhTkio5qpD53Inq61N8+e2Sxzl24MP7+7/72/Ln4BX0G783nDSnftqlovYHqi7SFy7L2F2z8KSVz9uLe0MhqcieOXk1mGja1mqM2/a0Tq5yZi1Tjl18+/qPvGceOH8kauOXYLevR/v644zhSj1y8G7+Rleka0Rg7eYjihjY57h2rjSNgNj3JapXX4Ox5bujFtSVezwCkdhOQ5NlwSdeQPWvZF9kIvzjcXNDpGGsSqeuKqYvL/K0S2mLmmGhA/p6D1w2XfXnB2MkTbBfxkfs+tZSRVjHvk5kbRtfx+dJ8e8M3tvMIOoJ3YWVwPcuHrefM5CKeYEaZR4OjPLjYfqXkArZOga2UEvP5mJ3Kb5nxoyfH6tUVJgNwsU7bJWpQH2DFFORt6pe+/Y3xlSfyywPws9FyiNsGC39uNLj4im+Jvzhzo0vP5o7sn5eHH0kDyUWmvu/Omqs59ndcTT70fgHhLw1jd9y6WDfddGx86KMPmlMr6HXIuoLWt8ZjvnnXOuaC07rbI59CzgmlJOu7uZiEK+GcqJVnLvYnlhdns6E4Z45BxIKuZkDMTshxBVVn8a010L22XcbEWl9r7UPK18RCQhVvKbG5u1L8+OCZs9PULbAPZQ4nRc/4w82SUevaOHXz/eM2tfYbVdPHtxR0HJ+VmgshoTxTBx6jGeSQULno5jVZgAllghc9eOSgVi1df73tZOiEb0lUcxmPY56D+KuAJ7CLHFBCO18c6ELt0hnjmr9R/ydf+Nx45+I749jhbBhvEMs06uXtcG0oERxDqs07teblF4jK33iy5WcmNMeRkxs98bzAWa+66B2HK5d1rwtt+orvhu/AeOQ994w77r651q2OXrofyNJnrGTuXvHv8oi57+f1NSDMWLkqFi7IecZuLKqMPtfthyyRA3dsh45dDqTVlSDwgjVjBargq7JLjdRvG0zdMobnqORi22d0wYlytLgunlqpU5Bqz+I6evjEeOCeH9E1xct66uzUwi41eVwhiN0Bl5K+TogizSexB22iYjNnKYUXv3OKYY/sprEvptF1gzo4F+8ClUigyS1rEhms3u5gYygpmRnJxyLwufS3/sXvjieef3acPHxonFDzxhUhjU2VTbPK5vDojT7j/lIteW5wLLNBaTKnPvNmK//Cv2FTRyPX85BPz/liQOMu/si7757/Zpy3NLkrR/f61HohrSJ5SF/XcoVpNDjt8IjxtQ5s27eh6wJrZe6P2yz7sKREb3/s68H4ezGtU2q4jJrsim+XoxluK+CloiCl81SyaiU2j2v61Lk0cyFW12i3SqzQNsYigWlq/LXTO259aJw4ekpeF95D6tNxTbjuDvCukOXCEYEMDsxyekpKW4pam3ZYvGteXVyP0QSfMGsB3hTlIsOzfVPIOwJnHZAPZ1Xlokdjs9QMHOMtvU35ffBkS3/j9Nvj7/4P/7U3yIkj2o4q7E1HDW/W2nTYSOvhzI2tWL81J54NmxypGa1t19ny7IdT8dbjF2/lVL7rt17x1oFtNf6azLvff++4407+O1+WIWvEmvijTRbOj+TUhYjbZwpKOOEmFDX+HAUaue01YcI+B9cIdvyO29fVgLSK7fjKcF5KVK7pJXscZHgrOFZirKPzeXe3xwGdC99h6vpCJGKzMBWhv7+wKk7HNFbpiHlM83hMj7LAcyBi3oFxxy0PaZM/uOUny8diVPpulYVddXK+3dnfDO8fjrF4gFpo2zwwagTZWUdH3YDDaoeOH3n/bzrsHcsGUwBVD1K2OSiALEHHBtgcKYpa3tICv1Uob0+OEcDjzz0zPvDQo+PIzfeO1/yfHORAvZHULGXvvFWfev08HLnEkpcZdA3s6XcTj3ksvMllYkLrGStedMtqbH5DskIGPP7N+NFjh8f3nnyl1iCctVancA74WOMQS4MkjkNPTtFaA6dXMOHw9uD6i3sbTSCPoIq0N/UIRHSEHm6uifjmMdDU5WyWzcPhbfxtfluNSDgdCzzPxUUcSvPX8HW5ZU+3lEWl97Mx+e5BjVUW6ArcdI4cPjaef/UbOl/+uU9OTDOcGG7DcyfKsxZpl7LLJ3hdmLxKmmsAetELndeS65vlttH/JdFG+v/VdWZNdiXHfa9poBuNpQHMDIBZMfvCRbIkKkTJlKnlwS8ORzjCH8AP/gR+94s+iB8Uth8Y4ZBtWbZkjakJSmSInCEpjrjOvmAbLIN96R1w/v7/zKq6PaM8tyq3f2Zl1Tl1z7m3G404of1OE1bEkDSfEOqTYhHj9kdQkTOTB7t+jABIbY590P70L/+sHXyI/93BF07/bB0GOJOa7aUbPz+WmwdLvWxph4fP/sXG5YtdXLbFfKyDT5anIEqOPpvcnO+p04+2Z559VOvCAdU66RCHUo7WqXCYonVkh6Q+SaojFNkqdqYsFPs/5YPkS4BE9QHIGNeZ/mAVWtb0JAdT1jFIn2vxINZ40tQUGZ3mgxkZPlOmrZxi2Tq2hPKRexrbOTxGuvu5Lv7osWfb4YP8DQAMAIIF2FkqV/LwIdEUDlx4aUHJYdEUJbn8SZPay0XYA9M4U2zcEGKbKqHBfQGTarG9CA+04WSnC5tC1bxQTk4zHqqc4sozbRoo5A/iLv6Lt3/UDsdjujdibC5c0dD1zXi02vBs9P5FWoD6G8J0JyceHwRzrmjE9diBU378aY9Xj6MRI7ns0VWN1ZQHe2Lp+LHZ1//5i+3I2oEwjDXQmvCLCQJOaxVNfx0HeToq1khjLZgVLao+L4JGk6/igipHt5TQDSpOZGh3iLBVRSOEmMkWoO4LoerptpBUhwxcb8Mj36xPa9UZsamUJFPJ9IyZutQ6Chg0fMkX2sDuW1ppr57+g66LxjIFsQ9ia4WNq8B37VDyTv+5gYJ0tSAyTlwSGg87SSquiHFrbMTMMfDpC+L6TEMlYCIwLgxpkv2NeNh0PcYdGVV+3GDrxznRp88tujQNu0uiYWQyW9ub7Xs/+tt2++ZnYclNF2PySFS/KqpNh4/NEzKbmfl0PUCUia3s6I5NH0PGeHwjwKWETquNPhM5ipA1leAVU37ZojGedDrAKWM+fGS1vfKlJzRpXxjZIhDdPwtncYfPa2+NfJlSMlTjdxwYj+4Y0ZCyMIW7BpPixbHbV59j8S1g8YNME6zbUpchBpNdYgxst0kqztTBRu9mu+Yif03SI5RNMod0yOPhqBWoumGSrOKx3PVohVVf+pRfSXOMoKdP/UY7vvZU6jjt0AYTzrrGkoCU+XTd5rxGtRbDrsuowtTcEzzQPpDZE+blgQeRS1l5RWNwD4wAIliJugBpvrNgfxCdEjnQzRYFIWlYsO5k8b+djYtZhiws8l++9HE789E/RlHxOTxm2e+usxxgNdl4N407dth1N49MwiUmXppPyeWrX0FFj1fOOfE02RZlqPK4G/4irUvKEHmdx/y5F061U48fDUOtJWvCyngd1GudFZ40MLHtJKdVotWFIuhS7pIoQzu8VLhqyTrxU3ulGv5BrmceeVz8JkXJX18aac7oiascn889SDEyKIFk2zBSqMypB1dj1HBpMklye7xOzDFFJSrCKNU2Y8amLXr2sd+M65CrrwckZlwHnPsUVKcp6wibvA5xK1+RJgd3Hr3xRt1o9HLNEbMYWKoTQI+EtWFFDuXdRoXwrqOje7oOmcfEyoCPQoiVBpV/b3RQiLs7W+3DX323bW7c8SN3mL0po8Xuqo0+/k13NDBs8sJEntE8wXBJH9y1QbOPGuApGley9Gwld7vzdXs15hs2iPrWjq62F1481fbnvxlnHQaHTTpy6vWmGi/rcUhJKly+1CDZkkquMLEBNNM41sf4Jpk7jj5mVgbRkJH45AEf0BkbVGqNwYJZ7T57rCCneZEw5iJ7jMBlzpqDow2FhpznRwqYQgSlTX2wql8o5W3t1MMvxmfxR42KROTq1xaKQzCaqXe+0hDlrlaUMljygat0VQuWCrMfMHYTon52xY+mqgjRF4yopKHq2/aQ8fRxguLSkF62yaV0A4sSbAYgB4jj9o2L7ZN3v69N502cPHxjE9ser67HK98QbFcrO7a008+bsUg6LbqSq+ieA3lqkPGsx/RLMmoeR1KC8b/w0qn2yCOHIzVPMAzhC4YnGp0geo2bcvSOHz5tROm2ehzL4hLSH6ynC9LFkjI5Uuw0QXvdGJiP8RWMcVx4Hie8ZYhYr0YSflgO7h4eGMW5YdFh0RwqLu8gyTOuRp1Be+oojRiNm7LzpN4bvWlIkSFeh1cfbk+e+HIsg3/xZSxY0ChoyJPfJnRGmLHJk+TtxRHhY+HkJMk+jcuTcly3cYCXCcHJOCoHAyB6w2iUpKk0Pqf3QX0x2xef18UhLq58c8AbshY0DNTF4we//PKTv/+zdufWFeXomya6riOHbe+XbNhVY/i8IT0WEnbZMFCD/G5Ql3NCzpXNpgVyPuf1MexupTteLbqDB5fbN775sj5aeJOzBiApC4GVCR7Y0vd+4971aNGlrBSdeCqGhIFXK6CYz4eONItmSBIYzTIfFau+ni+IeUNlcV7ntg1/xgc5lG6soGwGT1TjGDMygGeUEVI6oLJjI4YUeJWqxpt7/BIRZEpeCpSjk3Npv/4ByurKkTQZZ0TiimrdimfOWrNBYa9CGEN5kO1F0DjS51zVoOSBi30ybT82b2FCIL0Wp67S9FXaOi0aULE9WDIbjIu48CQgApRz0jCD8TiMCv3o777Vdne3vIFjZ86b2bbxmK7NHTHIcPKMw5s906Zuu7FuUMlq0gNXSvmTk1C1Kq9mFEcOAmndeqio5BMnjrRXv/yEv7isXLmGXkLrOjDIl/Y4eFmOcxd2qaLCpxrOeU2VU3kLwvmA3BNK1/1xMaJZ5jUfSQnWsEpQ2WxbIA8wYidasOacqsnAPKo2eAjwOhfqxRInILppEkPG/8VO8slVPKmL5JbgIo8febIdPcx/fpHXykylw/r+KG7GRxnnsg25JJFSjLz+fRV0UFXLP0EB40YYQYbBFmt0goUkWoHgZVQMF3cUFnyYLfVJE4YpuLChJCIOPin4QIMuX3y/XTz7q+mRnOY79eBuGp9GNuVHSFnK4KaqTTC12mvVoFlnHKiPowM9bcXDRi7V1f2ZnxY26Dd/65n2aGx0r320cCDWqlSN6At3bBLwRsABnm4iqTlIj5GSTTRiJEVXuOpRGcMGSc4NYc5mNYR5TI69fnE3HH28YPL71W2lkbbPAZpxtH5/snVgc9RUuxUhGt7FtMbbpFElQZICDN7xxkIr+w+15x77mh6Z5A+bfLkeg8JQFwB8In2xKsHR8xbv65m6sk/jF5FxEWlcbPAxGOPq0a6b8h0+Y/RIqSIMAO+EqauvYdjEFYqAZC2BYhUjicJ1xu63zfU77b1ffjf4rb5h+obmKFktop3IOdGtisovn00dD0lMvXC8sVCXYy17POvwBUxIEHKnmBbqbJIe3eEjK+1LcRfnZ+QA65CsdQBt2TnDIHdteGxJ6LDIDlYX+ewvwgff43N0kQYLcg48NZbqkKxBEKwmKGGdKhOSN94Uk7a961VU8Bwm45Owu9MTr+5qRSn2OCOnWoI0qC3kNXQB4fjyZa6ezYusWMKeePRL7eAqv5+Omtf9FKO+jGqTrnyCdMJahKuut6pURPgQg5xkTsUYuoOLQMXu1jUrUuowhyNELiqfDKYQfXTy5eKq1iC8/r4dRdP1m4ZUgrww+OFqwiWFzAljo5/56K124cwv+rfmcHLol14iQK3CaD1J6tmgzkOouN7CAPeGdW4tjoWOQYaMqubYylkkPW1qpaeN3C+8cKI9/TR/Coi8jMN6hhidDr3Z5RpFq19+iU6+esPlUFTeRSR3qyCSyweVPvBu9Lapmk5VA8VX5oqFvEom212BZOn4Oa+l01mn6U3Ljk6LOlhbbPV47m1RnyE6KxoMblH1B9VcrDtD0QJO/Uw5Wt1xOZkh8K/LXnzq9zxUxOpaKTlj3AN31sLMhIeGD1zpFDXnmmlY6gwMC3l0DZMlGbksWHMhIn7ddIR7+ND4bJFYxQbxHa9ipUVZlVyUQhgx22eb8EzEgW13Z7v94q1vt62te6oDO3uwCi8bJRCihk18NN7FsNWblydt6niUyLMXs+BPWSId44bQbSmrTXZR1liEfHB1ub36pcfaKn8Yot4FA8jFPj17hsWrbVqUhBUF17kIScyjTd7Rw3rcoLqwB0260s0btPKHIjG4X6LFGlDGHKxZqiFZLwi9cCMee0Z0J/mIn+0ewzksd5t6v0l0mseMbvZZCgB26d50smUcqnzRPf/E7+gPM8qmhFybuV4iC1xByoM6t57URCyOWhdIcYswhy7wkkz+gw8UEoeTDpqLwyV/vHTTxhdNEcJ5QpZG3wfMZwVrLFfJQTXuND4+FuPihffbWz/8q9zQQDzOaAthETEWBbbgC7k2u+RohVeurAhZPBs08JZ7Q48256VBJft7hPRHk6z2UHv22Ufbiy+djJHz0Tvr0TWCHg0dQ+kcXqGQ+DyedkxYTWmTlKREcDNIYSOoYx1roGzCDeCoIVYtzbKFIo9Ey5Aw7qR3RwjGdk0+20YuShGDY5cj2jy++IgpLpJuZfRjIUaOREU3198TRofdJjgY/rXkcjt66FRPyReoDqFLfLZpVZOwWK9rr8aw2fslU5tKSVhlcHwagy9xt3WwN8vIi51LXmEacC7YsASHPz0W6ZQocqTR4/pi1Thxn1f28OsfuUDFiwK3e/9++/Eb/7Ndu3JGqZlA3+zkl200SDYatlmOzhjPTUcFJXU8LTq11KGulwFKuXyqzybznJf8+OTH80D/2uz3f/+ldujQinBeZy2KYpDr77mBz4Rq+us5c0ySvEPthnqEN96cmgRJvOwWE4fmi7XA3a/OmuJoUqJlXhTlCB2z/FDk8tnbS2H7nNn1smauOZOJOWvPq2B0n2NI85AgFUO8CDYOqpQL5HDHdyfGWo9osltY3h/nMMlPZA4qiRmXDfLYbpWfsTivvkZkEaITtWAZBQU5s6rodlvixsNW8+HFM1CXYMok80YYSaUmgAy42Kj1+cT4GpiiA4JJxAIR4DHU5SNpQdgkVc/O7m778Zv/u+3u7mTewI1SIsaLgU+P1rwMC2IM+5mHLOg2iCOqZVDZJNNSmW2ab7B5M2uysFwv7GrIMwhc6GXfv3+p/eEfvtL2L/vfzOsUspZaE7jjYPX32/ydiGUnxB8cO/Ak+cMAwhyJwTHYz1FzJ14tyWrqYCcfhLbH5NwjJEgDm8Sdx2NLE85YCz4QZRSV7Lg40jUQ6ZOBq27y9FjjtXalVwxNthLSpLUxXk9Z5Q8aEucm/0rwFD8T6siU1C+MsKUZ05zCCBuwc2VJKydGv0Qz9xUVpN9mS3kAcuJKKYObksarqkCP5gvW2PRIrxDHwKILwzgZWLLovRQA3jg+/vAnahpKY9k99Kwxsvhx2XrCRFUfGPmQc1DrbtKTQ/JZ7JiBJVc+VcTA2CSXv2PQa3yZek7o9Onj7eWXT4UtHFoXrVK07LVQU+OVNvXSQ5iSoorLgZAtaRIHZpQncrnWFvEpiKo+k+S5jtDlTchirKkvS/hws6aLeCtpCnJAzxUcua9vkHKVv9L1caZNIlbAoBDRyt/rz945mLM0+0O+u3FNdk8GHmyqBwKruVnDIG4bedAhxlyMhfyPvsb3M1mMKUPLwgz5wrs0tQmuIRQVRsZ1clSAcVHn5wxBhBmTnvMYb4wcAoV1AiGP35IjjychZDjv3b3V3v7F99rG+i1DsNPosggmZJ9ze0OhhR1ZHn87bv9oOJO5hVFvFOWLps/OiVAfxj4Gm9tQEW9KpXdc6uRxrqEfWN7fXn3l1PgnpXmYzH2hxcF8KxjK+evQExSHSS4JermRBz1b0STKYWyqHOBlU78QC9mH5MIKP9NevQx7a/IYlosQy2/NJJu9PW4hMKnGACovSpRayO7HVsCJZJIwPAW7fP2Dtr51eyGC60IACUk2Wu4nMEiir5FBXENh6fERl0XYQr1+yhMlrLIzhyU6kuiIRF6opBBti8f3h/wbadIZJJr/giqbxzF84aMgydFNAyJWHDkwJlJ2Nxkkeyy3og/f+4f26fl3u92Px3HEDtGRYCpWsp4HL3bLUOlQ99HAykGdw15E7ppv+YQLk2MZK+cYkvScF1R4CYNJOP30w+2VuIsLrsWY1yZPZObicznrr0d2zo989GAtY4ImsY8nTFL5exhKFDkwjlLd4vjAMVbGYpcXcg0c83gcktWbbANFyzWXOnTlV5CkPlCNP0hnfpDGdOyMQ8wUw168HKLMF51x6VzAhCP0n77/F4HZTTXr1sDmKXbKyqzsGXN2GdfVoLKYHFoJRiyM8xR7hHL4TOfP4A42yieSk8RF6r/KoqLxBiOtMbS0MYYU+yVkjPLEIVVOLwREnpn0BiHBsVzgO9ub7W9e+9O2tekfm/X4wMx5RkNnKPstL5LfJOwzMV/jlKNk6RZKVgu5alQdwVzb8C/c3aMDjqy7OK18Qb/9tWfa44+tJY7zUfPv3UIjHrPPy8BDda5cj+XhhUKrgYNYp46LWOJkyTzF9aO5Ka4IMxjDWLs812iJL104SZ6AcjNeMDf7a8wxIHi9rJVZBhwZh5rOrsMzn3n4SZei5aq/MKmIXGeZYTu7W+2dM3/b7m7yeD7y9fzZU4o1x5VcwrgTVytiTbiuEhiJSjYqeqlTXCUPbFxj6dBtpjwmL5WlsZLBGaSS4sIa8SN6Wogg7PWZRyYbpGiM0GWX2VJNwhdnPD3k+NeuXmhv/P2f+46ZqL5Jq0W3YE9e1B+P6Vg8dDBlz2Zf2hd82JzTvsKkbWpF9tvWx6+Gnm11dX/7oz96uR3mW3UoaqgnIw7eiLXBRKyx7alZX7CRIuXi6qGxAR0DhY2igoTv/oljTh0q20xzDRAYx4QVWbaSo4sx7R8cGiJYX+yydawF+mrDZ140q8ICkDHriOYzaNlCQhBnORr/VuLMpZ+0Dy98P/HpzfWTjhxszNVUvAaqcSEse/3MWhJ5uhaNu4cw8wImC33fgZUX/6SS1xCzzkVXxIbhYuNuLkzmNaEzIOIUNIshyxU44guOUXJi2SgUh4692+BxXLn0STv97JfaseMn7QwiVK3nGLy30uXgFYeUIXuzlmyfvcMnS/mybvltEfUckgfvd20MEHxPjrUjq3oEP3v2unHyA8jaQGGHZJNQqmTXuYjFJD3lchUG2Zz1327b29fbvfVP2r2Ns21j83zb3r0Doi3xP23yW4XAlcjnUy90nbscia5ki/TdZ8le+6w577BByDRdE90Pz/HkxChHZjW0NMkSyzt0c/ThA7ZQC/mTPrjwvfb++e+27Z0N45QzR+oXtLSyLuaeqFDVF14s54StT49GrqynynJcjg07dvhfpg/DWCh/vs4kQWicUrg3nfH+ok1W+aDi/Gppvdfojhu5pMkQTSKPJigeZwFTeuSvkKrn1S//Xvs3//Y/tOVlvpQKCgCuwkFw6WVIzEyoNWZfnMwgLGqS8mcOI5L26kHofWzFJEIJeHletX49N5jo7tzZbK99+53Y5DcIFt5/54uv/oDw67v+1V1p6UPnkG2JMxayXsQ7Ur3N3Qct7eNPcd1pn376f9vtO7+KJ4X18WBHcRba8srDbe3wK+3UI3/QDqw8orEzm3rldhfxY74e335ZDMn1mWxINpizPrFOackYX6syEq+PQYkIxs2oqCTB015uYrocQslQ+RxT1wfSbvvw3PfaO+f4b7DDrqUpr+PQ67cT5ZZUiJwwMVrXopHBUYghF6TcQbUuPTcLMOfSOYk7+GrcwaXTGDCacJlMF6DFIBvJ7VETixRGnWjNdqLACp75PHlqSZwe3TlZlajw2GRR7pnQNzbutEceeaKdPPlUt4GaG53umGWT0YQsHW4mIkv3RUmSsSdA+VKGyl+EXHofW5zDcyp/5dH8Yix9pKDFsXpgfzsQ7cy5621nu9bUPklKhOwYzP0SlCpJGNusG+o1L9/++Fhw9Kkj7amvPd6Ov7TSzr777bZx96pxABg+zy1jPXiw2dY3L7RrN38Ud/mbcY2sxBvtWvD9DCEMiQntupNofKh8DCB4OYIKXzaz4YfKBpccXSHsszDbpPkVevRMTspkSzI+hWJxzd7bvN7ePfN6++jiDzDIB+knTOF3DscUgyymgb8FMDSlIW7cZILEsJlS7eS5GN1zZa1o3lNLbd9BHtETQXqT+TzhUXwljCPUanUXh0bUkKA5HeQcJLBWJJuuLCmLWTyY/kjj1uZ6e/nl324rB3hkLPdUF/oXNG8853VLuWIXcNG4tpGrCTv5Z71a2CTAskHdH61vaHQdw8dSHl070Da3dtq5CzcTVyeuQA4o0fmQ8JujKzM+LALkeQp59chKe/I3TrVTXznZDhw7wNK26xc/bLevnFGMsMqRsTrPpvsPdtv6xrl2+94HbWf3bjt88PTY5DTFW3aOqg+f+u4T606zSVjIhVjxIvQU5JttYbAvCFvmgfbWN2PLhqVC7qxfaW9//Nft4rVfxTLEk6f8Jp6VSgPvTKzdNP5ECzbhZ1tKip02PVTFBE1W0axXjO7gejcP8s+5Q1NdBtgX8NCFsuoEhoj86Gin+vKJ04WVEL1rKpNIlyyuufCQJ9W+1Oe8t25eaSdOPt2eePwFp5fTb1NqGVf5RotOOJ46MIRa+CSkji8dR5L0xHdfAkouu8fHEC3r7LGwWIDSK44nJ/4p6ZOPHWtn4rP43btb6UuAJVFJo5/yZ9fzJ6GtHj3Qnv/m023tibX2UIy1yyNlbNDbV8+3z878UnVlBp2yrkWnc6brBXlTn9PXt660tYPPRd2rtkdbnGvyLjuj9eiQDem2OQZD+aGBneIKH8yZobG+tk3rHTTLQqTqHPZfuvbL9vMP/6LdvH0uwr25x/yEjlZ5LSfAMrbuG2ymMo1V6ZGini4tFscsu2SQ8Ev6PeeM9GdBLnq7peNChRPoF159m0tot4RSd3I+fwgvQHSKowPkCHumAjM/1L8pDr0e5/EjcxB1//5O+/Zr/zk+r17ThujhIYDlzcPpRvw4wKY9mu5+yNEVX6BRTvoN6LJfXS+uN5AkwfDB0TFGXqPTLynnHK8DB/a1f/2vvqo/9eQabFftia81wS1IrHH92KXWrvJBjHPg6Ep74Zun26FHD+lhaXc3zmecs2DtwNqJtn/lYGKpNwD6d+uRIpjSZF4IiZ8B37r983bhs9d0N4eIUG3Ccu5kFle90qOrnNnb5rNj7ORJRQyejgUuhzS6oJxDEONWbtsHytQ9SrNzf7t9cumH7R/f++/t7r0rcV3yOweJUM6aR5Dyhk1DwSWM/B1o0ecNWsQxdprECiN5pAhTWDJHwieikvoMHl4V26MHPGsUyZsJuXB1M6ZhD+Iunm/qzjcHQ5MuccLSfCHUpoRCX8jh+mbL9tZ6tM324ov1J2wzH1yauWSNgyDROkx57eP9Z2AsJHSBu7PuaOTKn7kS5B6/myjmWvheL3Jy1hFOcj6PU9i5C7f85accSZL9RoJYuUSSrc32lcMr7ZmvP9kOn/JflNmN5s1tvrV+p135+K22rd83cAw4y85JPq4Em6JXXa1tbF4Mw1JbO/R8mKfzAYYcNphbpJcujF7pF87rJLV3uDJGCi910gvPeYE+Hx/o4Ih2qRt64u9tXGsfnP9O++jC92Jd8gnKgHolJx9ajRiUYtWJagmhxjffS8oVa1Uxc/znxgmaUxg3aN+B5ef+xKEQCaZiMFZE5tQAqetb2zhGUvfFM8SkmOgKIpqSI+p6QK9v1qGMyabhp0nS37h+qZ048VQ7deq0/JAxeWfORnqsbpqh8PanvXg0qDYaTXLYrPtJp+PFkcy7hF0+qeKqA6O420JueVIPMPz4sdV29dq9duPGevf1vpLQZLBNVfCOhSRf1LxvqT321RPtkeeP63TwpMSjuTf4/ZDDFvLl999sW3f9DT4XW6ZN8q/7OrN9IoqNHOubn7bl/cfaodUnGTnsM6byeG0kyWZHmmREdt0Rn+CuTmC7Rj6ESbTcncNG7qrMNmN4Grl64732ztnX2uVrb8ca7WAMgD9pC0mA1sUWESKLip8TiiEwOhc1KARXKH5Zuk819fW20W+kFZxUsXCY+uKphU+XD9MkZ39kgMsApkIh/EKkpH+DNtnHu23FW47GnpUSLSBzXk8+MmhcPjKUL/mUixuFHz9NIO6t325vvfV6W7/n31P3ZqEWQRYpbRqy5GwzzX5ImDRIzoJYvb1zKSxmY9EHF6GnbeExPrlIfudZO3KgfePrz7Yjcfft56l6rVmtX7ZYKNsDEPHYoNVjB9pjXz6hdxn+Ke5u7Gg15Nzc+1ePtqXl+Bw9xTFWnRZqwuw5qkg3nZfw3d9s5y/9eZyXc0QR6jyVymCLSYWzz4Taxy84PCDCJxkSXZo0/4xbGHYP4WMuVsx2djfaB+debz/78M/ajdsfByavNZ0j5x1HUfjkLkv4CEvV58LNhmjkGwk6FUZVqZsoYjxu5iJFH3MmELD7vmdqsHjpR2LsoCTNKaBehGnDkNumhTdnRF1UwpLasWD5TwgErhwTp0hUY/lZbsjyK2P4UxaOHOp7Djb0Rx/+tL337o+FyUx5GKZNT0OPOsqucbDT0uY3CMdquLR7fCvpFc2xaulKJipflp+6EXtPqsdP3TOV/OTja+0bv/vswt9x4zMhxJutLqSQPSfL5K5/T756bKW9+MfP6E15Jz9z70TjDs7m9iaPqKX9bXn1iE+Xh4+cuZbRYSKH1zoxtHB6VHLFJr/yl21755b0mjQhRgwOZaoeP1+4SKWXlWqwDRTVBYUhpaTAKAE50oIsTryNu3GX5l+D/eyD/9Y+vPB3bWv7nuwiQRiRzNHXItRAyesjiWEBEI+OV3DVLEBQFRVtnkWR5kvL3ELFuVZKHTKW+3MZPJLu4AT6wlXSEDyg7RC6JhXOSqhg5jMMQcSIZaes8VIGm7oPyuDI7btDB/SxwWhoiSHQwldwVB4zt7Y32ptv/lXcNaZ/bZZwWhHiwizIkTLCwHoMxaOmYIYl/fimHDOfWwmLtbCutmV6YyOf35A8khp68F//6uPtt/5ZPPqi5Dr4fAXFZHjzYuMqSdmD7zuwr5366iPxoYzNvavNzCb35nYLk+0hLy0fHO80ZOAcTilx4cOmc4eBeqIwn7sH7e69T9qVa38fOePzK/EE7iHFp+OLELLQKS9KxtiYAGxYQqmasKmnuPQhmZkL+yA+UlxvH3/63fajt/9Tu3LjHfm9iaMRTiNDxmaq8caWTfPmHOCLpoAM8pqkfYHG1djz62R7i2K0H5ylmotUmtTEF5EjKN9yxgIod0Z6kkgjae/jVRdS5gop9En2m0KQE7jRSa64QGoSOZ5sGSfyHQq/FymacJax6RE31HPn32tv/eR1uzMFrNJ2G3q2Ggo2Pq/jozMmxVgsehN+4wvjN7zS+wZFDiWYFhsuWf6h09zZTmdGDmTz5fgM/Y2vP9NOP32M2QciGixl1kMH5lwvPg8+/NxaO3jyQNxRd9v29m7b2fHdmm/PvcHrMd06j+j1W1bU0+tDXlCQS4u+YuK4/2CrfXbj++323fdVnTvXpcrAZnxR96Us29ynzTR78NHxSguyjNSVholwXb/1YfvlR/+jfXzhb9vm5k3VbWfvzGizCzmb1iN9OAUXyCRdzcYxw5IjOAPkmYO92EpfVptCExgZssBOkpQ54trTpSOFTeOY6LkTxCNBPQKC0cDRuNCUSrHGc/hXFkNn88W7X2UrlAsjj1j6ZVTumphxJluopca17j45cbii1tf+339pn174QGpPgzsUNqg2lg77e5Mdck6qL1zp+NDJ4UmYUOeah5gYaoeno29YHRmfrW/8WotsM/EPUf7o959vjzx8KEYIHOctNqUOxVVj6Aft4IkD7ehzh2PjsrF3YoNHg0fjm/Pa1PMdnSLqBlZzdR3OXePYwyOuxwclT8bs7K63s/F5fGv75oTuKZWusLOtoLNP8dQVis2MJceEM0+zKfGlI29t320/fe+/trfe/dN27db7cbPalp9W89T1Bph1QIaClyh85o4LVJgegzdxUInU61y0vC6SZI3Y2QaRzb1mK1E8gPYFLyEszmx534q+RQ+sCpNNX4aWTJZMGxg7+kSKKCp0BsHqy7Zi5F7AS0rVdo/RMaoWuWxeVGcMyvGqOTbDYpPfvXervfrKb7fl5WXZaZDrQkge5Bz4Uo9j4U4eNj0h4IvdxyEZv3g25GyQ5LKD7bJ5zVD61LAqs1/W01eNJ4IjscmRz56/pbuwo8KQVPK+1aV24ivH2/Kh/XriYvMyNpx9TNOmlhy2EMDdOPezdu/KB7GmXltI6zyNMUTs1EYfb/TIqcN376+3exvn2/G1r8Za7k9cUmLKtugbOaSm8IU2ju63ni8ZbGttM95oLl37aXvnzJ+3m3fOaH52GqA8xGQvwseikQc7rtKjaY3s0TXY5wAvOWhIKROba4dl7IEZObA5gnghum0apwjLvgPLz08/JiOPJepX0lDx+p3KiQypiBEjlrJ4F1NQcQNiP90o0CbbIK/j8KlF52lCQyq6dftqO3b00fbkky94s4ZNKaLBS7dcR9rpEUpXoHma055NBcpsezV8yaFul7boQxt+G+E6OsZUYzKvUyePxJ1ot52/cDud+XQhOd6o9i+1R15ea4dOrnrzqvmjFbJ+7j3b4mGtfDfPeoP3cxe8l0IN2APndZHBfjqrutjLyJdt3CAOHTwdb5T7wiKHcA6QKhprnubMbZkX0rhm6g0Yc59/ouiQdnbvtas3f9U++fT1dv7KG1EP/zJOTlPUpoiouc+5nKMQY4owx2OO8ZMdmmoqz8g72VIaSxV9VwY5drrWJ7/hYZhsRscGX4kNPoq2hIOOGzYpNfVYOU5Y/XqievRedCg80yUJuzChjA8bOWULeWjhTEkXDh7hafigyuc61XVTfvseeXbj0XNra6O9+MKvt4MHj9geKbzZHUuTji8NqgeeftlVnx/tIXjHgBcvLMokJ+kCTDsuj4tEfOW2rTDiKS+MjUAXjW/Tn37iqH4+/lk0pSxn0LHnDrVDT/D75bmJg7Om88b2nTxa4OG6m4dy63xs8M/yow51BSdWY6TiOZhmybicD6bQ+QZ4c/uzdnD18ba64n/mW/O1rL7n6bHRWY4k5cUGUxCKfTPGPui+NvZHn77WLl77cbu7filsFEQcfn+s7PgaV1RSYa0LWy4oY1Vn2SVM9ahfpNnzOX9PBCGTy6QKy93FMgSNIuIOvv8Z3cExspF5TEhfvObJQvbxWbtOdh9WutGyIQLqGYLXRhWLLtWH9M8aU1bnhRonyXXZV10EZwE6VyooP1uE/fqNS+3IkePthee+Ir0W383z6lzNMmRfccdBnZesoRxZtoR02XeXqD2wBuGzUwwbZpvcSqYrvWxTY7b8RdZnTx/To/rtO5vy4Fs5ttyOnD7QlpaXtGFZHtreR3NvajY9Nn79N3h0Nz/5Ydu4cTYyBWlta5ZJVVydB1SZYq68E/HdTUEy8v79zba5eSUe1X+t7VviI4YBlUojlBy8xjNPGbvF4CkEdTk4Em8od+6da29//K12/vJ328bW9ZjntjMJOzVifDcT+aNo2GPeujaBFXEjSVGU4xkzeVInZV29mKybqKP2m33p0ZKGHFyRMlOj2xeR8zqLKHHxiP6sPoNrCF5m1jOsaO9n0EoqS8HRZYjPYnnrkS5/dLXJK172/IstMsSUnNjXVYg4NB4LDk5BcLnsj6MvVmKvX7vYvvzl32mHD61lfhLCjZkJDZvMtBo7YWVOdWAnkg1ecghYPmcvOVpRyYrJJp2mdV+kWV9Z3tfW1lba+Yt32sb6Ttt3cKmtPRub+9CSHrlZFW3q3NDzozj2+hXVfgcPfuO977Sd21c8APWUUH10Ph9aKlHNTH5q7pMYfHv3djwu321rh14ONR7Vw2Y3HYu+OFf77at85WfcbgtOPVvb8UZ390z75NLf6K7NxnZE5qWL69B50bE7hw3waDWpII9hlBCFqziI0iVkXkjTyet8xgahla086LLL4Ou55lfkfFzvpB9ZrZe/cswbPCw6wgHAZBS9EzixyWVDSlZBCVBhXD3SyzgyY3IRdC5aNrS4OHTxhKyITFN4bE6VATph9guT+PWNu+3ixY/bqy9/ra2uHgofTykZNjXehxSXhChbgGfcQgMXgu/QlqnMdvwc8mQMvGxY97ToaNBeO1SyxyzZDf3Y0QP656UffHK9rT6+3JaP74tNe1/vaawlp6I2tDay5OS5qb3JW9vZvNduffi9trt+w2PPAwVONp8F2aNXG4RmXJFyJG1sXY43/33tyKHnQvPdUvnIlTDlnJOWPY17feubn7XL13/YPv3s++3Tq2/E3ZunD/9iiINr/c17dWmzH4OuENnN7Ne4amHM602km1ZwWPd7LpKTyGFumlyiRe8iKfYLXJjGKtcIkxQsPoP7EV0XZxSlIieqoklUPwaTgYiYiNyKAVFYD+uBwM0Yy7UG0icMOVGMz1Kjq1ypavNJTpzfIAJFeJi4FtGv37jcdra32isv/2Z8Zt0H1FnUddaJfBmqcuHSdSz6kfoa6BBQvOoiieW0R6sNWj7VGlR+SOMkzvgc125R16PjjebkI4fa408cbud27rZdViRqYzm1qXPzxqvfrecNzxO19DDwO+h3z7wZG/1WH3Aelxyak95l8URt+q0n9Ohx4U8SLCbBWTL+vjY5v6t+YOVRm/AU51AO61DlYz6QViNe99Y/bR9f+D/twpXvtuu33m7rW5/FXHYSRx7ihBb3a+QvjwNCTmY7uPQHdaxYyeV3ToWnzddGGoMs2oc9h+okOe3UM8bOkacYWo3lI3VJRfyYbP+zf9IHCx+/Bz4Sj0TuYCNNxdlCx2dzA/U5Js6sfOSNQ5/xE6w7X8hmcZHHBVALovErKbIQRfjDEn6PJUF2uD//oYdF8v125bML7cja8fb0ky9kfo9f86RXs9q5MBZtiyaGkkMyxHwXnzm+Gk+W5AqVbB+UTLxkhG4nT/GUK7hs1HFCPxtv7eyNO/pszRpxJ+8bOjZw3b21ufMub4yXbuPaR+3euR+3+zubfczos+7pqaXudkFYiMUlOW1QwrsA47fbNrYutcOrp9vy/vwIlT7NR5rlmT9oO1HnZrt59/323plvtbNXXo+7d7yJ318PH6OanCfqoyYZuB57VvfonlT64MHS5jGnnJzQiQ8femIVyyuxNOUxIaP62q0xTEiyyuYMVUPh3Jtm2Vruk8oZXI/oOZQGde65vOqDKi5a1rdAqESOoieAzr5FLhDCRWEDr7HjKLtThKYwQJkCu1rVGGLcPbxguOLQCaARsNT465dXr15sp596uT18/ETiTOLRkZc7jcctu5Xa6OkSCZ9Wy9A/cSLwR2M7WM7IBEmmyTc12eiTI2pKxDvHeHMREz955KA28qXb99r2ji973bUjojYxzXfy+gw+vnTbvPJu27z8C6KUUwmmuflE8IoOn2SfPwqofyzkCqtBttDB+Sy+vnmxrR44GZucn3bwmbyjJKPFW1Lb2Lgcj90ft0tXv9/OXnot+A/i8/xd51J9GZf1LOqAnNVVxsGGx+JBklLGnLLDC5/JNR5+gMYNO6ZxPRtHTw6JQdLiSJpriBz25VipiYKVtWhRnjUoN7hFOzVWdBw6j8h74zQR7Dg85F6MJ6lUqXuBpKobzjnWLg2gHHLqDOLJscjTE0djMUPv+IIXJujOnZvt2rWL7de+8rvxWOg/8eRGPpN+pXSKKYxkHfCxqaDCG2sM7y/Ws+EvUDLZ4GqMmzYhJhmfmCvw2L546n1M4xkqvj/e8E7EJt/a2W3nr9+JbeqNy2+79Tt5tbAFC5kWW2lnu21ceKttX/8ooqbzpXEtlswZ1WJTW2zq3NeG6xyE1OM40pacmK3tG+3O+sdtI+7C/GprIfn31xtbV9r12z9rl6/9oF259mb77MaPA3s23hg2IjzzaPgcg5wY8ilUh1z5TThd1SVviixACGJYZUse5PxWHJVcYnTKGS9wwprAaA09CFK6rTsoh8cMdQHRCkhIc8qwmaROYwwK/JHVb1a8qCajI++M2ChCd16ETGLJMncVLhZpyrGHAuyBLBiSsXH4V2JDjxfjcLGB8XiuAUJFQuWiRHaN/tGd/jJoPJsKrhB1nV56/tfbv/93/7Ed4pv1tDmJc6rIKcTzG+MXdS1jFtypkwrSRgSoueDbAw4qG73n7By2mEqq3MOzRw4AObZjHV5/92x78+NLGpo15WLnqeYBn5mD339gLlu0nfXYcD/7Vtu9dU459NEporTGOSiXEZtblxM5GS90OVPCh17rB2mOFk0hex9FF/Xse2glGL99uC8ckSGuiQex6fk1UtWolOSrGF+X2JUbF3L6cUnKGM1dXpP/fFgpw17jdAtr1ecf1uIazD82q7HUC0P9EVPetGmdsYfe16h8e2iqwEhiSIEhOuuOw+Zs1izHHZzP4DJlLoz+Q/seWFLwOVmRsAZkfTkh5ZIkqjB0+8PA4qJJZsKh0YQyJSKOwMgsgHQ/EaSZE4CNnVRj1clPon7oxs0r7eata+2lF36treSfXMaTbgl19LslnGTyGT+TYZOfOkJO5ppSlo6ajlpbr4GdZVMrTMcKotqQy1Z2yRos7uT7ltqLJ48htjNX77Rtfd72nZtyabpz81k9MMg7ty61rXM/0BdV9RdyVFswzQseuBqbOFMYSIhdav28mD4lbdLI1ReGSu0jz4P7u1HDtj6fczfnb7Pzxu9z7RgNoVhHE1j6kBlbK2YMtumuXkX7/DomL3mT7EL6Dah8hVcnA5LiszDpyKjp7qSMaataUA0tsDl+vxHYNrzMy9cC1EtLxN4+Nvgz+SVbBtEqqldJ+zwpqWYfLOL64LKHcQp3Ad2rYeDplLUwvR50gcpWZJySiNvEQ4DqUEzK4tYBsWifXb3Q7q3fic/kL/Ufn/kY8RUzcphD1t10rUqf/Nhy7liNtZfe0sTll9T9mm0YFacTPfIXKaaWIXXhxcXEHz/qL97OXb+ru7oey6PpET1bffG2+eFft/t3PvX4BIWNJOTqBZA7bNPZjPmCs9uEJ+MgvaE7TkVJkUEtt7D84npzyXjhJU26hEU9Y2VHiKbxpBc233jQ5ZPi/gt0RaFqGSoHL2MWSPEsmsVCjLyOQwX1RTlmi+PSErJigstuxa4pk3y80uAv2Tg5QXNC5agkUuwXJMnvME6eKSpc9iJJsbD6X1FkCcqcDjaeC6bIMWAGCNUbJ+sIGXefXtr0ho8oOfJmnbLFwTfGFy99om/Xv/Tyb02fyacLLZpvWDlH+adWuJJD0B0BJaj/ko+OxNACI1i0wts27vhuk67DCazPbyzJq0k3nhwQ/8T0qeN8ifVQe//yTa0Hd21/8Tbu4rs34/Ptme9ELF/HxeFwEbHg2HeWOZco6dd8PTKHbOpNroWcwSMPyQtZeGy9lQ2vxNKDFCvP4NgMDMM4i7LneEZaRtVPjOKQO+2F6blwQqUHdWwP7FMa+C+gOcOc3iOmPxxT2vR5Z3S/1n4as2smmUT5JVtNBlabIViSk2mhZB+DoXORglUOjOlEDCN9KlxKlGsbF4vyEZAwckuufJAw3gy4tSkWakisXq4dkj9EpaxHzSB/Vucudr9dvnyu/fKdN3UnP37shMugI5fT9HypDg5GQjbGwRada43PqYrFYbtzUZlDCJC99KQFPQTC1FBrHLuMQ8+WqnkYkJn98v6l9tyjR9tyrMXbF29oc3PXpk59e759r22//7/ag607zlO5yCHZubSgkjpANXF2Ne8wy0uQdOK9/n7k9/wVB6N3gMwLXDIIzmxIMTa5sHJVIuXVmVBi4vzKIhAepHAZV/VbI54MockvRO+6HD6lhmMLIo1zmro02XodkHKEFk17rGx2dhwxJK81gzwu5wqkW5E8YSgbWI3LWEF6RJe0J0wqLIEmyyT1oCZB1FHYiOkDqWopKXDxxwR0R3ceei6GpTjGohstQlUuZmnH4jgSRRmtGPDeaCwsRrDjQrt9+0b7+S/f0JhHDh2LjbA/2rJ8RYqOTi1lqNZgr80nKH3BPb4xWIUpm/ryDb2EhHUf+kI+mnyjFgiMdPzCu47nHl1rxw6utE+u327r2/GZNzb3g53Ndv/sd9qDWx8rgX7MVeemkqTMOWLpfP35XGj9CeSVj+JFthO7pG/zOcNAfAbkzTh4CE5mLhJCSOZRMdV3Ijb1mm9x+2TpOpIupXjy0JsQAOkIRWHdU8dMzl8UMrouMq41XwODkKne4vAxp74SpqoHsfzdhk5vnyzBPmfLvm9wHBpUA/dZibDPFkESVoXWACo1hAV89uazVFR6RoXqtGPchYhw5rB2RPP7+pi8KaVgSPKFUBtdmyDa5uZGe+f9t9qv3vkHPbavb9xrOzvbbd/SvnbwwKqzZKrKxRwYzXI07OUjb3BokcfAgIKEk5Q8up6DFqb+GE5LGSpM0SSG3XMqqkroafvC9/TDh9tjawfb7Y3tdvXqhbZz8Uet3XgvyuP/t54utmB7Lz5tRK+k5OGRJSXShBwTWKwlOTY1abaJpzz7NAZ6IbChp19GdRhEHtP6ZHWu/hQRumCFSz1Ib6A1Bgzex4TZqO8dJAdDTJI1834RdY/GgfOylb7791Ahhn+63qMr+/CHfGT1X2RpERgePSYLEjyLVC9n6tPbHMNxEUhOjC8KGXICjjM5PxaGoo1/DgpVvBCZA+4TU4+++gyYafXH6PCrvjlXkYGuMxeod+RJf9zNkA8ePNzWjhzXj9LWDh9rj518qj388Ml2+OCR7lvhc7uiTLUOZfNaIKCFwBSqYOGi3pi3559mkRX3dvbTmAwSm+VSlLtkyEE1Bow/zXTr9s32g5//pL3xj2/od84fYnMXgJDoFOlbq/SaEzWLQu3wILkT7lOKF2aHLx/bnDZl9Ulh7+uU41mPhlr6wsKZjx97sbYyFQteq2jMdKZSqt5rNfZB0jQWkvwyZfwC3IKvhzRGvO7q1jrJr9yZQDh/B1L++brCslhZSsFUEncF1W7PQ0cOxga3HrlHGLb6r4KVUIEzZmzyQVFOTsRBxtZFUovmomXBLSmTW2IhQubxkSuh/nkqGHjVoD0dhsKLkwEbuQzOGIWIpDOfiVRVgPhsXmBsfXHyzWMeG4TnhJR5Q6AKFNcUKxVjGTbiq2bJ0fQIGydWdw9/XSEHn1s1hhKbq07iFRjPLuSPmKWw+TOv66Z+JcnY/nsNsidpIr6glC4jRxEmSeQlPhTw/qItlBhc0oAn4UtR6+0RoDFeUGIcb78QOZ4dGTdhFnOExt1ZhoyTaCzU8fjhekOoXBFKDgQpg1eMiSxigZdBxLnQysV61ho5ThepQUXhVI6w5woqttulD1mDyZJUyUX2icsemRDTE9fEGByp6644XqmnHb8Orqh0OZXJ8dEi3ssYWKCYmAA1xAEnzilwwsg7mn9GzhdyoMIGJmwcysMbQATWl2haXAuuyINoA3js0KPxx/9N5CcXdYy8RDkydHHIvnIyp/LTKFF+eGHhMZTeNBQQI2guEieiDv8Na/mZN3Lk8JNKCJic1GvDqGwa1kMY/ANTpM2vdMGjjhSFAxrbVKow0fzNMnY+9EQDJ0sR+WjKJNLncjA+QbLB/aVYWoTHZp/6krMWyYGrjZYhiQ4KIzMXKVZdEKCqKddDuKlOxcIdJb8gjoFcQ8hWjREPqjzhVER09gaFwiG8xgaV5AvFhBsOXjGVw7EjrkZOSmXk7NLIKYqcoVcsdl3pLg/BUNicA+qLBxKRC8tnKFQekS25ZYm8sCfXpPoY5pCi9CbgOrThuqxwUxh0sUuUYuOUU37MsMTiBwFMFg/msDDMtUCJXpD1RmyDGqmrRqiGGsVCAnmTyU7HuNSJ7uhaK7RZLtK2FH4iw0oU6bfTyJ/R9ExVm5QBi4uog770IA0z6ZDmmPkIMCjjplaiyII3vvF+w5C1w7wmRalQY661WoAUUe7smUc828VlGBaASYgJJZW6yU2k/TWXdHotUskEi9dFZYWwJ3qCeKVsyK0xiPCwzVlUoAzJu39kUpqFOorS1n3B46X4Dm/t/wOH6vqGF9cbmwAAAABJRU5ErkJggg==;" vertex="1" parent="12">
                    <mxGeometry width="47.18" height="43" as="geometry"/>
                </mxCell>
                <mxCell id="11" value="Kiota" style="text;html=1;strokeColor=none;fillColor=none;align=center;verticalAlign=middle;whiteSpace=wrap;rounded=0;" vertex="1" parent="12">
                    <mxGeometry x="37.18000000000001" y="6.5" width="60" height="30" as="geometry"/>
                </mxCell>
                <mxCell id="15" value="&lt;span style=&quot;font-family: Helvetica; font-size: 12px; font-style: normal; font-variant-ligatures: normal; font-variant-caps: normal; letter-spacing: normal; orphans: 2; text-align: center; text-indent: 0px; text-transform: none; widows: 2; word-spacing: 0px; -webkit-text-stroke-width: 0px; background-color: rgb(255, 255, 255); text-decoration-thickness: initial; text-decoration-style: initial; text-decoration-color: initial; float: none; display: inline !important;&quot;&gt;APIを公開する際に、OpenAPIのyml定義も公開&lt;/span&gt;" style="text;whiteSpace=wrap;html=1;fontColor=#FF0000;fontStyle=1" vertex="1" parent="1">
                    <mxGeometry x="212" y="245" width="150" height="36" as="geometry"/>
                </mxCell>
                <mxCell id="19" value="API呼び出しする&lt;br&gt;ソースコードを生成" style="rounded=1;whiteSpace=wrap;html=1;fillColor=#E6E6E6;fontSize=14;fontStyle=1" vertex="1" parent="1">
                    <mxGeometry x="604.75" y="290" width="205.5" height="85" as="geometry"/>
                </mxCell>
                <mxCell id="20" value="" style="shape=image;verticalLabelPosition=bottom;labelBackgroundColor=default;verticalAlign=top;aspect=fixed;imageAspect=0;image=https://miro.medium.com/v2/resize:fit:1200/1*4UiSxxmeMwu_wLpSeaBK6w.png;" vertex="1" parent="1">
                    <mxGeometry x="622.75" y="383" width="85.19" height="48" as="geometry"/>
                </mxCell>
                <mxCell id="21" value="" style="group" vertex="1" connectable="0" parent="1">
                    <mxGeometry x="715.57" y="385.5" width="97.18" height="43" as="geometry"/>
                </mxCell>
                <mxCell id="22" value="" style="shape=image;verticalLabelPosition=bottom;labelBackgroundColor=default;verticalAlign=top;aspect=fixed;imageAspect=0;image=data:image/png,iVBORw0KGgoAAAANSUhEUgAAAPgAAADiCAYAAABjnAr2AAAAAXNSR0IArs4c6QAAAARnQU1BAACxjwv8YQUAAAAJcEhZcwAADsMAAA7DAcdvqGQAAO5wSURBVHhelP1n8K1Zdt6H7ZtDh9s5TMfJARhMxGAAIhCBSAwACVoiZZJF2pIsl+UqVdnl8keUy1X+Iqv8QR9cKlfRkixTKipSoEQwgBDCkIMJwOSZng7T3dM59019s5/f86y1333OvQPKzzl7r/Sstfe733ef95zz/9//PfDu+/+3166NMQ6ojQPqbZUtzNj07EE516rCAfKdUULm9VnNQSq3+Mq2qyUlidoTqtN6rHGgZInoMkQ21WrmdrBC4YEYjrduP5FrZakhSKzcjRnftaJ4grI9Tzu3qj0PIwaK4wBOwuqSVLyDUQmt6BoV2GrbKCW6j10HT8pWOznrOUPvMpO0I9HgoKv1HLCgCBa4D25ZFZIua8dBjbhuhM7PGPtnaMvrM9X8mSdYnwe1zd3HisTqpBI7uTQRbuQnses0Vl6juQkmul1fyfB5UMxhXPZ2NDkdnCNOghTyC4m57wLjIIr5EBeyNQ9M1Aw86rPg0Ulh2NS9du2qnS6DU505S5twnNzkN6jhuUx2Rsz01Hkw/HSxM8fwo+HHvpp5dQC4Rgzq9XFnTJw8eWgeVytmboXNlVI1XNh2xDU295pg4JMNB2m185vKOCg0Ym2DRfa4CLe+SHAWDyGfq+gYHFJXdIWLV7rjzqHJI+lzaSTg+dqPHTivgO6pKWy/DPvcU7MDLmJ9Oz57p0wGtPKWcDrgmBGxdmXHfKA1riII9HDssS+OwLbQrqt2ZJb0kyqHj6sdHOtSp+FyquH8qpUXDfRKIBdpcpCROk6XYI5sQU+4YEudr9vSD/bEskmKVGBSc5GNnaGN1r14VWOLb7lbXg5vQ7E7qQ9YgOcRraib9dcKyxx959xi5NrjeHPUtADtw0yWtjQXNcNNOt7ITSTofLV+WK8WzlaofZGJ0ufuR3bF1FzDk6ocPYKWC8yvOTcXGvmg5O64gZey/eR3TmE7Cw24WVFb9UJco+JxD1zWL4626AIH5qQiBSp4OjEnzJSzTrt5lnXM1tvXbadu19h89rSNtJ7x3VVdkFyrm7ucHrfq5NxZvQ7FmPlwe5+A6zatkXXuY1thz+LeZ5CTF5Hg4FqEYfstl1ET6aE6ZEshojs6B4qSgFutgXx7h1JchsgwW3TmGMsMCfC0o7xTJ4DgzlMxSV+EdVe1Tqu463QDFV8cfrSehAZciwrRtd5xK0HFqjPH1VHqBacp3jxoeh7A75ZYMdK8cPFOyQlsMpsMinhZfaoioVTM3Gqy/QkDCa/cAeQGF2AuQcMvrAHSF3BOakHsacPY+KklkBLh3JWdFFfGipS5VkluLm6ztokL4QPn9FxKNDA7bSddBqbXbPo3gvMWe0UfSUdzerCmR23JlrlGdw3Cu45kF2Rkc28vEPMtOjSPC8m2PH2U8+SkmK0OYU1d8CLgiLNTuxb9Vi1+WnzJO9AXqYCfVqaiUuZ8wo8a3T01V7+fiy8Vq4Eev/zke5PFkxrrC0fAZ3viXnSH1DF3Sc+h9DTuOpLyryfJ9d0JNVdLwds8AySPcEJFdYdlH87tbiwf0m/XmE9cQcUke+NN6R6g9cbM5TIhHzbn3mUZF+mgwNpdzfrREeVt44w7M8Dnld2CrmfpvjDP+Y3QTHGW3G0MLDVipnhGs2QyNmmsMXRS67gxvC5VwLVQKgdsNdFSoI9ruyxaYZ0tbC5lyPKDZx+bdSBiq418rIjfJd99/7+zcLbSTMYHVHIfmwety+0jPkdnuA7G2jLBLlHSY9cdqC+kYCP6MvFqVWKee1CMg4aSjByTTffx2Yxt3RroUyTPbiB81aL89E+dLsbBgwfHAZoeHUbuwIEuAsI8cOiQ8/1Zes5vq13PrWCHpGR+6JqjNxgvMviwrxY165j0eHysaHJam+PWulmvWHOnBhi71BRegxuW+fnbOaRfnbY5AF8LzBljoZpSNRa2Wgf3wXGq9pzcft6/AqJ4TZTf7B7Jsuay+dbjiCdW+TpUsY1dFeKuuvF17SISDH1F56G++75/J6mdAJwgx76v7SL77SNSLXJN2MWc/EJZF7pRp2DSPBWQlS0DiR1xY3RApEWlcszdxU7f1PQ33XL7OHnq9nHsplvHsRM3jcNHjo2Dhw4XWR3HX3Py9JTXVR2O0CY9rNyjVXVD2z/IDw4dOa58ruig628rH5HxJctFOHU0K91Rr16+5E2N79qVy+PCmbfG6eefGedffTFk8ZyvtuouZ2UpvI+OVYKz+3zt07sMUDwvtquzKYvPdXLENktGKQvhIeHGBVAnf0XPuVDpW42yrRWVQ2rAyZW0WydYfKhLXsPH3HXbnvpWd3+EneNzYI0uwC3edgffr9TgitHTB4eKnD93AjnQzdp6CwcWew9k+0cr6+o1doqqa44OcqNHyUmRTmBdBOCTgUsX0xJDdFrj4MFD4457Hxrv+ZEfG7ff+8g4euLEOHz0uDbaUW/UA0yWHIG0dRjbLmpzxlbZOljtG/n3fY0bxdpe5Q+ay1XdzV9+4eXx7S9/bVx+/rFx8txzOq9XQthBkjnnXid/ouMNNUZVnOu52lrvcjutQinSXskUldp6bPfls7B3F1QBjlUdfGixtqz278P+noNwI83ArAHnuO2rfG9KdAm7u8aSu4/rOFtR9de/8K1YYzMVn57rmu2+RVfkQP/cdFI0lE4Ye5r39y5cRUrdQWz6EIq2oRakwQL35u6QszvRIXXzfVnFhBku8COB7YUi0vWtpzjzX3NmSHlHjp0Yn/2lf2088pEf3eG0PqWUeacU1vicd+k34vmTh/xttwRsH4CPjWV74QL0biv2fYwz5xLhzf34d58Z3/nmU+PiRd3VNcnjZ18Yp95+bBxcN/kspAJVw+en/DlvaOo6gC3dx9YHQnr7q9B2OxCIu1a9+ArUNdc+vahkINcwbOe82iUz96GKC9ZcF6Wv2xrHnuZUZynhE6YohWucTY+J6rlKwevrLlGXSRZadBArSDyYPAm0G+WixdeZ0fHtXNvMqVH0A4/e/78xx6GVMFFMOFIp2we4LXxY+4ivIl1bOTN3jofMwgdrjJQ5eKEPrjPjw3KWuhx6R1cprebQOKI79MPv/9j41M/++jh+0y1mgikr9Tp/tYbtcvTG3o/vSJSquzPGqgurvM6HsnBR1rE33rVx7tw749vffHI8/+xL44psctnwvBDcdOaZcfPb39UFrp25Xm1Aa1UlJ3YuLp5quR46cZO9wWe9hs9BXw/7lDrD7TBXsN21F3TcqLpW1e9R4+vZhxu3Mxb/D0ClhNddcnLV7dZJ9V14LK9Xp6u30uuKtuWGE6BPfx/fFCtT9qO+gzejFqVRB7wziqlw7Zm+djes/sD8MuqsthukdM9DB2iO1CYIe2YwC/AsRooY8+JziFg+1x47fmJ85NM/Oz78yZ/R2/Gb7Ju1xXWa0L4/TfYQ4E/lRbVyw824L1H+5/B+kFSBV199czzx2NPj9dfe1KYe3uC8I7uqCbDafAl3y+tfHyfPfr+yyK9BJ7C3C3hOytBoPpc6ez2ww+oSsk6sL4tit7ELzat51wfB4psDeigPQOWMELQVSVeRyrV/G3DmBWW1MyktqhRdPNuoYNVrnKgbmO9Sc5a7nnkdwijepG95fD2bqmolElfzpvAZKV8Dku2Kl7lpWchyCFL6CISU0oXCyig/keo9Zi6EbEorjrW+vQC0X4hDSLw3TjhLfuuqc+TI4fFTv/I3xkc/8/PjuDY3W54pkep0UVt37F/Rth+bpVFgta9r6q7zqV03ljokQF4Xr0NabaRfwqS//dbp8fi3nxynJflG/uChA+PwoYNqh8ahQ4fdDh45Ps7e/bFx9dAxsnqVBGkYPiF1rRh2zsZ4SIdjSEzFEc6nfwSKm3oV9gGGpL6cmLJdD6XgaJzWix24jrDwwbQUhtF2rq9gbu7pg7y9AFnWhPDQyHA9h/hM0p4ATrOjFz/qBhUIg2PajdrfJXuOnleQrLIsMueOH3QSeVp4pzvZDiyL0qoAkMJROXdGxUOHxIncn6piXrxtcP/MbpaQ7nj01rZX1fK0abuaFtfu7lgwGg/CuGPFEIWL/Of+0v96vPsDHxtHjxzLpsCv8I02M9j39bUKVh9wHRWc/qXdqP7qZ9Kr3eN0AztxddaL1y80HOuFd/S2/KuPjXfOnbf/kLq0g9rYh8aRw3zDf2Qcljxw9OQ4f8uj+ezufC5agXoMwvFI1EoGpVjQucUZVjfy8cpiABWaG8wyev8ct2sg+UlFc/MiYTWV8eNQw12hBDdR5CjmLPG4NQ4NHZOHx0xFV/c48XgONRGr7lMtVTJP1/Pcul74ILGSE6kTbuaKGk71db3v5FVRxxRIXv2iy1IhkE0wd9gthFnH1BWiA6h9QQjJL2NfVp5fzVXdB+O3itsi9Lh8RixPsI7p23RssxxzlfjmL1vEhk1jQ3/ix395PPDIBze/upqObTbM3EA/qKm7jlc+cEDLMf3/fzS/MNQ83NTZ3/aePn3qVvvsmbPj61/+xrh08WI2te/cB7SpD2lTH9Y7mCPjkDY2d/C2r9z+6Lh2+ISyQS5br6nPUa1sn4NabzfH7RXIal85i5vzW006djd8Ga8wr9QsJKObNbkdx8YTdA3XLT1O+DNqVzfA0YYm3mw81U1/VEts0AUmqqrCsx7ntHjLrMKZ/sTmKhTNx0nLU3Y8sJAgx7qtHzZ1dZ2Igrfbgp0FIh17VlSDb0ctFhUnIWqiDcVNRN+8Jq5XdGd1rVXWGJ7ZuiPxyM6PccpPgItDqkvYdW184KOfHT+sz9xHjhydG2V/w4DV/4MkQHY7qDFmXMrkq0N2a/9sax5NXcd4Fd50NY5DWH2td975s+fGM088s21u3bEP11370OHcsS25e2tze6NzFz9x27h60z21YFkyg7oU3jx+ffWZkAuvz4mN+DITwUbFokl1ZlvzVNL6Dm9MXoNYae3em5dR+XNzuG/O5tuBUna8lOix1tzyT66U6OVkzt3a3Tqm5oZepbfjmOB8V7RiWNToZbHoAisg8CSmXH4GkQDSm6E3iFAFmNqkOabmMyLAUWu/vUVJzcqtWoZJyFJqMqY4B2WDw9SxzKt5I/RKqNz5QkNzFKm7uXLvuPuB8dmf+Uvj5MlbXGZt3jx7OsDel92a13kM3fr00ZjXaleb+TL2fa1zstvO8UXf4out+OWLl8ZzzzynO/hpf9Y+5M/b3MF1567NjfTb87128NhN4+rJO7R5qcy5Y+0C672mvk6CrK+aJtCrnVOA5siUjsrfvC2mh/w3n7h13Hv7A+PuU/eNY0d4J8Gdj2J1XVZd53HAOyBefCGbRJupB5F/5oK9/J7vxL7J2FbUm7sRUmovweC4osHx6EsudrZ7eWrumWX1VcAh9J6HUPQJc9UsFTvw6H3/Np5ExeaRYA0k3b6ErVMggOOILQNSpZvV4YWK2sgBw8+JcJ7rd0Jj9VURn/TWi9s0MFOkSN5+5/3j1/76v+ffUOtwA73t1p2Ko+Sq/yDZOvjTeIYGYGrTFm7EXePbtrox98qVK+OpJ58er73ymmtfqY84fBrjJwdsXPSrapYHDkk/oM+++A6My5IHX/vuOPS93x8HLl9wUS7sXgskQDfszFZqmDvJlcmJnVkbm59zn9Bn//e964fHD7/nM+PWk7f53QYVr1y9PJ5/7Xvjse9/fTz76pPj0uWLapeSWAO4bDTLbVxQCk6r6pDFmT/zLl5WqirlQkSr4y+uj7X43GuiLlX2sDg7L0DfRpz56rzn6qc8fR91vAiJk5O9CfbHb782+L+lmKsWQx1yLdw+ujpoEBc+xDLJBRs7KHrqQC6xUxq5Flq45tkptX3TU4RpS3PuwXHTTbeOX/yLf2c89O6PxF8N/KskWH034nnuNef2A8eiGvB8XaFHRHJc5djxLxLs56+xK1eujmeeeWa8+jKbW6dfQb8g1Kb25taG7g3OoFdGbfCSV9jobz43Djz2j8eBC6fJzjoXckmCxQlwl4vrBbUv34lWqwS/NfjwPe8bn/nwz487b9HHgor7T13kOXHuwhlt9qfHMy8/Md48+9p4/e1XxkVteBDe1vcMd9HVduf0gzaI4Yu1qq2LIHbnNa73LDXVEe0N2Rs02K9DtxfnqYDzd+YB9vYdCvlW9K7t1E2f/M3doLrOUDEXtL/c9rcSwGm3IQXuddh37iQFMUXc8ze3F6mLTX4hi7d68rPuT3/2l8b7PvQp/2ioUSVnA6u0zlSktL/Rb42BuQvHdlRj9dN1fMf/P1eqW22/9ZdyTZv7zaeeG6+88Zod/qKOt+XaRPz+vH8URrOdH48dOJxY+9D7Arr26hPjwKWz1lnvdT2NngQgOO3Kr3nFbkI5NWnGfOie948f/8gvjttuvhtiMrduR/DF6F2n7tULwnvHg3c9Ou6740HP9Z2L58alK9noc5J1DBmudLBvg2WMzHKJ73Edt6+uwCS0NWuX220H5YC31dquaGApf9tbrTwmQpzZ8OLZeuSh227+5G9GjTMDWxVIj90DGe2wOr1rBUveZmzRpHW43/b4QnBUmMbibH4su72w1NcjM8xYzUH6M23VeujRD42f+Km/NI4dO1m+rfyU8FuvBlR2wj4VN7cIk6fWr8yrb8rKAzeKtw5u5Ed6eaSs/g68/b3nx5vffEpvq6+Mazcf07zzmbs382Fv5HyR5k3dsl4A4GWCOmD5xsvfGdfeedtDrJPIMeQ4GdfST1Z9O/b4YncrinFcn/V//CO/pE17f+KqU6HUtLQIyjikE3Jc5/HOW+8ej973/vHRR3nRPjLePvuG7ugXQmMcgLGMCViXxl5ojhugp9AsV5K6zq1rw345Es9xdO2W3W1HKavU1QdWa52SeXq6JpIxHQ8p/S68wcNR72deE9DWRfe6FKd2J44M5IziysEESi3ZvIJ028xwD52TYi1T30fUrh3gV6tvshKP76Temv/6X/13xy0337bNp5pBik5U3gJFrrzrpLrV3tGViHSdaoCaGO3rEzPj/3NlKTt+dRfeOD1e/sp3xpULl8bhS3qjrc174OQxb2a+TMvdm2/Ps5m9ydnY6+bmF2AoRlG9jb/yynfHtXOvM8LEdnQLPAnBx7jG63oQfD319yX0WvCf+uhfGA/f+wF7+rjMK91qBSLrGuu4wLsTNjd39A8/8jF9fj/ljX5FHzbmz9PXhKlu9aYp+BCspV+PtChS0BRxMBVy3q1NolmaQx8DDk+pzMacgyEdXrRCaStN6GttC9fOXY9XOHTbLZ/6TU+6rjonytzl4SiKzQpOzjbNmdfcjSQtTg4g3QL583Px6IYG3O70xPaTblSGw/SlMvjnnX/+1/6tcd/9765YgJy665deHbJ9YI2vemPft0rr5Wjba6SJr8tY6pRg9YN9DvLCW2fGi3/ynXHh7bOy+b2lA+PwZcXY4CfY5Mtvq1U7oDv5vINrczuPankaV/R59+qZl+UoJ6KDQvMNnxuJcmFF1kVnR4IH9eLxoYc/OT7+vp+Ss0okZKWHCzbNqAn0PJhD67yQ8bb9Aw9+dNysjX5M5/78hbP+Ym4HXveuW/n4GCtPzBnDtrUqVaNdYOpdEM8NOI7YSRfPLive7htV0djnpybe+LEB1t5ncDSF9fQirMwp1BfNyGzl8vYV6OHIo9abremWviCStwGfmsct9kwsewdULsB3OXUluaA/o8/dH/vEz3gelO0WTsRi7ugU7x9dgTX2g3z79p8qS7lhnMORsvrWBpBXL10ez33xW+PcK2/mM7faQd0d+Xf62ro6uSfHwfpllmzo0nmr3pu9FsSyiiMus8HffqFc20XoVfdOzvrjRyaLiZcvzrhbaIwH737v+OxHfnkcOXS0QlXZeVDizb/QqnH3YjYa5UPA5aPIPbfdr3Ee8ef1w7rLv3nmtXHlKv9STvVc19Wc5zm3Tg23Pqr46RdWSDpA++yckUULupJ1BXfiGAryx0AmipA5Bmhtda19ZB4g69nm8olE4Kz0rK1ilI9mlCKK/0rJVrnTBPXoqpcFJVh+NU4e0n3/fBM4TG5yctdefjBkW005aG3Pz1XUIiz1XQ+8d3z0Yz/l8YkWw2h7NnWrzXIf2vOtHGCpgZDwO7a29vcLRZ9G++VAEtvP53wjG+0H1jlGfdZ+6WuPj7Mvv+5adP7RCoY24IHTF8ahty+Mo0eP7DR+9n0MnV9w6Z+RH85vuPELMfn9dL1QqBTr3+eHXyCyju8AehY61whARk9O8uBzNoncevIO3bl/epw8drOsvvC7wnbOOZyc+7IdsIUjum3MVniSm8fxoyd9R//Zj//q+Os/92+N977rQ1pnforQ5BSBi+mOHylaD6jtx+oE+NWSq3mX7ZB74IEMNJ+jvTKGzxejVHh2WYd97JbxDIKqsTj88MeujB7Z9YsuzAwXsS2B1wemRQlD+nKQ1qlXvuQivY7J18MvEMTMD6Vh03NLXL31nCRdQHXmr/Hq7PqZw6233DZ+/M/8+XHbbXe7xtoogvSmsyPo+OIy5gasPFpvyN643cCOXTktaeQCTx10rCXdjfhqPS5n6e0XXh1vPa+30EYuasO5lf3iW+PQ2UvezMeOHq1NftT/yCb/2EQbWgfh30tXs49N7hfuLla11GTV2jviZmjN68rJyXWwfTknvHh88KFPjLtOPeBTNa+LxrT5mTy6BpJYbxBx1wSMbTLmqPNL/w7lwLj95jvHL33618ev/NhfGY/c8x5/I991clU5u3yZL3rfOHyTQN2rGyR3rr8rZg4rfT1eNFtWMgMk/FhbZnw/CM2GpR6D9S/gP3Sb3qI7Hs9Ud48oSd6MYB3RLrpts06ekYl3LfqOhqZivrrjzZS3ATrLF9a6K/4UfPpHf3788Ed/wncjCqRGJMO0nUXVA181gh2/kdz3oez7pizlB8ZXqQ7ZDdxI0i6ee2c888Vvjotn39EY9bZcMi2637LD1p386J23jCMnjuft+XxbTi3JqJb2a2lZ3QsvPzEuvvFcYo3mzuXP+m0gQCFE/FzXqI/e90Pj0x/8BZ0TjV85Rdnmg4BfG6uxxq1JaUZsnnq0UzCDJz7VZNy7br1nPHLve/VO4lZ/Nj997q2QgXnJqc7w2Fx3MxYsaqWor83a8wVo9i0ZHd48BQWat8aoRw3r1fZxXZZUcnRT0KQ4C6CrAJ8ZKzYnMLsO0rm9ieVy4baTy78G4pWVV2Z7vKHVZMPzQTkWvkHd4tvbA+C3jG7hMWnXxqPv/vD4sc/qMx5/Ykl+10e2rgaQ+dy6+UC/hjS323b33POLf0P/D7D35WxdRx2SOJhxW/psfOHi+N4XvzHeebt+Rk1CNLdcIO0T9Dn98vdfG3yVNu/cdZf2W3TLfouujyalp2xW1ajzkfVf/H4nhbttnQWfl0gO7N7bHx6f/fCvqu4Rp7mM49HLkca4dm7o2hEmmAo2ufnA9K9OHRQfDz767k+NX/nMXx4//kN/1r9FN6HSWb9GVaXGPMat4Fq6B9qyZZeByOwqYwu1ZyIjhm1ozowLn3Oyzwf47G8SUg6OxdcRdnkK6CnsRAJ6ziINDgpnSHmrrDzGmAF0fybrVG10vY2g2aKGLoLtBVJ2H5BNXhj08uB/GZb5uO+51V8HpcbNemv+5/7cXxsnT97kt88QUnOTAD1zLH1t6tykg7atL61rd/uBG5emDrkzp738OebiX2tZ1zG/+J2nx+mX8uOrbG61SsbuRoal6l15/cy48uIb2uTcyfgCMpu6N3Peom+SzX/twhmVTD7jbqA2wKdzQ+94Ppfz2P7s9TVvoE9+4OfGCW2seMhHk+SZIRgkUh2prll63FE8AmoHVsBH7IVSirwEWBd+5/3HP/Iz4y//5L8x3nXXQ5pKjguGZyhurx+Ytps9EplVN9CySBHKKWvDEnaOx+pjw5FKHtfWNn+wabNU4v6epBxSdN1glWerPmWSpevZk2mGY+40uDYsC+CNKIL/l5CEBA6QAu7Ny2LhWz82MLlaOEkeFMgF1iRJJcy/Oa58uEePHh8/qrfmd939rnZ7zYB1NV239u34yy6XsfrnJsMmiK7GZrW/Gmj9+o0ZnXl13pTEbyDnMUz72nj9mRfHy0/mL654/YiYp4deIXkY6KWap9fdC8++Oq68dTYbuDZ5NnVs39HRJZnbtYvveF0poyHcp2Q2MvMBucilkxSCrwX43LE/9t6fGffc9ohtnu7Mi50yqmLZNsi1Atdy+gNM2lwHgFABx5BSPFf7eRIxZeL+Ox8cv/5n/tr47Ed+etx2023y5HiqlIHIOPg6ueZXqBlEmqMmudboRj/LCBlr14EZX/xw3Bzb/JsW7Og6DwdTCGsNCTL7IomynYRGL4ThV22onoH8HUmS93sV6D4SSOMu7Yu04h4TjqxZykVsr7lQ3/Puj4yPf/ynxhF/xkwEge6Go0rRvJHaX3pvrukrOfPUdXw2deRxfa/5a2v/jpTyg/i03i/maHzekr/w2NPjysXL8m+ZOxe44JhN1rI5OgTlXfjuC+Pq+YuqXZvabdvoNL8IXr0wrl4+r9xa/2p8O84pdD11iRLDz7mpzQ8kH77nQ/rs/cPi57cMzZYSyjbn1LAy3fHBT6z7Lg+N2FXfUCoq2RsxKLJgbTOtO0/Pk/6tup/W2/ZfHx986CNak7qGXDdJcM13+chthXfhjKQJyWtOvyzY3pwZr9HDAOg7sVzvGZm81jawdjwIcKVcDw6GRxe30i3wwSroQm51wjnRzXed4uoqnQdacURyiDuwyd7MxW23BVIHls/e1/y75j/xE786brn5lOO9iIA856pr3faetK5ux1d2S8p6I9uoWA3Vd2k3dcjehmDGqm1bdK+puy6m4i88/sw480Z+dTRDZuPOCzpG1IrR+fSX/+qZd8aF7zwv5ao3+aFuc3Nn01+7eN5/O53z0g9gyY/IeKel3lXFaZlvv4lf06a5dXzsfT+rt+i3EM2kaSK7bjVDAtX186wOZO6g6WA/3Ha9eTAm31LEGtsgDxWfBL+A8+Bdj4yf//ivjs9++GfG0SPHTagVtL6JeNpXkSk7isPHpW6Oa4gBafWVOnMLuF2jCC0bO3UpW+caMHNdSy5hM+QkQPOWbV8chkUVcrQ5iGgmWepi4qTbYpNLP8D/iFZvI+G4UueqlkubyzDq5SMPOx8FpFDX3IPjp3/yL46HH3qfL1qnSvqVizhSiD/NdukcY1yR+NYN3LJjjc4H8FtHdAPMY3/DGjqYth2XYlnrgOy8M6+9NZ7/7jPOydtveQlIr1n74Vc8LE+Gn4AWt+KkX33zzLj87Gu2/Dadt+u8La9Njn7l/FvjyiXu4Kxxzt12jmlUbJ/Oi88xYez8Cumf/cRfH6duuhuWeYkIpZiquXV8g/SVY7nFw5+U0uPD6RVgKZBGxjDL3MAeeHbGS3/TiZvrbv5r47ab75An62Y0rwbzf3qRJ5b7DQSIlHCnuIS5c0x0qzdEKtwISaqqAaWqrqGgf+DJRbJNsEqauFs+lwmscF2KVaoDyefimP4cphpEnJWQbefo6mUyTtWFtVRsqrjyiGO7O5eKRPvA+35k/NhnfsGmXaAKcNGCjnW8plvlmlNa5xYHAd+tbGBJPkpNZ7ay2aBgJ6bWG3c2dWvO9EmeefP0+Or/9OUtoon1wyTPIXpL84z8TDkeZ5h/+cU3x5U3zmHNO/e8i4t06fRr4/I7Z70UtAwSK+VzXvICoKd8fU6OHD46Pv6+nx933/ZQceRmbtbEs08WOeikMSixao5NyfzjsK+xYwS4/JOaiiF6vPYxEj7b5QOthqfr6sGPjL/+c39nfOChD/vXXp1JsiESx9RFK3s7yuIqbuF7UTj5fqIzrseOv8s5N3uEMZDmVXzSSgJzlKfP4JkEQPM31u3gbruk+TNYndS41RU3LG9JP4LSGAOeDObqg1VzFOk7wOazX3z1dXFgZ6AIItfG3XfdP37+537DF1VNI3dTyW47NjpK2Y51w7fq3coG6JbV/HkVXd2Ure+3HNJsO/NaYoCtTLtw9vx46qvf9V9oydjqsijW3dfm6ItrX/JXVLHm5HRyr71zeVx+5jV9sL+kedTGpjl+dVw885o+g19QXl2g87ygp/NHsZSb4B+vPHr/j4z3Pfhpcx2XQv78EWmjDJfTRe9o+zwICiV2r6mu50fRKrTApNKx0MNfvd3Tcpx4CtL5pv3PffLP6y37T42jh49sAebEnH3ssn0+0DJSXvh61ISbitGs9KC12ieNjSB9zak9i88J8dqnDqvLcPblaAKJMOSJsDdg8NIl5qQrN6J00GnyzUPlorCVz2nWGasmbyjPPm16ShRL/jRz1fjHBZ/+1M+O++7l3wUrVA2sulPRaV2mzEb0LNoW22ww89S1z/VKBY6X0nNoX2/oubH35lLbcEqO/6WnXxhvvKSNaJ8eBBxVL8O/w6wT1efF547WtiTLtcXFR5Xv2lvnx6VvPj+uepPzq7nZ6Ne0sS/oDm5wHmq9uWaRvgH44TLpi/O+Bz41Pvm+X/SviToCQbXDw66MKS0ypz1Mjh/Xw8dKbQU3JgGuYivur8ttfgfWuXBCWhcYgy/gPv2Bz46/+lN/Y9x8/OYlWW3OkWHn6ru3j1Zrz7wAx8VPPHaOyqHKmO5SOl/ImqhVyGvjPdUgkHkUhXO7FQBz4D7Kac9Ook5yD6g2/yXYgs0Dt+daLxRMbM6NWVzJ1Q2RxsUm6QXhCsRnUGiM9z764fHxH/kJXZT8dDegfDdgnS4pc62QpU7+3ATlYEbxdHxX7xr7DVguY+7ktl+Nw+oNDdpP4635c089N65cZpE2RuLqVYcloXaWRooMj4WNXo/MxZr0qY1rZy6Mq1/5/hivntG8cl4un3t7nHnp6dQwz4p6HkJSJWTpHPIic+L4Lfrc+uu60/3aOHrk5DxvRglA/TZnXLCqZjHdnH+Jbj2wEJf6nRqKy+66+3Mob+R0w5F0HGeuuRmrB9+qP3TvI+N/8TN/c7zrrgdzzXUNZI/j44vu81BTDqX94nARxGlKQtZQSiZ5HkPBb/GpsdQL4qfYmsEtQKXW4tFswUcaSqRoF3Yv2OyvwDZkAlmgtuNBz8723LhIDvDvd3tyYnAAftsGCc6s4nbyxM3jZ37qL4xbbrrV4TkXgZpu6N0Wm001fSgF+6LuxDsXtAToO5wK2k9b7FWCG/HZ6L3Z+VdiT379iXH2rbPi6eyo5SxFNwu/NPT5q6pl98MWfMXxs3qxefK2XH5eQJ58bRx6+vVx+PSFcfG1l8bFs2+Km7Vm7UGyq1FadW4+eef4wAOfGX/2439jvFdvyxuwPE7lugwCu1yuIaMpK+JiBn3ey1rJUmf5dvcaEIvDvePTh6y67RCmzbxRpa/1affeft/4Sz/+V8eHH/5offSpIPXmNU0+CRHE8bhqrYnPTo/jHrQmWTGQvIVXNRr52FyQH70rox+69aZP+C+6AAIMPFv5XICi9iUdMQ/GLnXLwHOkluYK5uggJ10ToS7frMsq1qIQF19BGOT99J/51fGJj/2kx++yiE6xvjjQOwZaN6UMNj6ONQbqNKZGORFu+OwpuWd33I1COobVB6yXo31PPfb0eOaJZ8Xn+GjbN+LWNVn/eYay1W2xG8o0LkppJReO5nXw3KVx6MzFceT81XHs4HH72VCXLr+TiUnHd4s29X23v3d8+JGfHO9/8MfGo/d9TJ9V+SOWmb1Kum7bdiBKZfwOtRr+5g6YGzGpftdRevmjlWyH4GvIibvxjYG9+Myr6EJaayTuq28cP3ZivOvOB8flK5fGi68/D7Hi12Otu3NtL8DvQCaecb0xws6oqdRtwsY2umsZyTD/4Xv+jvxVcGaX4ggnNmSzWmESfr+pC8yBuEAoMZreveGLhXuCHnZzF1+y1HWO3dbo+Nb8o+Pv/I3/ozbkIc77Ut/hyAjDviJNXskV+Pa5XZvW6DHAjn9PoljvIpJrLtifL/L0W2fG7/3258ZV3VlZE9+d9fCPAKV7c6LzaNv6toE7r3No/Pir8+DNevalTny0zMdSd4iL2uSHD/LPTPmTV9Tmr8H0WPAqQej89iQEc9M50swFX2xzpLo5Ej1yz67eL8poDqSm7elDWthe/c3nmH2Nd1WJXZ5e/HogoWNXr14Zf/LEF8fv/PE/9mafwapjocOKpb5sD4Cqk58xc833eE0D9thfPOo1QbKvn+ZFqs0COqfbW2f1PG0UQ2QWACQeTkbCy+a2Y6a0HX1qRt5ixeO3NDu25DRVnPpqdqvjMyK/0MLdm89ATAvKLKFWU83UCs2jW+OlXs+tOmt8Nvz7rf3F4UaNBO1zfK8uwMbRfr4t578Zunr5iuw8wtNFaFJsQ/p6Ee7oPMzfNrzhOTRv828ucrKBDx08ok191J+pb9Vd++Tx2/RZ9Kj9fFtO3QnWf4Jroa4HNctC1G0jAl9XrlVEciwSAVNLYMKqUnNdIS12aYti/96E/Ms5q6vMdjHVHE8C8V/zC9zH3/up8ec+/avjpuM3+5i245pEC49cdgbY29xTS083a8HHgc+2WhIs7KuAH/BtyyOd6zFJJdaEJBUmRw/FY1ZvKpNevcJeHSYN1ws2vbRg89bmT2HXPXDo4Pjkj/zEeOTB93nRAQJ9trKB9Wpg2uq6zTvA2tS13pi2prO8mE++dcmpLzYb21h0x6Mu+rXx8vOvjNdeesNHHGcuGrd6dEZ0QTX7YvDvoxfftvsNXWdGnJu3+HZ5fomZVXX6EBp9/qxXa0edsugRG1+dw8jS41OnsTYfvcbGRnVzpJDJuq6pni0B29YknYbuWjQbyUPGNPD1MrRtjjq3uK20jxe6H3rkR8anPvAZuWsuZnaVYNcSPBWTE9PA/maduviJp1iwqMaN7OlLHWu64HjfVqNE9Ek1ZmJnzyoCB7QdlPWr2yZPleJ7CDj5IsKAX48UQcafGrTYaHfefs/4M5/5hXFCn4E8z6XNu6aIttX5sMppW9p+M9/K4ivgJ29nQ5eO+Fe1npPrLLpb24vvnXMXxmPfeGJcvHBRfjm4IAEn3krZjka3xgZtH4WQRun4XGCzc44ldRdKpB46WCI+HUj3yUdvP8i5T8B6sYG5iw3MLUTfjctJF9XdWoFZxT/HXbHkzsMNe+rWZqwrCnK0b/4/eOWAs/F9BVunZw0Zlm/YP/WBz457Tt3vmIN781t/sOiH1HldecLx+wVYsZ21ctt6e5bjuB6+PQQi+S16cvTwWLHdYGbE0tUcADKUkO/wyieup3FVXr8FrygLNyddfI7QLuqgykDSzM0rqkmSn/nkT4/7732ofHJVbLXd0JeWjxgbD7Q6c0vfzwdIpmo704rdBGFRk1tx620TRKeVMf2q+Z1vPD7eevO0nZOL7k2Xc+OYFUBybF9stnmaOHnYrtG8OoboGOFZlr8/t3cE1uwjXFek6CW3WOBz2j7GQ1HXevOR0TtTcE3IGK5ks8dsPseAyk+P+hqzKJ6rxB3uygE1zA7k4/iaC6znudkFftPtFz71ywkybo3dbNeS7NsbVtLVSaGWM0KPbs7+dQtBDonFLWOxKGleJNdqDBXLPxZI0HU88FLN4Rh9gFh9cU1ivRe1f605dQ3Nb685LTG/jnTMHl4n9AIhzvse/fD4iU//3BzCElUHhu7jU9LUkW5V24/EfL+T3OFh16DWo04JnEusnIi19UJ2HEy9a1cD6zgvv/DKeOLbT8uWx1xpIhDflqyPgtzEgUPq/AVZnRtXRvcgpcvXF1Jq5xFsklqrv89z5lW64LOkGOFwyEk8vUey7hYiAV9nGWE71wBOj+ef91ZKuYqdMYOpBDquybWyzX9ltp7xsFP5Rj7bCW1wfAP6Q/c8Ok4e5xd8CBbBre384lbQRx/0uYwnawaQ/aZ385WmlOmjvqWFA6icx/rhVMGBWiQ1hp1JdiSQt9rIDuaEbTaTDHc2YpUPef3FGLhXmXDl5xBT8+SJm8av/+rf9M++sUljPebbXjWAr9ep/X0J7zeA9IYtfacm/m7wVn/rq91SDezoxGjo1dZ6586cG1/90rfljNcnWw3JCngzEsNf8C91VLWsR8fKV/Zc7raR1usiks4De0pzHPQpK8PwtYG0fxc5d5WjZruJ7SsVtA7Pzd7AuRo2vuqLYFlTKtdUMgdre0IKT9vb8YAemVi0wPZ0FKf6diNpWbsx7rj1TsuscbMa27j+2bXMzttFjSKR6FbHY6l2jqfOhuvsAl6vaW48dGrzYHm4BvaaLr24OQhEcvoPPGDFk4vBhWxt+pbPOBmrYz2xyGvj53/yL4wH73s4dLUStpGgfaBj1iVvFGsfre/KMydixo2Oa2Kr37INYdZabUm3xQ/Qr1y+Mp547JnxFr/QMpcmD2setHSCxqZZ5zO4c+Grd07J/gLN88bfDTceOMkzw1dD4qAvJk4NQ/h64Ly41bD46ZQG11YdTKzoLmu17BIJZMy4tvENOZvKmI1Flb5lzrnROlLk7Xji32J7Y05UouKt1a3MNex0i86fgm7svyj3eXFeJmr7euRMTSw1GGTneyyw1DFTfKR1xfiTYlbi1IFQQAZ18w2rGJDE8eTMw7ZqhEuHBT93eKRp5PoTiAhdp/OdK2PmEkh737s/ND7x0c9CsB8K6gr7ok7drZyWaju+iAwl2GYK8Gj2BtMmXjZojn3VgA9FxnV+Gv5q4LVX3hzPPPXCuHZFx2YnF9J2MWHjzbpL92fj/OwW2ReNFIt5Z7fEnXzHi5/vJIrjY+KcV7wf0nOKsub76HGbM3XbyNQ2yleqQO3Kml1HGhkfhFJGIdcP19EW6pors2OAaNZxFzmW+F1D6sbr47QzrBkLsGiU4fcFjBtwgtaqLrZUzy2WvaDX2JgF5Fv80125mebmBfMObnflIvLLp2Tg2QbvRUhAHNu5EKwT6kUr2X56a87pO74zzMHqORzX55kf++TPjLvvuNcuDthSre+M846pNnVzS6qBfb1l1wHk1FRunI8Ppaa4cmig/dYXZ3PLNK5cvjy+863vjTNnztvpw6/o7MuXk10XvZrdpYNemdyBpTVfS8yZcdx8+WbcSux6VLmMA0Uy8+pIsGsJITkF9DkF0fr7HagVa1lof18Hs4ZEe2yWexutfZsdTGK0zZw2Y/W/ckuvGnrGDno8i9ZXX+Hi5Uvj1bdeWYIltcZeb8aRq/UG4/bMW2YSWx3PDdtiyw2/z5vqyLHVEOTwZ/BeVIqYUMWQFdlNXLybnwHkI8d56BVi5Gk05PM4+KtlcLePfODj42Mf+fSc9LqZ11KYNGDd8RwHTe9Bpr/ltrF3F6X9buhlgxv5e04AUerG/QGNOT379Ivjhe+/Ur7u8whDHhXPocorty8Otf7RmP0t8ZcngMscF9vRsstvu11W0nxqpLmp84+QygdWWVdNfBWwv3VJam++jb/59mw1JGojV2OQ60utjsNXXBWiz5zWDI6JHKklJsq3en0Nd73pTj03+8JB/+qTXx4XLvFrvRpXz4UJ0f7MtOACaoidAKgcY80rfrSS0cIpb89BY+j8V4gB2aCQ9qXg+7lUW3T5uUTyHHNEtSVpfpuYGKfWmm8pXYcOr6Ba26Yb/o8L/vzP/1X/dQ1QU5xxZB3DJgksmHbFS910Kb74NQfr7d9rc9MjW68GrOOvth4HQLe9+M+fvzD+6F9+w/+fd6//3IguhMDWK7CzutFLatnmhq483ha74S2fN5WXODYib5/7opF0nU0GWZM+PWAbh+aOaUB11+c/MXvsbzF/QuO6HdWDFw7pYMvdRac2bCOtV377qkZIDBa1R1lGU8umj4fjiz2hY974yaCYmVkO49zFc+PLj3++LLG6BsKmqpRvytnVi6e15qBtPqfUgMuwN4CiJriAVV2PtbnmjHNReAAK0wyYgpxxdbEgfPq+YPL2HfgTOaoXDAlLXOdHEqfxO9R/6Rf/2rj/7ne5fLeGdXX202UIwz41NgsxN0dyUhros8GtGrv+6/VG66u03nVk0KxHhKOOHw9+8fPfGJcu8T8EzkiCaj4PXovyKWZhxG4uLUtceWqItvvn3/F3I+zO1Tof1PTty5+1VstTrWy3Oo/2JtI1UnuDY4vL47VtfW9stDyjC8zbmv3xZd7IUgyOyVeWWb4eZ5xx1GR2HC2rIJTovM3g2fw+btYHXvRnX3pyvPb2qzOW61ro0pKoxFfpniIieNaYROuCDIewA2hp6BxbPcAMS/G8Kvlgfwaxl6c2Zsrk0F3CGcsmMQ/pTNuOucug3Kzr3MmdDb0RK9VjLk3xD77vh8enP/pj4al5cWgxd1qXu85fmBu3JkI/78j2lMRXjm3OG1pHkm++PZGzlb/b/scD7lZPf++F8dzzr8rChxdFq+NjkY2U7QfzJ9mLHd+UPjZJuOYHiYbnJS3L3LbtCMdrY0fipoDicC6BT5E16hbLovLk23Hja6v8e4FCGauPG4DHx03dBN2r6zntA399rTvR5z7zI8Z8M2cfC4+K9TiGVMdsND8WvJ7f+Qvnx1ee/JKc2453yPVszrqVMuekiPv86aceI2hGkJl4NgRmcDPcu07ttTy5ButCEIMCeUuII/aESJkXXt+TMdxzAHhcqJuvzkwKzQeFe3p1KsQhZqdw5+13jV/66b84jh07vm2ObupadizvPHYb2N9YtN7YYPLRl+bNiy5pX8sbNXU3sgHScyhHx8+cPTce+84z4+IF/gQTDLBkWTW7hB0lo6N6zWSj9/aN1npbsTnlwcJVci60sDhlPmdSfFYyyETX2gK+jIofOLPPP/wKdHyFKVZmZ9/a7Kapm3xAPMJgzKJt85ycmpO1RvSZV7BeDsd60OK1XV7bz732zHj5rRfj8CErqnXNXRzdEWPNCxT0SVxIBf/jImRlYU3WMq/WuyJoHb6usjWEJbuq5QIgXj40FVzn48kWbY5XCmry0GVJ7wm7SOXyLoJ/kvfDH/zEeN+jH9SknLQzTquWe37a3NRqwLq69tH8o0nJRtfvONiJ034QR1PvFxjguLq5sYmVjuRQn/v+K+OFF193rn9TS5FckOpNoiNHkrARjh9VOFJY+dGqBakTfjd1REJwrW0onzYrNmW3wjN6OHpUrBhB8z1GMvLi0twMtlvLgVnPqTW/OryUJVVKWELxS1hBNaf4E+gqnGOdo/vRtOuOJxMJSk390iWv6K793KvPjnPn+W+kms8gCsJDjVPYVqKZWB63ixqll287t5l3r0G3nVp+lM8dN+wyXK/YGdMdlhufHfmSDIqWyjEiwJJXf7nrdT29a/Sv6KErxzWDXIAc+LVx5x13j5/+zM+Po0eOpo5r7W7ceYddm7qdc9E2TUNZ7XgN3eEZp6nbkdVASzBjWbnodFXLQF/GAmfPnB9f+uJ3ElMy/9wwUa9mdCvlq2/KExMq5rIeC341O5uJTGOpeeFMpHjOpcXrz/qlN4q2NPoyJnaM4mR+fREadb4j9q6ZAvpsFbBQV6ZrZtY1V4RcXvuoQdvO1YMAul9Q449SgljUqRTVQE2NxSlQ+83Tr43vfv+bClWseLY0j8xN17eUmd3cnngjg/jZNTJ/aabOM9aHWFI9HJ1HcgCntOeUy7SLzz7jr59nejO6Hv4p1TyASJIWzhAc46ku7+HT6vNKf6tOrV/7c//6ePhdj3rS3W6E9jOd/TVa86wvnNbdsPd8wDLTua5O363d8BUP2C6jOdbL5mfev/d7fzIuXLxsL6uAzB110S2xpZUsQkm1uiNDcIR52G7ZtXBlkzuIrsaXmLFByyDcggxHy9ebdo9SUkoHVl9hhmZsdjv1Zi4Kz06Y09x+bh2KHuY5GAW9+eW3kG/yDEhFnLyNMMcu6b66Dn3vxcfH62+/Yt8OPI+N17Woz6nxOOXrqQZ1bci5bdfkO8fkZGx5zZP0M7I89a/JFszJTJIePRnfQjnxsvEVJ1d7Gw3yWq34NiuisdU+/uFPj09/9DNt7jZ1c3NNfy6+naau5XZvvEHTXMxV67rMxjG30tVt8Y6l0VlXt3J2xl38j333++O55171eiWuUXptOsOxju5KKkeXpaKZoS3ZGlW+5hbLPvs9CSRmoh1r+AKqCSHcyo9Wochq7WvEvTpT3x741tZ4wbFGzaMdmmPPa8NSafLUrLM20X1M7Qb4+uGYHZErFjNDb+sEOkzsa9/7su3Zaq7zhdYWiB9sWrDa5CdHvQM1z2UKy2kLZXGgeRvWPIDv4HMR2+/6VRzTNWSJ50fx+FHYTKpYVN7OW3VOFFOqtoVj/Kz7r/3FvzWOHD4y5zpl6Zb2BCzgxsmieHM1t2TAaDUHwYvfLjXzi+08dch9Dgi3Wju7Rtmtd/j1194eX/3qk9IYxdEtyN2YhxI4CobbgoL867HOGiZSJzHeCHUea2wN6cT2d53Y/U7A5yQDS5QCpCbUeWCJG1wL2/XQ4djqkB0rbOP1mROg0tBrMF83aj1Hv9mr+LyXiBpeYpnLchRxJr9tgzHUEOWDY4mDZzmwU9fuGfv2M18Zr75ZX64ZCvTcQ0oNGj5kwkHpPQXaDFeOS6rl40XPIzpwbnMZu8Yn0n7/fkUuBJL5vJwgnqZXiShqPgCNzLgupEYofJ0J363xIN1Hmoua2NHDR8fP/cQvjttv5b+ICWoquTNiOzn66rOksxZRWsYo2xsE6UDk/HcA5UTPK11cbuq2GpsO2u67N37PqWxz1C5dvDS++a2nx+nT5/Pux0R3/mw8CwrMMjON5eZjzwVOXs4T6hbfNndVUCyb8mBdGKBzK78kb3eXUqmHBKHYkfPcZs61c8pX07I/0QSKmV7d6nWvAvMCXdAeZP83056PUyrfXa4kYK84Pv7ixL/1hlSifliP7VDRbK8HJbQJLl2+OP7wG7+TT50ieMVJabLmFXhC0RCZtFmZY2xCDlfbgRL7vDu66sKM+WA6u6RsXdcYGzmbsCeRhrFNKMDmt9YysY1I31PYsP0XOuGiXPNn7p/45E+PY/xn/WZVC9E6HfZ+q9C2yYrvht0xy1zS3sSA8QV8s6nrvJ22+tBRKr/n2LFGz+X7z786Hn/yBR97Troauc5nTrKdiETs+dyYf52mQlgVJ8d5iTjqfNQtZg9z6BhgWtUaHd1caLHa52uhDEfVzRroiJZ25LootRQ/PWBFDV9/C5hu+9yra/4m03nMzp8youMTMjYuz+hb+jqrxa/27CtPjdPn3ppO+sm2QcdKSnbigu1lqehRfax9JieYBzVM8mLE7YY/dkAB8lODiP/74CCF+v8X64PfGy6O4rg4tk2G282dNlIDW9rFf3x3aPyZT/3UuO+u++rA0oB1fO0nnUDKTK59JSefFrcVdDf0brLnDXWvGVLglTpzZmubbgEvINOv9kdffMy/lrpz0qR6A3odNjl9s2gkS5n1xK7G5IHV0ivWmzsbmz99bMM+KIlvl9h2zjL8+iXWFMRQbCQf2HdD1HiFHVqFelyLSVBQ8/N1iKlufwzMXs++zlbSyt/UuvaUZp+6G/FmvUaZcauClEuXL41v6e35latX5lpPwOu9Iczz3nXc19oTqnA8aoiZ3zyqbOMU05jeqSjiyXIzTZYulTj6IHyXI4JDzd90w8FXhcztojL634RDM7/yLeK037q4sB+8/5HxCz/xy/lxEe6qh+jSwPYNYqvszWpULexlreNrf8tqRvtKgjWngb7T1E1OS+HzX/j2ePVV/rtfPAQi+8dfse2xzLJF9wKZkj9lDDcbNvqM65F3sMtFQ8db1+Kkg5xx8TsGCNnmHMZlTEKD/Phy9jpOcvsk0VGvyxdmzE9jbmSVR7NduS0bPQZobg4AexeE8HX9G9ZcjxcQqkVYWK5lGTGef+1pt55PjRDL6eos8eHdBkLDl7C0KpoKBSmtb5mpxPxTY4Mj5Vj9Fel/D16dDtB/uAFVnm0AwZwSmaF1LyKKE3KhxK5sG/LX5MCpW28b/6u/+m/b9mWHIhoC3XJpwLqNjEHrjd0nDr1vbg1MN09jmwNwPbUeE5RruxurgZZgX3dT1y8ovDX/wpcfL2KxOT5I5sRnW61lH8W2mU2yjq+WMvx6y58XgPicA9DLDlc+8uqBQS0+o9fSeQ3REzcjd3N4JPtFw0biJmfOqAmYaTQ3McFlK+4OR8bqJKLlMbAJdU6f51kzEWPTBBdJpa6XHFmSqJmeHpUYkfHoZtyP+LhrP/fK98aZc6dN4NGjIM2r3lhUdGo2j9Zza2UbDWKT5VFDNY1wITU4B3Gabi3A9i+N+VoxOiyJzxu209R81HxD3rxGH2jxaNTlxcK2JDum8Es/+SvjvQ++l+vDQHiz0rBbb7sa8CW6jA+nP2OvjXqzJg77b8BbdXXNd1ti2Dvx8lkunLNnz4/P6625vxzSwuIDWUdrU3rVvFzwarPOaqA2tfxIwtmwVkIRpx8GPCsdTw4W560vIYiWCiA3X/njmIg3Na87/UJ8FbfKnENEZOwYyO7tokUt7qabjy8u6dEqNG2wjWEDLSqKp6Z4pmg4n0eRulQJY66r8M7F8+PJF76Tm+AOlFH101Nz17cC96wrsR5DULFy511fQaHcSBJkrLA9amcaMPwZvDciA0HIgA5YD0cusFwscarJkd9GJ6LGDBTjEjZCsf99D79vfPZjP+Hr02wHIm3v6cD24usLthsg3ljULQ9ZjY3aMcsIY+o1dYBvn+taJRts6u8++cJ44cU3tvXyFbW18Jl/jqEL9BHtSsLSqtkvSenJwu9Yc/OS5XjlJB455/UDsHOxlTpdKtEqvlwD5aB2GR3rEHLVjVJmbSCdrNXlAwE7zhU5plnH48Zw7xjdni2wLKzUOmZi+7bTxvOvPjNeefOFGF6MZgnS+5iZstdeRnx5+FAgzLQtP5mCzxWJMQ0n7rKnUWOC0GRlaJfKH130ydlyPIQu1lwgcfA5298G17+TQ204F0c1Lxp3eo8kvnLhHD96bPzZH/25cT9frDnTodwZ0eNKQcG+ioEd3T1zjD5bAtPeqRXVME+x9q9x6+pmwwnXiuarhsrcATrH8PbbZ8fXv/XMuFz/ztvr5yR0U5mx/UlNbAaFyeOu3i8OddtxXs05fWzi8L38SyzHF2l/nZ9plyvoOU1K6ZNgvS/i2PCwrMTXSiFWrgmQPkjp1IS4ZeLreDJQOz7ntKwbmBx113GF9cabY9mLS+316rX20kNR++Yz/GJLHnHW+gPxfb4FRxXwF9b4fQwV64RFJkKeM2O0VDA34F7BjQGswymdaoxhrhy6LlFTGqY/l2G5MNIpjk1Udmdlsgd1QGKymRnAByu90vA9fP8j4xMf/sSshKw1MdDd0OOasjcV6Ph2yMGa67bYjRmjqaOBabe+NnWt++5ftiVLJHnp0pXxL/TW/GW+WPOyhNgnt3/n2zY5SLf02++Ep3n91PqiwZfTRtNqTH/BdvhRm7+hp2WpztJKN+wlZ1F9ioUedqOmoK8FnA64C5zI8XNdbOGFEXTdDmBT2nnl3EtyDLkEqkyAe61b9VbsWMTLk02FEt+Vq5fHS68/Z5fPyW6ZBWvAAzq/zZzXmHMqvajCnCc6vRy5Vpo804u8SKBg2BlVV4qUjnNQ/f5VmBMTcsA0+UhwQzQHWbXU+T+Kr8EM7YS//Au/Me66/a6YfuFAhrPT1K139WVK4XfD1ngr97r4ou+/SLS8ju/IJsG+H9v1yvnNbz87vvP483imMyemgV62RW1GDKTDie9s6nV5QeiIKJpF6mBWvULKOLKcpy2+1cw4mNk0OY+d0tfB9KWrZ0dtTrlQIrdiepYuoKXu4rMz+s58hXA3/pSVkD5+9Aonjq5yKydK4v2LQfQdAqhvnX19nHnntP3melpFWrgGJOJrEXLaLDmPTAF0N3U7a0HrekD6FsW9nTuQd86N/uffgoULqzGInR5Nz/jhdHIuQh9q0ohIsZcO+IsmSbUf/+hn593bTaRcgEHrq8/EBc5TsciNi/Amp5WdbrPNbZ8kjQ1quyRovWv1i8J+83FZGeONt86OP/zid8YlvTUH3mYeMJgbMFaanlk3FE5Sos1qmTpbO3BN75Ra5yGVOrMpsr0bgBsfxMRo9hjxxSbjOtT4dabDp6lzljvm3w6QSmEnt4s3Bf7MucHAW71kNH+rtSVBbTnTFkxbKeZODvO2Ygdr3TZrW6MZ/ntrBLmjIOTr85qTINnkbWq7+lJvgnKrU0ZSmiub8vLbI71Lzrj69uHscszu4DUuSu7OFPYBqowZlV6FXdyOfItOAznILimU33ztOq61kydPjr/1a39bZrYUE+4Z9R3Yetkd7jtk225ODmJHX2H/Uue6GhUDq5yNTpzG9LVOU4e8euXK+PyXvztOn7ngHK+GpBsJsJy8NV8WLEy7hN1v0NXsVydeq5YTveqKK9f/LLQmaZmg0ec00QQ63DHOFz50FNsy8tMAnD1vshgjEiRT6DA1y9fXCdi0ANtNXeTGaK1jjW0OFaDhmqQo3Vu6y7U9UQEOI17WM1rG1AOzJnDmvO7ejivDU6jvpBoh+7lNqO1dxLX16zUN8Nlv2ec59jSEnaweT87288W3rquYPiAIAiXx27NUISHpW7FkqvdCJB+ZE3F1HD50aPz6z/3lcbfemu+8lVaW5epDL7vRsZ07dOnA9toYW4r1dta0wE5uy2oNdMbb+dv1dbhrDr6nnn1lfPepl3z86wZzS0bGdyhxMON1t12mWGMl2xRr1RhjnpRN7nzGp4m3e0HrPMmcPtt1ngqOyVyyDNudV5hlpr473h697Dh3YzF6Ho5VPFeWlQnGMEWd34ySNuMozCPWfl6UctdhzzEqsB6DwXrIdfzICS+9SQWb7XPQRhJKndIgN/k5p1u6h02oro3S2ylsmpDJ7PpkOHMeA7/LiHCg0QQ1SeqEDkPpkLtsv9+XjyiLVctvH2/R3/3Au8dnf+SznrSpEmnUkrQ3aB3/7otBsNr7DVgnESmR42JumZ8bflrZvYlXH7rh/IrR4p2+Cxcvjd//o8d0935Hdv1a6MqahSS5E8v2CehWPvTVv/3cc/Ob54aILygGvp3xwaYTygaOz9SWnboplvM6EVD7jrX6fY0gKpFYx5s2fZbqlmFa8cZtvTu1vqZsMlDNv5G8JHZ+wzmLEzWVJPOmNTp+dYnToneMC+mmE7cmuMDc1VfG7vkBPWq2q+vXA8wv9IAJdOQnnozSFPM67AwcJFW9h05O/i66HszJG6E2rQtZC1rP2JDj8ZRnUVA8vfU/fPjw+NRHPjXuv/v+dm/oFI+riaALaxkPg6NkYilkd/uX1nWt45uP8hOv2kbxOYZZx77lRaEaHfNszhe/+uR47sU35HZU/pxAiF4n+7fR8W1VS6jZUu7kqd8+k+ORju2AHYVSmJBFB4qrri/cmSI9cxNwOh4HZ7RDjeTHyzwmV6J1ENvaVgNfWUzNmsesZmw1HavAnIu6HD/zcMhYxzaII/ohoyl7zMBjgUzIHKnTPbMYe4xTN98xjh45Vr7A3NoHJvX646At5yPHn7PvIJNzPLKZ22HFH9MrH50bWP+kSy151buOdIVcR53oubDzWcu8AIaJxCmkkviSL0jhKi+1NF2H+PWUfPhdD4+f+fTPaJAcoJ4T1knqRAHfbOrMQaeDZ58PwQ7kysnGLB+6FOvIanFEeLN2U3CG1XkcG+Xbk8+/9Ob4/S88Fochr+/IqerN1sdGQieDLiynT8QcKNJ9dY4bqcmjbmUZY7GDyLocAigS7enYrC3pumWsGy5jNPDnUvNDJp79zeaUdllu8aaSk/w4XIOnTbptXCy7kVynQIM4xSZzCj/2AtuZbxnbWBWZaLVkRDN0Pd/zXms7EVTVy7jll8gaxG6/Z6jOZ9H/BkN5tb7N7LWz3c4JAmpVyGHrNUePZ81uzl39JlvoPOr+bUZy5eUVo5KzOJJzkNh+u17ve0K5On7jF35j3HfnvRAnPDCN+rTSV2ynq+I0v8iEGx996wVi3WLu6vs+JAp6NdAx65K09SPD22fOj9/5l98aly7VWyuTe8OVCbP8XiytiTcoPul7Ly/mRKMv2XzXidcR/NZXLDxOgGyfh2kHOY+bqyN++52n4bhtn+GtVpwTO/7qPYamEs/iK6xfTk1Vc99qbbDdJOLUtd1ttW+MDrt+0XxcMtrn5gcyNkr8yGvjve/6YV0HbMwm7GJyuat33MKTthlb3bSRaf0AuXfOly176+wWcu3lGLb9sgJ/PjgSVfO1lFihNhXNtAxO7wNovjoPwi7AL8bHPvDR8Zkf+gzRcH4AekzLavEsY7vlknZT1zrA3t0uypWyxlvvjdrwceEr/9zI6q7jyuB/I/nKt54d3/v+qznUsFGyOuqYeedlgyLz8+ryppeNtm3iXuHmgVz4mw9bDlL6zt113Gt8ankeATI1Nh+ay3jc2E5vQkqEUwH0DoO+GMGMues5bz7H2wl62EJiiadWxjOW4+kpJratxQ7MNaH6knWsXXc7SxtmbK6LUL533fXouOOWu1OmwnMNskGEXLf2+/wk7nNNonipHf92nE4uzKoTia6c0kW8bqqLg6vO5bZ36PQMyr08j1ShJxGiNOJXr/rV2Ius3YCkNhvjb//63x5HjhyeY+EDJXamClY/OVmQ6IzZ+QbTIcaMLJvXMqfODW6mn1jraoYU6/K3Pu2F66buldffHn/8jWfGxYv5ddRiB7Xh2Hikd6w/T88TyVO5tuvLuTAEK3QcQ0lxPZTtktTEXw+7VMc11eW8odORV3aBc0lNPpol0vNJDc6lz6e56HDCbNXjolhHrbhl5wgOgqk4Zt7mct02UzvwXKJNzpafebc9uVsXXlWclSS2qo0wgK9rHs6N78Sxm8cHHvwRaeJtScLGy6y9ur6Tm0et/miBn57F15N3BNEr7uNxUnKjldpa5mZ4Kj2qNFTnB/lFl832AO3IBQzyMz8vnkK8XYaxhL3ZifPZ4uc+83PjwXsflHMtvGzylt0We80o95xHcw9qfKQvfAKVZJp0x+KKr3a41QogmE9zrTtSvtWudvXKtfGlrz+tTX7G374DZtAPPyuxPGGgpLMnLwRl1dwjyKnCzRVy/GW33mFJcnkRmSfdCKEvlnAS558TcG5sV52O5UKMzrjWoNW4kzd7+WsOUwpFM39Xb0bQ8R1OSfUlC3FN7sR1jkmtnrmnLrDE5Qn39mgGxxi7zHTS2YyP3vehce/tD/jdalZHrc+JVGqQj3Rc7hk23UEJDAAnPgCVi6uvnirR1kTOhxUHPR56lxVg+GoqqgftBY7tK8FzCofIFvdtH4tgtbtvv3P89Kd+ahw5fNQD4t65+94Is2DQ5fbcfSzzQJrXfr9NRycR2X4pyNnwo1Cj6oCOA+vq5ouA2mNPvTi+8LWnHdx+W6wgwjwpSA8Qexu9dNTKzxrl0cjJW9pciLD24zNXPKi5hnIumQeiwobTBfvbKfRFV5em7b4eWne8cpAZZ7PpypTaAT9bnbBejjmnCCPpFQBSt+qBx+AY0ePaHXc6y4+9SETu1uE04MZH7W3U2/UW/VMf+Olx9PDx6cscykoSTg+DvmXvS2joahwmx5ek2AVc7Z6ovP7eK674VuR24eKQi+CLouz5io6/uKCK2q9BuMh4hfvkhz81fui9P+RN1YDaFm6XQU5KXkWx+/4FHN4bdkPGd45ax80t25sXZY5fOe4T22n49lrnnj13cfxXv/3lcekyL3o6WhfebyDSm27htHc2C3WZklB+28VX3OPMOqiRtit/nooO7WF173N9ni1T7voacTjNKnNClg/I7rrtW/nW1XVs+1gQzGutsOqg47jdlmy0ybdgUCZUpgCf19Pk7vonqI9o3wyV4mOR0ME/et8Hx5/92F+Qq5zA+QuXRWJPTYc0G51TPiDRXvJqxex0maief7TIYgnL2Ph7PYSDeWstjaZcv3rLwYF0Kfs9gppOTkrbMB/wSnLryZvGL/zYz/pPIJfTgkk2FrXDQnmxpWK5oVdoB+L1j95s7uWBVXYdHxNy8TcWdd61AZIL8g++/Ph4++zFymWNpOzPfxasxXcnn/x9rAizfMWhYFXDR41uYRYPUCc+R10sdupLl+KTXTneGFaqqevNkiLU5HzDTTOm3o6OV65tHHVs5MctoDWvdMsyGVcyeTI8h9g0h5O8ZmJEwONRXKOMUHay7HS9SY4NY2EVD1Fc6yBrlBjXx0F9Fv/Y+LMf/4vjxNGTKVspPikmwhScF31+u26zZSbV9PBLF6HVOs3+KFyaM+PmipSmpzOaq4dumJToBupk+yFFV7sjDIxGjBlwUuTu/xkR+ZmPfmZ84JEP1GTCdT0Y6mwusK/8U6ccwNklCua1AuDCkU3eTj21/Y8G5rQOr+y1TYLQtR5/+uXxha8+7RcVPPMElG1hoHup0dzTslzE+rNVEvB5v3YBC3WuH2brsYtXdmP3vOBJzKmFeZF1TGZc5Z92DKs1RC7KzpRaOZ4/uuMOFMScesINq9NWdgWpFVnhXhOMyRek9zxAh0yrbqNHn/Y6EbAEI7ZjBMytmwkESwUfefTT42c/8ev6TP5g1oK5L/FtuMyD9BzWDAjSp0/j+3NmbHuqCJJc//zcDj9dMEwBnz9WV0yFwt5mIiwHhI7Cc84uXB94S7Wbbrp5/LVf+te3TSNuP/Zhj3LMo6mbLHSMDGOYE9Xot/HOo5XdcH45Eb1mzUXOGtVA+9tHO/fOxfHlbz47Tp+7YEdPqy9IwHIR5NG6mzil7eUlZtvRaGnUax95m74hXGIZT5CCGjvnpAfdP1c78FXJc/NbM9emII7mOz+rCv7FqAVdF9HjUcmSIVDiLLsYEm4OZsw09K4TWM90jY5Ozj6/DKWYhDnHVetz2DzHS8G3nAYjuTVHPbiTv+f+D49f+ORfHj/xw7847rz5nhAF4tl6eZDkPNcIYwKVsToO14HA38ZPNJme899XCH7pegEIu+z7bv8rqdZXvICDmvm0KUULYV/CImCljAvp+dd++V8bf+sv/A1CPb7RpuethyflyPXwwdWig1lrLVqiqbnQpJR/xVoOFp3lApdG0sEtjmtL+eYTL47/9B98YVy4dEVhPRTIhZEfQLCgPHrjOo5Hbx/8wK8LIR8pEoPHX5PF7h+TONK6G/WLx6O4ndc+4JGta30l+7jX70FQk5fj87ubsoHjely6dHacu/DqOPvOq+PC5bPjwgX+MmwKkn/y2O16W3pq3HLy7nHrTfcnj85VU8NmwXPIU9hiFjLWd1mhFnPx+z+JqGOaDHXIjJ1Yjj3Xab7lxplrrjmWejAvX49QlnivkeFYqzGaj4yfjnGvat3OjBdee3p865k/Hi+8+ozWTzeFiapLIscSl7s5b4dwspYOBjZju89SC7K4nOoiTg0Y1XiywTvfG8xGVbBvi7Fo649RXEf2w/c/OP6v/7v/y7jrtrsUcQGHJ+Syt+qV64aw32QUofTO20e7u3an3oi+XwMTn3PjCqcKXLh0efw///7nxpPPviZOTgQv6/1LK2w4yL4AJc3BdjyxjceFymbNJrVddfxAYsNQ/JA58SOxiZthrvw0TTi2Szp/6vij7vrQlXf56jvjsi7C0+eeH6+8+c3x6pvfHecvvGEOC5A1SSI+e/Ts6MEDh8fttzw07jr1nnHPHR8ct2rTHz18chw+lJ+gOG9vPpbVYfYMm5ONF47j6tDx9YuB6zCPijd60/YLm2niYU8aOeRWMffEI4zom8Ga19N+xiBjUkpBTI42/OtvvzzOXjg93jr7ht4Jnhlvnn19nD3/tv9wxNUr/A7JFf+lVrjIq/p8fUW+5NcqlEDO2pIAikN0hU1NUu7gzlbi/AAvmJmT3AcQC6Wk3Id00f2NX/3r4zd+4a+MI4cPO1TRPxXmdLmIHcz4NuM57A/CD6xzA3St/fhq/3f//Ovjn37+MU2hNiKNx87G9JabcSbsjTjt5e69cOfmXmptd+vKKb35+TffsYFHKx2gkucTL30LUUk9rxkKnj3/ki66Z7WhvzPePvucN7UJHDxjSNigAC/oEq5ZlOtQ1FtO3jPuuf0D485T/MbXQ7ZdS0FLq9EQifHkuOwuudjVcFiffik87ciGq6d9SDDjiy88dzo72FJ0gHmhttu+SJ5rvXQlJlzf3LLdNS/e5mOz4d+5eE7vlE77j0mcf4d3Tmd1LvSuSS+6+PgvkvCdPn/af9HV8AnY5tPno2sDfDXiOHDv7X95OWcslPo6qTST7eRZVBzeIdfGA/e8a/wf/ua/Nz786IccKsZE21UiaYJLRLXSr4qT30Ms2DNtu+5+APyg/JkUuXJW+vdeeGP8h3/v97Ww61vz3EGZnDeaeL3hYtuTzVn2jFnyUiFdF1Lu6hXH642FHe72AlA6j/kCQPP0J9pnnUjFveH1wPf2ue+P5175l9rU3/db8KtXLpntRBaChF4fZ4BalaI0OmUFc8B55PAJv4W//86PjEfv+7Fx8vhtmZ85G7dUYx6TCbVh7beo3M236SVr4pMvxbrcuzpBP+1vmGO52ZbWo80YreMSNC+flMQcmjad3xRjoycYrvWS6olf0nm5rM2NvHDpvF8Mnnzxu+ObT39NL85nzOnbNmPkbo8RATyc2qGbT374N2MwQ0INXRapZMshCvEqZ6o62e97+P3jL/70r/o/Emye0wq2o0aqqxfK2JS3L87OLRHsGIuZqQVyruPOUNWfQO9g5XRez4v/x/sf/v63xrMv6s62vCXPSd21rcOxf/G1rQebly/Otjy+CNlqzRcE8/vtOfPKxt94cBxR00GYj7DTaDW1UMa4eOnMePz7/8P4rtpbZ56Vzd8W07s11iFDbYlAKuNZ1Vz88Szu2eC3bDTr6rXL49zFt8Zrbz01vv/KH3su3NXXTZi05DqrbFct3ZdaDtM17Aal2EM8RmzUVbctS4pvUFUnn9GzBLbVTNqEfFJ4JphnzSemA0a0jGOtQygMUuvcNSdmAmr0QwcPjSNHjo4Tx06Mm0/cMm6/+c7x7nvfq3dH94+nX3pS5++ieQYp3TxOr3Jw6OYTH/7NRNRYTU4mK+sLC7RsVCXF+f/F/vov/2vjw4980PP0/JDmRbYOfKGItE7AeYtOcNrdytF+YF2d82kymb5RNi1d0D7Xa39NBhOV9vXHXxi/+4UnxsX+pRZd5H4BYm61Ee3nbswDHw9fNIstXjZKNrn5levP1Avf9aZM9XD7BQBn+3KgcHh2TrR0yMtX3tHnwO+Orz/198brp7+rz3h6N+Lzy/x8MHX8sLthEq2x9EKQsZlb5RScGtXwixH12yv9kubw4uvfHq+9/fS46fgd4/jRm1XikMM5lpScdVpfYpb25vqxHdKMg46tNZawMTlZQiEcX/PTWXXVZgXragRYhtYtLTbbutX4eEbgWXT8MbDbZ7sKtOTj2x233DV++N0fG08+/5heQM/a33Gja2l+/bn84Ly9p6oFvvhh9ufy2I5h6m38qZtPjR/9yCeds4L4Om5jTtr9dWk/GB4wIGfN29Fl7I/b/G6NabdTktyz5y+Mz33le/rcc5Hrc9bzcszinPYlseZnzmI3J8fdLbYp6rY1WaTPTrcGfpadcyBTrWvQZeyY3J35bP349//h+PqTf2+cP/9a8QRdKCHViL6wgZylEmaGOdftjHdtFZnoaylXyMKV+eJr3xqf+/rfHd96+p/pY89p++ecSwJ0m1L8KDs1K4YMaS83TOvuOquxO+PObW6wcHaTbXqMHNIM40r6VLZyLYXmmG+PrRiLbw4gzDUlru6m4zePP/fpPz9uPXEqfveFkOYhIOpsCwrgmNcw7+Aq5F9mcaJOKq/oZX/mhz41brvlVNczXKPzZLhpDPtXopCYQGl7yld+86u1bV+h1cXlWr4P7nGbhGg3ca7v9tG+8p3nx7eefNl12rv2aYQl5wB1x8PHscjP3biWIZARu2uk+WfevjsCfIiO07eulqdPxVo7+uZ58/T3xmNP/wPdOb+iu/ZlebYa5EZljmre6HlQopl0OY5Unq85vg5KSuFjXL9I7UwKlNuQ/o4+Gnznmd8ZX/j236tNngSXm5YgxXo7yo6PDdIBsOiah0Pt8ryyydvl3Dx35meOO57LGJLWygTbptudy6ImhqxE8zReWUufSaBDsS+B1KPVPB3XiXjgzofHBx76SPnlnMfBfCzkymB1ZcWbSdSAjpQflxob+9py4f4vf/lfTyGhKIGUPvCUJNnm5LAlulBfH4iOWyEXTvGAOeomr2AbvpRJL5vYPh8wt5qm8fpb58d//3vfHFf8o8Ag8d6AQR/z/rwc0SsG7uT1yPiSRd8xr4vJsqQ7ju86wBMpTx9TgAUyJvbL2tRff+I/G2fOv1BvvvhYAIMapthvVcc5x2N8xijbc4RL5uqzosY7AeGAanCuPX+38ldZkpIXx+WrF8fzr35j/NMv/T/0Gf17jjlMZ2WzF5ezOYbY63x6PbGlaGCNmFzZHcORa1LxOTeecIpksZ0p3BXp0LQnRM1oAVrPI6AOids8QY+JjM4a2iVsc3IEDprj18bhw0fGg3c9rI87J3D4PIaemaeL1OWIlWLAZD3w+sSavA1ml9qnPvyJce8d+TGIKYW2+6JAMHj76SLdT3+sPVSgqN7s20wrvCROXrV0m7R/1aMa/CGH//KffVV3v3dkJeq1UQLzzzHEv130NF3Q0n1xy9p4iQabh/nbQoFbE4rZLCR9JCi6Op/qpXFyr2n+F8azL31ufPvp/2ZcuXbZMXDgAD+6rBdlxuKMH2IT5jj6QjLYnDWf9JLElxe8Ro4ERfVQ60es/vLO0mIb15DEoXHOnHt1/NG3/3O9y/iOXOsxJTF9YL+6xFSjygSO+ulRdgYOskE2vTnpNf+uRwEZGzvoNXJfIYTr2t5bx4Zc0+/JCfYxzHYQiN1zETKWae22I/KuU/f4CzgDXzfBfDo99Rm8Xs7dacKTqCElzavWDvSf/PiPQ5qYaYXVJm3qtLbbCcpHy+W319R1HhdU28C+amCVO7EKzPHRq33t8RfHV9VmUXl9yDzg+47VMYA/MTDXx3lbs00MveJROw7KL/AWbNbq4gVfUFa2Bvea3oa/+Nofa4P/fhyGZ+5x+HKPt2TlcZ7jHJPvuMs4FQsw0GdmbM896pwndeScHAxsx6R6onaU5H8LeXH8yeP/7Xj1ze85yzBNXSE6x53rzrqUXotmOm7ZnUQHQeXUBKNXM63i8SeO3zEk/oJVd1WskPzK2ePPutNH/Y0Tfs59IqxTuUHJtm85ces4ceR4DPtSzX1S3XJWyGLhgXSrkOrV2JCT37RhYnedumN86NH8o5JOS7nY0yUfOo1o6wZD1rCukXRjUY2dmnvB6V+wn98wl2AReuzX3z43fvfLT4yLFy+Lk4peEj2QtPatI24xMXWBo3e+v/m2Tkxy2qir3G3mmKvaaiAXV1u1uabNRnlmPKPNfVl38d7Q/lbYc4InH99c87mr0moKQc8D2YH2dYLq5AUhJnAkC1D86Nz1fVcHlklql7ky8L55+rnxua//x+PsO69vtQxdqltCtY0yVyhPe9L3+gStW9a4q886Piuc72yUgECpxhJDyZDOCbY54pn+5sVbOqjxasyunrTmtaymji9ajx09Pm675a44qn5OnewUsM7Leghy8oWJf2bLW7I8E5N/++WXA+Mj7/3wuOf2u4tg12xxtODCan0D+uRO1AuL0HFLtTlfwX6c6HRMa8+33xquU87ms1jffPLl8fgzrzEDH1I2SQ7POmSPE53NDCO8xKhtHZQtwuaTzAlnLRO3OeOVv5VQl/mkbTws+9Sdv/DaeOyZ/3Zcvnw+NeFZqXNWb8mSzbzZ6LJ47VbYM/RdPPCx0ipjlZ6/c2Kv8/WY1OGY/eIivoSHJ8nxnpMz7KIAv0n3h9rk71w8Yz9Yjzc5fak3YCwc4uaEZUnYfruqBrVicqy9uVIKLTVnSklAnTkia6R57cTrQSh2wUqtF+elfH099GMmoLYuI7yC9L7u7rnt3hqr4i5Xg0vA2f2qV8nhMIle4oxGHgn8TyXvfdej46YTNzm0IRNplyWdCiJ2qIXUbD1az2/Oa+Gs2PJKEVyv2gpMN2KlN97SZ+7f/dIT48LFK+Xh2CFmEXNEaaxzN4CYXFOKa7mCSpGziZOfbzsgLDFadsZ1WE82v7Dy7e/9ff8DkV4/z6/y+cUY++yvumxy7uQeG56e/UIgO+ew5ku8G6g5zSlYqRiiAhbUkey7uV9ECDCGuL1u5kt/8+3vj28/8zvj4vwHGr1dhBoCX/e07S+xLP6oNjiuNoH1csBb1zK2NdsbVINYW6W7MvOPEZS+lJWeOSD56wl+rAR7iNd3F925dPN6AWTXmETuOXVfMRI3Pw5Jj5Q/m1whY/199PgqUpO67Zbbxofe/UFvdMr20GBuUuvqSNknFYpq7FCUQ6xbwxx8MW+INdZc16i2n4/+B195ajz53Ou66HSZieB4HTIJzm/MYqC2QZnzs7PRPOIh+IJW20rw4pG8OW6hLV8cJrWeBq5cvTSef/Xzuvtp7uaQRa28uzCoK7s9NNdA89t1fewKMc13dcmaZHmr0WfsxK3EhT19Au5JIQYtuZPGpKsc4L/nfeqFL9SXbkLH6nhdRIi1rHUfj/USkqg2F5+l51J6+yIM9J34NFpEyRghpE8L5Ctj8wmLseOHzzFZ3RLR0rYxYiGujbtvv8+emSP0HgR4/RLvi1PSsY77CCqRRaHJvv2WU+PR+x+Ov+Kd1q0x7Srjd27WqL3LBebvOdtn/zad+GLGVmM67TPK8B0EhXwpnfv1J14Y//APvkVEtjyuTyTNL6rblVpePVTACwm/c0ybjNIFx6clVGyO1TI6uUnpWFG7jsblON8+8+x45fWvyk+g8h3b7KwH/qRn3v3xgt8mO+TNv6Fq9J3PJ73iHC+tirnuCvnmUglWzRc0ke0cSOEm0lwG0kJDvaB3JF994rfGpcvv1HEEqL7Iy3X9TWhFkyKAVdXPnGl1fAClCrsve4412+aLB2SNHZXSazJzp9wbb5FwZkxAd3OgGqDGaqrx12T4sm2FR8o0DD5x59xJ8iUa4M2EoYC5OuF+O6mXg3e/65Fx9213JoduDww8vaVQ20PX5OLORK6vEF+3FRmzjKrV2IkJqIuZ4eBIpV28fGX8g9/7hj73XY6Deh1EiJzfAwe8DnIycyRcyV7sTpDtlXIwnPkCYDt8gDS74nFL9+SrvrBt1EKVw82voL746h9pI5y306lVjPPUafD9trDnVz0JodBni28MurJcmCqR9ppQaAOKkAptrjHp9VMI//sG5+VYeVHgdyv8KUHt7bMvja8/9Y+2dOe7M7aNv/lAuzd+HDFZg/xl4OgOGYtqYMcH14rkplcJNMkmZLLzS+ma+5SG+H6sVqHrlb7WbbVjFuVkvfmlF0O+mkUvr6Gzu30Md4BkVh3Ut+bEkbwKf/yDP+JkM1ouiJ3BOpY7Ry4Oj+HEjrq6PD3BXVznE92pFZg1KVO4Lqf5xeEXWT731e+Np194c/o8C3U0Fm5u5qWaf3fcA9qKjrFjlwnKplBiucjL5Th+n7AMZmBa8mhj4tp4/e3vjDPnnnV58ntcO1xf4/DWnFdk2xqDcaTBwdNnKHdyeBlnGzv6dlbgAHKKZ27F59iK47e9gIRJRZkFHHOoch7//ufGW2derPEBa2QlqLHik+TVQa4yjZU+9YqBua72UWvJkIrVHm+HOeeg6eaVYd1K1dur2ekzV0ozLNv4gViuBwmy+f30YDsG11Vjxv7PB82eJ0RE++Stg3JPQXUffd9HbAMklJ02I6kRO3I2da3T55KLM75Ngn5r71aB1m1mqI1jK2jd/jJeffPM+NzXvjfOX7yU1Mo3OE4JU/uFzojuNdzxAxbXIjqKT3JsX9BLTseToOaJ0eRmfHVOLWClVu7ez730B3rtvUTlpFHLjdyutM3DLwL14uJv8M1ILHXzdp15hJsaNHy82BnUrrk2j856j+t6jI3uBNtBeH0hJhbYVY0f9z3+/T/QXPPF57xGC+v6uNZWxpu9yy8p0VdbsItaMyHYozVxq2to0MUxNSk9P7cKWGzLsKHikX1cIWD5sdYoFH3ceevdtgFnJGelJe+8O41JueVPIHcBF9dZ4T874EdjD9x1P5EdeDoQ9eSckd1DBK62g44hl/Nsx4yhq/UBNohnnGDVwb497z04Ves7T788vv29l/DYv4GLmWOFpvk7If44seMj7re+8vtIJXsj4MuUw+dz73YIxW9QA1tPaoIMu5vhNVB79Y2vjYuX3pZKzeRyESRJb8iQmGbgzsYOwstmz3GCHOfKExhP8N24Id78+MuEXCvH2q3hSvXrrDOSLzWiC/2rsRk+x9FL/OIbj43Xz3zfvKSwBrlG7drRY1tRMa8H/pIINGxLOnhR1ALXNCOI3blC1XaatcjrhEpuVeWrGF7XlN0u17NsH8GKSrC+VjfXwh3j/rseLI26qZ1gGAf9uQSDVZ4Xg2z8ebmPqvYj78/fO5+Td27gC12BuKoGJSU71ljUaRCf/h1CYpYRRg+95qxj2Ea4iyTnzTPnxv/nH31pXNHNYZl+ERGcBCnuONYqUEi98pa7y8RWJwd6No5gAnpa+BuPoTKmA9kH8PBjV5Bvzvnnn9kF5MJhLvXFmXhQs6lzLp1LunR8/m+V5IPPpeUjwfZEDjnu+jkAtxxHGr3r2bdCtsdBRZfBW+eyZ43SsRxVxyz2cfrcq+Pl1x9Xmbyi+OK1FqRe1bgOWTuPtzIYK4EpIaK5tQKQld6zmznCVCV7Ztf1FfPc0Zd8xxYzBBTOS9S05Dc8l7Lp+bfi/hNgMrImG5e11n6txVA3D4SOk1CvwF3/Mz/06SgC3D5R3YDHaAPYITCBaNdhTVn1BuOvPkrucxo9HMJ650ry++b/xT/7k3Hm/MXpLIrGqBNhvetMpYCelkzWruPR288mybrhC/qiZNW8drZLFsk5oQkyak7g9Nlnx/l3Xisr3MSqp6Y2cZ9JMv05vMZlgztWLwDmklqbOrl5YZiT6MGtqDm0xAUyF6JUjeJxOyuPSoZhYatkJhL4uLSxX3zju/7ll6XyxHbRRzrHcmN7VMwasiOZi9Dr0slGfDZxK7aUvA4dMge+9Xg71ucd5Nx0RHCC2uQw3jbmOnao2/UEiPNPSCk7jwuEzGdwwcUpmh9XdNATxeHkMR66511t3hDtR/oCLt3JQEZiMXOZbSi30ePwFnF+mS04l2nFNMyLuqODqUv56hPPjz/8ylNLfi1W2xh2BNm8W+sT5WWx1r461o6j84WcHiknv2Kdhy+t+DJi05duJ/nioMo+ffaZcbV+HdU/x5ZkU+YzNK/WvEXPGPizYUG41J8v2nQmVwtRIFv1ZPuoOrYTp1XcqKBNdYxVOf5Fl+blA3g1O8K7DlkJ/rXZuQtvlidd0ukWHxJ1Kru+dYwdjgzMGdY0+xyAVWte6mHXt/LlS+6CNopv1QJHzkVZu3pUYSqqXeu3S5gqG7xrRKhzjj/I6QRo4XuyOaH5rBRuLkPOzQce7v8A3cfj5mILmLpdy0QoWeN1Uuxum5gux0FJrsvpK1xnl9xBOc+/c3H8/X/2Ff94DF/Pjml6umrU26S6yg36YmTjwMlGIaE3ecMb29zoRhfGJsd+eFueY5iV65AKYV6+cn6cv/i6dL54YjFSY/7NbM0nX4oyL+QKcfTkTwGlmpM9R46j77aQfMf3wP3iIPS8+5gL2bqJuXc9NNDXTxpcqyYmp55yQlgaUXEuXj4/XnnzSbnia5jmap1SR6ViprqoEIqg+NSF1iXb7wro9pXTqHOprstm3gyWFLBuYrcKxouvtcTC2XCjY5wwF0d6A4UJ6aCP1T8bNfoUuUBe5v1RiQXl4Z+FOzGkXH8HxoP3PpC/FWZumiPkYVu3Jza33b1Jm1Mt8028a60gNLmgStmnzjlw0B3ZYlOvxt9O51vzF157e/uWlaZg8sMsV4YqjnViUQxfrLaTV1etW9dyooqvPMfk89pMcNKquMg+0ZVu2wF+LfXt8Q5vz9nIeKu2XyCqXH1cddx1oFGAhmif7+Ikccy8uKPKR21Ov+vlHYBVz0nzluzjI0YxX/auL0ki4bLJzj9NlUUJPwSPZy38lqyL14Zjc5Hx4mvfscTGY3fnAqltJSNciLYVjL+j0TrmUjKc0jHbsVzFA2ROidX8euAFRQ3P1ZAbXFZYU8NFJsMU1+jxQuiXmJgO6Hxd9S+7EAlPDdSB+U825TTrUVdDnzS/GlfSTSdObnkF9MVMjoRb5bcNrsulY8hCc7s1fqAuw3ZLsNRrvPLmmfFPvvCdcVZ38bVC1qKO3gaF1KRuvsBznbnkbNKtlYb4XAjJa9tK8eLvvBLGdkI3mz+cePEyfwVFqDkis4aphU6qNxJ+jxGdBznhZ6O2P64ajQ02+WxO7vDJzbTCc1/j+sWh0l273HbVi44txewzARthj5AxLJ0f/ytvPeFfYwWmViypnCNsG3nxrrx2h1hikoXmLy5ILl9ILJy8w+1ojUJnpbhq09/ouFv1EtakVHirLN9y+BM24XugwDXUjh05lrgSU7sjnD0Q7+7B6YHdvpuO13+ydiOQq6DPm9o27Q1rrvWiOK/kirb33Hasvp38Cqy5tM9/43vjyefqy6mKMTxqz9S6jN0F1IbpC5RXbVhsWpnp8UcwaFaMJWXTTIZAXuUwRkWWoRYuoJYgQjjXxoWLb2ou+bmwX4epJplRqmHPeWQOzKs5luQ63+UnzFXcvtq4CWeTp0Q4E4uatSkDvajbEOUQuD7WsYGjDiugZ5hjXLp8Ybz29jNzHdxbLPWS4sYxdm1vIIwuJqznt/2dm3l1PHXaZG7EwyxkwvF0XAnNcP60GsuglhmzxwE7ej2CyhWag+fY+u/CcSz53uAmq+NVKiUi54uvcNdtd/giwN+tsb7jTCwOjn9t9kXkHSFKz1Ri5YGdd7JC+MVru4FfovM7980Ll8d/+SfPjCs9jqEZFtHboRL5LqLRdby4dm+8NPSyqWeVaqkxf148iVVLKuw5HdmorD2+bZooJlu+c+F1y4P+hRQtnsNU4g6LHa7zXcNHhhLI1xdSzdZuv9WuO3Uc1EnLY/etemdCyTigFDtVx+SCeZM4a1glzzlBszgP/UtW4K0zz1uuyLGQH1bUrP+2SQXioRWihbKdrwZW116mFr5a4naFN50RPdCmq7MhAaeTF15fi9YrgA41NtdLjeVYZIQ+gx/hM7gzcMx5Y81vUrJ5OWBBXSZzNf/AyA4ClNuQoSvUExcYYF2czgXxL/U8LopNA3WaUmwjy7kMtdSJNCivdklvwf6jP/7+ePWmU+Pa0aPyESBGEg24er29o04KZQwuxloT/FJmKnf0q4rKn4zEu57rLJMyrzdiPO4zzrTS28m4bV/V23P+jzD5iKm5tHn8OnHOErX7S7Nk2qv4OmYdjzpm3jyQ+VlLqzq9rR13jh6VSI3Euq76ihnS/RMFv35giMeHfh+A9KLTAK+xru1OHMk3T2uDQ7cbQvSETU45B6QwhjkQ4naaG3OX0rl+qrsBKmxpO0JYNHM2QnONivmxEyheuXbyEcW1zgM7B7iDxLWJD/JTlA32k6OWX1X1glQhF6Ph9llxAnYDNaYjsW8wgSoTnVbGDbmLZNgde6G3vbh2uTTian/y0unxu8/ora0+Xly59TY7e2yuMQ6VO6c/X8VtJxe0Pz+Xy4AvQXoueHRkty0ec7vIeKQmJjrcPJLVvWQpOckqJIHGl2z2uwfEMk/rNIQY5Gb2HG9v0rQ6fFhRQPvkyjEltjGodrh0LF4ITHadpMv2U5ZDNYOY86OOrwk75fAx9lytmmvYZfI4p48njlXcnKkkd8aqZnx9lNvRMvSEnPbTNaFAxuaS7rpW7Z82sG+zPW6P7VjQPr9b8wOnniwFuk1pyxw9DDYSbvuk9bHMt+i2HYyudrB/M624ktK2Kga+CxfeUb/5GuuCdZ3pKqU5Frvjb1xh6uJA24mtQy/B5uycOOGdy1fHP3ziVW9kvsm9dscdY+gunsUVugZxK9mA8CdUtNgTfTn3C0VOgCr03Y0Nx4vD6oNYgE9ztgPkaBT8mDtoD39Usf43CxG3t/9BX2yZkxpTwB9v/DUf9fHxtpv5eb4mCq1k3uEGOW78IBdXR8kyu52um0Afm1HzmCi15w863GNjn79w2uWMjRp1yZ1oVw9VRde5eMyOF3ARDqWCxe/5lBleFyNUart2YB+k1KjKweYOxIU+a9vgmSvRfp6z1bs3weeAYktunzFFM0qFBFHnybg2zr5zXn2d2G4uhrwe+LqtSN4u2ocEzG+Hg71wpu5g0MfkGtL/8Ptvjm+8kv/HiXbt5E3jyin+j6yF1yBXjbWKP8vZ/zUxve/yxeO4s7ixaXCTq07K+v9nZ9kJ0jpp3fiJBjmRhpS2rvkflwjaPPy40mtUP7Zs+AK2lmoerXz5p6/SmaRJ0tdXM16UePgg5suY2vZ2P3/uqS+ZvRcud/w7hsAVqKVGzfmjQS8a2c0U5pwqLLtre/7X+h+dEEpeHykgBzubouJxbjroXMxyAZtyumb5O8cxty3W0kNYz3xnuJUFcw6CNXU1YhyK73CIl1nhDbV05vuY1KTPY8BVMX97kkC4eRWGEVK0A+P102+oL39hpYJ9WwVK/mA4p/Sm79a43m60GznHVo03L1wav/3ka+PspVxwHCTX19W77x7XDh+2j+PPQSOyOL7hyuG1QatNwXN7sWuY4Wa+4vPtMnUtm4OrpGO8YOQ27LWvAREOl3RDV+NHRamRF4+Mp4Bc6G7rg/mWHzC3OQdC6DEFFFZBnH5Rc+kMDhevrxIvEi8sZktfUfXxKx5pl+ula/wAnbyQbVLx/AV9zCrfXC8siWgbEi/D/NI6x32k8/f8Kxxz48nRth5sa9ueXXgupYe7zZ1z41pa7zykx+WuKieiHGd3blyInC/7xUhSYN2/yVaGSE7qTKHvYAReev1V6RW4AfoFGkqrvQD017dMeh8dB8i+X4COdRyFIdywa7p/rM/e3379nOfkjyDdjh0b1+69N+sh8nY0XQDES589mIBtt8ojZQ6uo1k2M1g3UB9pKi9YHH6HUOiZrZ5Dh/jPHRkHkfG2FSy/tVUyizr2zZrz7nWZcG2/5leB8MxVjPF45BWipIndBPG2j1NmB5l4dMG1NjMwpXLqYwiuY0dvinFDrOcxaBvp81WO6zdiByKYn/nSaD37hLsvKZF6qQ93rT9VKWaV9BhSdubitZQMMaLWxlxkzNK71ua3luDq5Eu2/FGHHW/B49ZEzpw9O15+47U6ZKYJEguvfcHKW/0TnMhl91JjQvoNcxbAh+NW5Pb9f7/x4rh8JZcjG5yNnpjufnfdNcYJvpSoJM17/8R0vT4+UxXojeKTNc9AWudE6CRKSVk8GBJVbhlu010vxhoH2Pxn+4YGIuxTbKLyeFZ65yIzJ5yL304usr7Qmudup68Uk6yr83siTtz8XfiwLFNIaJ+8+GTGAwWbtcS3y5/grpY0Mw4f5CcgBDKamzpmZX+1cNylL7/V1qX0+a7QRPw1sFriNUfs8u1fL1D4yzmxK0YZqeWNxK74UiL+TY1sn+rsvwg3ByyRG0J3cDYAX7iEWlPJRByrErKfei5/oL7v1pxAVDe9bEemYSCaUCKtbIZANnoopjB1odWVu3OUpXMX/K3HXx3Pn7ngefcxZWPmWA4dPjIO3HP3LEZqeNsF7y+xpp6LyLpeNDIxWl1crsOFVwVLLiujBtEZ0VTDNbEqjbKO4UIXYbuQNPeDx9VXVRGs6byFYi/KBBZv3/zOoPjUZfOYrc7Hred8sRJ63PoEMeEv6FyAAbW5+0cz3ol1XIWuN30y+99+21cXkH3AonWk5irh0WSfOH6HjaxH8QSvgRqjt9eMquveQ1XU42dse8q9zt7HXnoiWOqp6eMPdniEEOWzNN9ROaRg7+EGrqADLqan30kXPBBKjVGmG7ZbOQTOGtSqGS/2PPn2SEr/k8e/WQcS3y7q5BXgrdJoo4grZ+pSeh1bn76WFdvH02+9M/7r77wsmg+r6ubhDc9NB+Ktt4xxkl+9zenO8WdScKLoWTkT8mWx9440T7X+QkprIQWfa0vmLTgFcIYFcjFEEpthmvUoR47c2q7EekwO1AFbOGyHwnHrABhDNqWySXOu1nHMdixAjRW+a6hRkyTnstHhhRjYrqJdn4vHXwzKaB9wngxLEhPIu4yC9ONH67/oId0UjifzQfeckmrJcSQWP6cMq/n0IFaQWKH06UFhTvJvM1vmKIQSn/Po1CjlETMVY45VPuwcT9yG9GnCM0dYOQpgXrp8EYKn6A7pTp/B+bKnDzwBOKXgq8J4Pv+NP7YX3XWaJtgXdQOJQvsti1jC6Frtm41OYHqlbv7ytX3pytXx+8++OV49d8k3iNzBua5ySdL4dOlfujiuu+GpUyohb55zfN+5pDCmj3y5k8UHESYOOupj48cOoqqHYx6IkToLihZE240fGEcO30Km98o6TpAXlN3Lb9Frvts/Mqm4/RvP10Efm/yYTKS56wsA8HjzW3XgSfDcQ5zU8c2sveUztg/usOgmbjlxT5cwel5ej5Z+BLmeKbD5NqRwOKCOs2W5XU+Odll3c1iIshuLL+sVf2NRC8XnOWNVJ1p5lrhkYmn0xC6wwXVutjoe3vBPTzjxjvnqCUxW5x9QVOJjzzw+Xn/7jRgVJyNZmz59CRj+9UPlzBgFpPiacS07O2j0hNu1L1c8d/rC+OILb3s/zs2NxGZTS8d20/EevE8XzVG+uKrh1bnx6LdE2CrQJ4q1itNEnpm/OlLy82k79Oy7OdjToKhGvJwYaXnOOQS+1O08fvQOWXqYpIgHDh+HY5pgLpDMx7WYkw4CPsfVx5KJS+SgdlEx1gp0SkANZpbj43taMR1hDn4qj0xmP4/FpaQ7N6qFU/Bo1nNusqBWO3Xzg4pKcWLBc4uDrMnHMeeduQbo/Ogzr9iMmXUPIetSZNI7D4pEji3no0NGxae0uo4rG524lIxTvgXYcTEvHDYS0NCJT+d1feCRxY1kM/g/Pui/M41zHjgbUgfkU7cM8C+/8SWvXxrdpjMUegO1G33HXF7GFgtsE4s546lvF5Mw2ke7rAv3iy++Pb6vTd4XJdUZo+/gXMfmO1e+I0fGofvrG/VqKZ18W1L7syix+U238rcvVeiqrjdL5wumsC40L/kOek2tI4sfSZcY4x05ekrHcjRzV8tUMhZH6Pp+YUp+zkbgeat5dso1UmDLcRMwiXGMxbHTfnTx9GS8vuk2rS/eBlZWvwwjRzy5EvFoxnNuEZiHDx8dd9/2nvjMDZyubtZhWqRjl7+5ro0hQh8/UdRdXvzmGuRRr/0ViOu6XJ+H1SG0Od0a1LqnwaRbFxwoJjyKEZvJUmuAhJJ49p38lmMfn48rHl33vLpD7MQOSewcQFH+5LvfKEeQIQTFKAwQ0z8xK03eDtp34+TUR94g9tr5S+MPv/+Wf/cc9J3apeSKnodjSLVDd985DuizOFn9T2VXeElUxHVoNXEv8ny302sk2wonJpsDkz4npeMSJY2p58R3NetxuB05fLM+h99cY7ua4c1e+kQNlZYLGXhOvovL8Jr02tisDkj2JFsKDtssnr+gUL7/9LJ8KVI5eUG5UZ1GX4wGcShlW2iud93y7t1UaKYuZGB/fPQr4rfiPOd3S+Q6xM/aZYzJ61oGsapnLWhKRHuDbS48yU1rpBZdfLYXPUoJOw6MS5cuYU1fvOm4zoNe6S4iEw/upER+99mn/Da9Yw3rS67FGvcjJx2/pSObPaE69lVbgdkNEOez99Nvv6OLNQfEXdu6grmI2pemp9vBw4fHkUcf9J2Xh51aoGwa6QUOi2O3VJeFjqe/MSZ1m5VgTqETp0it5rSvsRPjIf3IoZPj6OFTC63G2tKEmotlesLkc+LXDdUbvWZizDUoK6Lt1CHDW4h6sgj3x4BU2upZr3xvFOub7YvRk1AtThgh0s2VKt89t3/Q4+L2WpBcaJt4oxnpmVMFJRZa5rOHzjHgO6dGyVNIzY4Fkdlw1vbmlFj7Jk+iaY4jbfDsiMBalGqOu9avjfPLf9rY6DH4ajOHJDs3sbLrbui3cJy8SnjlTf43yyet41qXqc5LGp1rVT2jtJTa4YO2rZf0vCSmvQDfK+cujX/4eH7nfP2bZJ6bjL5u3NjI2PilEzt0y83j4O2nzOcYiXGn61897ePe4jYpQqeWE+dlcqCgOHynm7qt4YQWvD2EHJ+UXEhO1vPQ4ZvGsWN3Suefi8bn+nrkYmV7Nh87c/JfSW2/+TNsG047qOBN7pasnkO86jHRDrLWGZF3P9f4ss2xKUTLZ3PGcQFJcrjOzHGngHxZPxzV9Dx6+OS4984P26aEYYV4fClbmcXJxw4UeFZ6mHKR2x+yQGktkBSeDBvudz620M+ctjOXqctwrNYYsI7Nsx73HsrvjtyFJdPZ5TpzPv/ScKUAOP6ji7wA++BhSGE+lrA8rzoxerz61uvja09+e1y5eiUhoeU++sIDc6MtZI+zoEOTk+nMwHVx4befeG28/g7/r3fimSd/f0wbuOx559aA4Wzcg4cPjcN3aePUnxbKoadGzw+ZY0Fvp43Sqy69Xwzjm5C6e+K3Rtd+p5e6nsBwr42bTz44Dh06nruvTlpmqfHqB/fMwuNgK8dTds2cS0vnruuAZpriejBYBS0qnvwU9Rhq+XXbrgXzkPzRjYpz8lNX/sotYmjOlUk/ffxJ4Af1zoV/61w+pVhWAy1Tr3RJz7HM5tdXTTYcq4KIZntuTVjOZR6Ca6NssrGOGUCes3eMnFnLNutXjCrYMRTWwXWdFx8Vi2rz/IVz0VImqHXMX1U1m2FWRjzO0rOm5zvb17XB3zz9lmusbUWba8yy5rGfs6hGc1adxgtF+145d3F8/oW3K6bZ0ojhkIbkLTs3kpXjDc8LQOlHTt0yDt16M2V9nF5o8fvVevrQswzpxKmliwzTdgO3Q4Wuc2NU4nWUOI4fu1stv/QBJk3HABjbqppv3IWOGsSwlnn4AirZtUFt3Rh72P3KgqIY4ae2JCFrBY8jr1/tO0eqRHI6g99eOzLuvf3D49gRzktiUDaGQIlSPR5xO+aIidu/MaPB2TZKOKULNdPSq1vi6wJvY8aHnewkpC++RI/Tc+rva4wlZu8MCMXbjiXx0+ff2mxhmxnXv0WSCNe1YqD2H9qLm5N2zXfw517hfwYRSKpmPq1qlJh+w0ouHedImTEB3faevzH56j733FvjxTMXpPZm5drhoHQvkeHNzEae8WrY5aPWoWNHx1G+cKv/Etnw3KaV9WFhOVa5EV5n6f2OML+7X1xrYNNazQmiXrng24j0o2JrrUMHj407Tv2wtLow1TLDnKHWbZMvkn3qzCchimv6hla2a7EetSY59J5LcYyqWb1BeJqlWER3tmsot2ot2amvAbdhDowTx24bd/Dt+Y1+3Lg5rJMXVwdWQsGu5VgkeZRqrT221ViDpgNHyy5mTB+Mjg0ph8UOD7ulhXkR215wZtWwqW6dQ3xlCGgXr1wcl/xPiWUtPNeU5g1uP4Ukco2GyeDzLQK2JImnz50dv/1Hv1tFBCm5IKpw0g3sNdetT6aDUiTJ77hRNXZ8gvOEl89eHF/Q3fuSHN7Y8q0XJ5INDLyRq7XesehjHLv3jnFQG92/moqfgj2YAM9VEe2XXtOvV2E9HMNTNLX47cJ0rTqthkP2Bc0NOCYP6vitt7x3HD1yCvp2JxT8ncGsGW7X9Nv5CsGiflftbg4pBd0vVpWT+cYfJzbHhEc2LqmZd8VDnpg/AuOXbfrzb6gt1JGXQneeeq/eoj9ku1wTqLZp5Du5eNLqdbZymWnb9CIXL/yOEnEhe6iZ40s8fcUrxfkpYn1eA3rADG1bC7ip0LHkNZyJo0maxHwXOYk5F40X3/i+i83KO/y6zu2qLrQmp2H5goBcCX/wlT8ab+htelPNK71dDez+hYo1Nj0eOypth1NGhWbssdfPueVClVdEHtyx/fnbdm1uJLHQLAGxQ2rIg7p73/SefKPOIu1c4Grr4vtFj3jNO6LXDivcaOnabr3Rqn2Lv4F/5y2ccO/dP6E5H558f+bWMfhiWLk2Na95HHrIaLvSoyTVfADHfFsB1nJUXmuS4OBJXer71dHNvTrfuSG4PrI+EGPS4aeWOIcPHRvvuf8nZcZuQHW6kDErb0HPPwyGjLR31RuUQFjSJWo76gS1u/4a28Zs1CZUlxXY+Dvc9k0W2H1BSCCO+PGFj/322Td8qBzZ3J8NEfyLLu3KCVwgcifB2yZ7bTz36kvjn3zh91KYGtAIustd1THMRQL0GUe2TrDQMYa0XMB///v7339zXNY14s2pYtRLTWcqh1a+qYvnWPze/NXwH73zdjX+KIR8esyTSVOXC9ouTyphrYoUt9LjIxagij7h14bKAZO7kmYtq2lVly/bbr7pEdve1J3nz4Waebnc9EhycSw4z/LBs1MwF14BdZ1fhbwuyCrr+pY1XzfWJv4GP/IitntM4Vu1M/Ld7/rJccvJ/CeXTTegF9O9xwmneTlebMbajUXpFlibhC2yeQinluHDirHPabS+xm3lmXp+CFmWwNIMlInE67iqNZ5/9XvlSMV5DusC4P1Scm1reUrPQW2voOY7sMX/3j/5B+OdixccN+AjK6eByST33Ea7kI4Xr7k3ki+fuzj++MUz2bBqhPozde7e2bzcnb155bAsnR+nzVxzs3lpN7/7gXHgMP8DSOacdfDQ09dL1jHrPLCl57N4tYrTm4MWh/VG182G3WLOKNscaQd097791Id1p7t5fT8aHnOQGq+Oj5spAcG1FPT4dHrmjQg5jprlAtGSmvTwkFCUyBvt5MWvapPru7h1Z6Ckr7gXXU9eB/p7HnDnre8Z73/oFyoD9BgBLGywjbvBnuJnnYs7c/KisAPmQU75w02NjRsFu+cKsB1hsNaFKe2rWnGVrBrl7PnldGqOdV4rLNkaQ3nC1l9560X1Hd3YvdF1jfsKyETUWVLcFwCLEWJL0L/99rzu4n/41S/UQoIobW7+xdfNDsbZYpic9waqR6WDKgcb4D/++ot7fwY5MfPN0+ywkcTU6nra9BnrhxdjHD55Yhy/+46d42Vw6tmn2yOCeWTpuIvm7SbLXJe9+Zuvcl1StuX1MJMn8Zaa2TaX7eK8SXfxU7e8Ty9KOX8+AJIYGN08zcZT61lUTbfMcfvdgCoxEX7EdjzY6GxM30GL5zVkQVS312MF7yqAhQu0QxVks27Hjtwy3v/gz+tF+giBqrwBu33r+UG/no2/+fQa08NKb9nAxfGg2o2RayLg2DbL49G8CasOtiWdB0BJjaKglFuAv9qhwXeldby141lj8aPql17v/2I5tUxryOG36CDldCLRVbxtJ5nkSCr4hPD/ZV0df/i1L+ouzh9ktLvyNnie5FvaNXWP074Fa43Wu/Z3XjvnL9fIzV146E6t+ze1ZGQjS9JLzx2bpru2L2aisvGr9bft3Q4dOTRO3nfnOHz8WAYWsgZp+REzBjbrIwXPJCXBX9Y5VjxrGyqU2BrkIHf4a7B1SAfHXXd8Ypw8+S7p+FdeGECHJ3DEAXZXd78MPudbDHJaRlPzC1yuk1kUPnOuu05G2zK1rDDsc6SPb6lzSJ+7H773M+P2Wx7BbSCj1wtbNbtugDXPMqLsfrGzGrHwaiaFOp620GUgbbvnuMipPIktXgxyol2PSdkYGTNJ1vaSMVfXG6df8druOAvUIubzT6Ek12QFBrA1Ow/t1j13sS9886vjm09913YD9lZJukayrwOkLwT7G6XfwGX87rP5E7r4mLwr68l9LD42c+mO1gZ3HKne8ylpfnIiD4xjt98yjt2Zb6rXReZlbfvPEWo9RMhiYtuzRAPGysnbrbeh2QzYFVbs+qkFDh8+Oe6/56f9rbo5QmJ5AaarG/iEPwIsmPNaW1Fcy8Z6NNI0FMdknbEsruYLShCHBHbNBVynKOYy18Zdp94/Hr3/p/Sxo/4EcMMlNb44ZDlTnfUq0z46z1k5WQds/I3NiH85LjnaIpa2xAvJC9aof1KxHKvzeVjGbrQvHeu0BIXNJH8vZl/0V/32vMoYxcdRa3DQr7p6MjkuaLqQarJFTkZeAgmbqiBv07/5vfxH7eSbWghn801b3erP+GV70GD61CH5gw7fepW/tbZ9vqaWN699/MVRH0nFilc1yAPZzGmHpr59Lue3225++F6Kajo1OSNrwvpsMvHeOMiKek0s9WAujcStEPE4LKrXfaMZuDwOyhK0T+fu2JHbxwP3/YKOW+845GOGaTLVOsPpxJd5WGtiOh9/GHxR2rr6mZuW2ujSzDu4+9bc49HUeXAhZZKrnP6fUY8fPTV+6NFf8y+1FHOm5Ng9hJt97mM0D1ilbvv86hF0DrEtBTv1Z0ol91jAcXix3BvtxyW+Gattqjuj7Z3jgF/zKtO5CaKEXKmlhPfKmy9ISjFFXcesyNbT1zxxnJyfJOiE4QQOkqDG573y+0JWQ/7zL/+L8drbubNWXQHjXw2PT0LVZbOBEhOM88UXT/u313zh0fTY/8KMzO1tuVOnTfyQdvTkw0Z3PGPaVjtx2816q36XbZATyQUcez0+r5nj+LySCQjxrZKOGs1Knt22A/tWh+bh35/e90mcOH7PuO+en9Qd/SZPL/VSsXUfhrv4E+MvrEnvQ5J+hTF46FDzZaG8DErdeiQ3LeATNJdpCpmlWJaOl18QLi7W2mNfOzhOnXxgfPaH/13/hp4Z6ijr0u6qpn3Ywe74st1vGyVwUsUA2mIpljm3T3qtadfxGJmCafYjIyZanz6UylvnCXpdQTSv2JZcfB8jj7bpVNN+rd/rp1/2fDOMovP8bsivqgLiEm7S7e/OTnWaWB9wLnwa/7H+t8eXvvW1NmfcDOtbCKx6wz51DOnSMafk/xj71mtn/W+/ux4XSprGou341NTRePQG72/br2vFXX13feChcejo4bnALjAXW7I3Q6z4UXwCNv88QYsszU+Q9SQvNnD+tGdGmrqup9n6C7d77/ox3cn1FpdSBqTSzE/rFy2IXOKQHEOvuCn7HztKdch33y0GWpv1HVbH0y31kHwhd5s+b//Qu39jnDh6R/jCHC9TSWLBkRSKw0iGNftjmWZtm0vsXWzZ5GRu1zH3ctcc0Hb6jJd5bj446C7PsVkpSOUa7Tcc4VW8RdNL8uup89+Bdwy4yDaeruM4PICJCe4iI0OtOQTluHzlyvhPfvu/0fWQy8VQCZeuUqaGHntpjWl3rlr7eHvOL7b0HZt5W/IQYfVZ741Nq/i82xOzJLqNEc4mj950fNzy4D2KBH3y/ZDeNguXv1jjt0CJ1QP7hih3R1MvttuMu8pSJjxPuGDzwKFx6tYPjgfv+9ncye0l4OzoEjo0KpSJzJzDqWZRrBqHjwP9a6Y+7qhCXUwV8wCVtLxDNqsU49TND40PPfKXxq03PTjn1CUgdSquWXuKqt/6lmi1+Qh/dFKzJ27H81EqnHJfB2KWETtwXtWg64+6dNMPWimJ6DFTQ4oWIPOEAbbjs7RC3eiYfMF27sKZOExnHcySViTFDvptH05W2WtFpBbYpMqXn1ddXHRmOZBT9/WnHhtfeyr/WTtul7Oi5qTAKSvgIanfskgWdGr/6KnXx4XLiXnjImW0hOaNbV3+Sp2bWQafx4H9NCnZzM3pVjXVTj149zhyYvlG3Qdfi42NYpmY/+lk+XOit7u8eS3hu8lTeoBdhgTHglzCu3IiR33LLe8Z73nor4yTJ+4rf+BxNTeOKeOxsbMWlEK6cY6ZU9nOtBHLa2UvH1c4ZxQjTM6V1MUBy3Wiw3R9mQ/c/aPjUx/4N8cpbW5+1uj6y+0Lc3kXS3H7goyeHMgoHFP5CozLlD3tmjtwiiTrsBSd+cyy6/Q6mOjntKqvuWDWEK6h2q4Tl7BpqB67jGVqZoW5jdSZc056XL16ZTz36pP5Z6JdgLhUzk/nMAe9Rc/CX63/HqYP3BPlSm/ID8eecnPppnLy/sP/6j/d+cUX10BZyqAzBK3MyOloT4D14pmL47tvnF/eQvfGTN78dVM1+BL2e3PL7h+FgcP9GXzWWvXK406vTKnj+K03jVMP37NzN8qyq3nVZUn6hRLbOn5C6IjmxF/RgEHksUDT/mDWcNLCNgu1+Di6tllVm9DRo6fGA/f+/Ljt1g/r2I5WhXD7jlae/OhItucH0xu0hqkxPLjgl6qKp4Suia6uBWLd7Otazksh6p04fud474O/pDv3r/vXUc1xnxqZgzW36PFvmF6VrXXqeM1zMqR0PC1+0DFj0Zk7ZWbNKVAYr5lmVU35JR2T22M5Zk9x4u84Acfab5R/MSd8bHG89Pqz44nnv259uq20WoZw6MSx9/1m1NoEqp63t/uouM98BJrnbNeB8eaZt8dHHn3vePS+BxzrBlquk6lS1/HWBv7Tr784vvv6eY/Pwxt51S3r7qKWzaq2cG1zXIu+xnbysCvOi8Oho0fGuVffHpcvXM78gWJuGoNnXNGV3Y74lKRqecHURsBnhrmNaKaXgjptIbU2X9vNNaxf09v0E+OWmx4eR4/cqk38zrh0+Yw5dcn5mfToKVAvNCZmIzfI87t93gUggXjws80KdfGmHrimNTw07jr1kfHeB35x3Hfnx7Wuh5VXyYJ718FVPskb+fex+idvzm93DbGmbrnYEbHLGUrpRUi447a2mGR80SPL41iAx3H7ErBJZ/dUnF+qu9feenH83tf++/Ha2/xrzq7jijAWxD504uj7a4Obt716cEJdIET0GZKry/k1rW5vly9fHjedODn+zEc/pQ3U3542qp40Sjpje3WwIxoXWfmEl85eHH/3a/zmGtTafFOyqbVxyC3//MUV5fZnbsd5aE7X2eZ3HfTUduMzumJHtMGvXrk6zr785sJhpiB2gFTjiW+6oziXBybH07r9VEOGt64Dwpp5QULJx1vUzU+v+Z84fve46eQD44g+l59750XtW96pFVnrz3EYljkiGxTKlATOHRPmXHeY83s1dzxxbYozK/DeUH6+SHv/Q786Hrz3x8fNJ+91nkvWECgWaPbFou91iFU249V5wV/04pdeSlHcdQwQX2ujTi6HuZffMzSvYg3XQuH4e23S2d9xh1BAGdjt6jGMUp2rxh2eH0E+/eK3x+999b8br771QkizANkoKsxetJr62uB9BwfbJu4DaTkTxaAYPM8zTm8QTjZfuH3i/R/RK/bt9gMYPYWiG33wKzyeCvewv/PMG+MrL5+RIxeGN6IkPG9WPXrT9iblorX0Bl508hSEz//Q2Tm+mxO3Hb3fxdCInzx103j9mZfHNf5LJJxEpITD+LVFO2ZvbI8/7XAxkgefQOzWW66cqZc/PjU7t3ltfDr+ddZxba4H/PvrbJArV8/orq53I8tC0/tvJ+akmjc3tJxZ67ixueCmj19ykcKFiOfgoYPj2NFbxwcf/gt+S87G5tdPM1Ryaljr0yjkeAJU7Iwbfq30jE2gM+3yRfZ4Ww7SfcLFKG91VcKx1htdY3IWAuqsN3UmZU9y8O/lhMALJGtO04unXoz5Tydffev58Ydf/63xpe/+rl6kT1cCRVDV+dA2n+3Cgdtv/hWZTECDUxinWmRv+PISL17NSpEtxqszG+d//xt/a/ztX/kr4zD/vc1WbJ6k1ju0+u0r+y29Jf73v/DseOz1/EHF7YTZ8AUGLNV4sDkpmg2qB3637YXhuhiP1ccGt+7ykar5hjb4s3/8ZOqzZTvftSMd8RyWGFJ8v1uwhBckVuAwYExHxXsePKSzPLhWfz3t8zx8PipqHzqSv8J5drx9+olx+uxT450Lb+nt+9vasJec41dBjcAFBtfnlwHtYwML8z1623oR0UeC40dO6d3CfeP2W9897rz1Q/JpUzvO07O0HstpBuNYWt+1Le2MbZ/sonhurCuwTzb8jk/JY+rhcBRJ3WK99h4TgoTrxW2erfmCkVjnWzQHFd3BrN+Vq5f8f71funxBN8OL47LsS1cu6Jy8M965eM5/QPHc+bfGOaQ28/kLZ+pPMoGakOFBqjZq+8HGOXDHrb+icZXIBckkKtQg1JN3YhPKlwsghnt1777/ofF3/8//N93F6+ebzV2KU7NtBJQlbHzpxdPjP/rKC9roV3wgfjgvmwgd39zgxcGbzVS+avYjFfOWXPy+s5e033FmEaBevXxlPP4H3xzn3jib8fTgHYCjsnmPkJrxZV68M+hNntiUTssg6V2GPrbj01p0Ni817I6v9FygMcKPCWeff02b+sKFN3RhvaqN/vp45x3JS2/qo9ZpXXj8+wJdEfVZnFRfJ6Rq7kcOnxzHj53yz7BPHL9rnDx+p9rd48Sx2x3P8QYZN+OXilUymHx8pa+xKPHZsp6arZc7+TEnvC5VF6QmL1Abd2cO8TiG3nNYuZbWWRvGkMJT8uz5N8aZ869rw57W2mqjasNe1Ca+cOm8Nvc72tDnx0Vv8gtac74j4W/691+v6TkhdS1xCmq8BjP1m+ry18ytrThw+y2/nK2tGZqsEXqbewNSJJaeGFjhN3bGrs33f/o3/s3xN3/x1+KiqWte60uJYPFd1Gfe/+Lbr4z/8YnXTfajCiDbZkOS6C3FhcUG7ZgeUpyTFwR7LHvT4ZgbcGkgXHXL3F/TXfzpLz+pF3DWILkEmUH4zAGdOlXXj9ronl/8jIBwvOrHX+cCu7rJYX2wZWBamiT0PIk3HxPpWHIcbx1Tit8SasNf81t33hpe0AWpO/tV/hwQYE56633kVm3uE/7vjA8ePKxjOlxvv/sdSqHq21ZnHV85LNDsYKO1jrTYsdf5AnTH8wxHD5YHYHvDWUdmM8e2sB91tSMtzG8drPWiZcGbcllr9t1nPz+efukr46zeGV25ctkfZXir7cYc6jxQPaiaPORn7/E7Dd4j7VvOHcfXPkAp1t7+eNwXMXdwG5VQfmP+Ny8Ql6JBkTpxDq9e4t7b7xz/+P/+d3Ux5L+9nalLjWJbUr9M2/xnBv/+Hz07njnNf6wmh+JZ4Ja42EhW7KNGvwr+aXfw6eMBz3Y2ncyZ58V2FqC/Ni6dvzie+tLj4/TL/NFJXlbAdpfOGPixmQdzpG1jbBIvXE4qdTK/HHDPw6oMLAv7/cQhanMyfmy05sUnpbiJd8BPx1u2D1iq29a8IjrJO+O1bpu+jkH6jPf4jmyxxuTGSt+25b5PveaxvUUvWR38rR5x9yWxu+L1sZSky3FGyzo0By/fP1zU3fjbz/z++MZTv+u33DNmqaaE+ffz40mNecNc/dQsW0qOSVcia4dPduo5reJWiE4wHrGDeXuesSrHyX1Hd7H2TUaV6ly7aztYPzBefvP18T9+/vcwDDKc1Yoac2NaeQhdXnj29IXxXG1uotsGTh4bx9tIjvXn4IBv0r2tZJvrlm/Ym+dWNvlpNR+X0YWjHp12UC+91Dl207Fx18N3+x+ksEbbsaN7Baz351Rz9MgvOoXTeWnwlMUJaL5Ty3a/wTl4J28DNvN3GLt8hpQcV3zU8LHJ7pFC7czmBV0n8xUquWs2iDZnZzy6tukUNBe9IU64+DtS2g5xM/v6BBl3IeocpFY3NkZ8jVanq5SNk0ljsrbIjl3Wu5tnX/rG+J0v/b/GVx7/J/XHDzc4k/mZPws64DoQphL0cTvH15AVH2cKEgvH69uTkURts3+VeN7bmbxfCZ0VeDEkiZGQSBKJZVBiKZx4bGj/+e/8Q/8jlB4UEDKv+C6BWSR0Nhb/FRHvH7w51bWfMXnMDYqOxG4fHOqSy90STufcoPULR+zOK8mY9XBc9p0P3DFuuSv/26cPxGgra5ODRkfQ5RdhmuOfM9sP8gsomO0B5rZvchdfYQtRuYyVIGDuuVKHNvVlHnRGCF3ZrWLhbb4tZ/N3jwinzFLMo6HbU3J2OglAYua4D5q21V18fgO6jWmFkxqG4iWXrnXkOl7qWotP4vHnPj/+6Nv/9Xjlzaft7euER+BJ5xA0rv0dagWXVbrURvilRM/5G7CNTKQwk8uXc7DyuV7n5P2WHMNOBblL1oL0W4wumBcDq4KmLt0LstAe//4z43f/+PMVix8sqkE8Gw1jjDcuXB5f9J9kyhzwc4dlI/purYCp6LrtovfmNE+P2NtdnnfNzkenruPdFFv95Kh5rIprGpFqR44eHg9+6IE6qLRcLKyTRLQKozXCweffCmubGTMHNWDvrB3EF9283fBUm7Ni+qSs4W38oMefLu6AmtuWLq2LUcv1+oW/8ysufaUb6OW3WcpKabRvi2WUzCH+Lb9Y8wASvx5dIw1+1wDxx4Y5Izfg8Jb8i9/578fZ82+avAwdkh3cBLl+uSIh2WXYdgOsMYFdH40IWuYljbrUK5pZ9kkRxfvSY4TAZS8hTzvjl9TNXRet/zKJTJ9KaPWqhz+v9rFJZKCYuSjOnDs7/tmX/oVe4V6fEwKoqw1mFfn/5OUz/pNMufeyqVK7ZXxpWN7AtltGRx46lBcpN9fPJicnb9nFrbf71Eo+Uop9mZOl9eTcds+pcccDt2dtOGj5kN66XgSvmB+1KIVwqYnbOW4LrSS2p9H+UsyNNnPjyPzbDGcDtst1DlCCuerig3F9rv0VNx+1YFvdmr9PmqqVZfwm5il/B8SxqGPkuvNiVKRpRh9DcrYaDWokb42FjTK1eZht+xovHZD/zMtfHV9+7Lf8I6+eUw3QYnt3gAMdCZZjQOOa45rxwI7hCSzlYw6JkcWLBoGAqh7DFAVqGHx8ccp1LexlNHz3TBIMv00vao2XeNQMVNKqYl9+7Ft6tXvKdrcbwVUU4y+m/k/PvDU3mcdVY1MxFBPuOysP7H77nc2n5o1bvoXfd+/wqp65m4/PLBKpi63mPwohO/6sAfUe+cjD4/AR/kBjHj4AQ1ad1Ose+Bwrnh/5RZEGelfqF1g6ZK/xytk0calvIi220QJZg6FP7hyf8QhYLQJCkjGdZI/9wJTK9/jEsO3jAl64rU8+XfSWcwxEx2rsNoEps4CanlV2YuYruOn4w4/QHKU4XF1z13r4zpx/bXxLd29vbkV9hbGeeYtoXnwoFafxFrBRtUHmzxWc+u7qCzHT1KWGLZXMXG06YUOOgVj7dU1XnuFEJuWJbsRY9LQNdTwTeTtSesQ4fe6Mv2zrn6euJXroOQXF+GLtJf6og0xvMHXeqGotuzlWcceU47uyNHTny48xc/Vovpvv3uSEn7qdi006vmrE8ch/y+03jfveXf+clMWtZnPpRU+Mzeo474zqTTp25cXOXWOCXD82VEqaCMTc6Iwoba/51jaisVoOmZIct+L7FPax9LjVNR/gm6280QPLhd81d6AFXvk7canOpoaFCthdtq2Srm1zF0kpmRftxt5QAnPhHetl371ff/tZXyc0oz++zkRfMfETKtGDeJ/MQHzIqJu9QXVVa06LULeC50INnPg9F74YlrP0kGSwmPFHgq13tkU4eUuKl5/5Ucpcd8E/+IPfGW+dyX9xurinjuw8/iRT/qgDVm2o2lj2qLMPKU/7kPAo5A3am5EGD766w4vfd/ZZs2ogvRbhp1UMbnHQD+vt/32P3D1O3sLfEeMIWD7Wj53ABSFfNe7S9OYgGYSY7fLZLN9i5ihXMEZpU1ETLWYuSNsdQ7Rc9AnZ9qMrz79fMB2FmgZrsxOTo0JL3Y2Aj/nYM+NC6fZVgT6eKWeXC9zrays+z0WenbqC83luZCE8U7urRAtMietqlnLh4tnx5Atf0Iszvysg+DqVVLyvV69EChSYo+6j1IBPfBbuqXFMc7CpAVfNIDt1J4daar1eBi4runYpV3OrbltIkJ+FZ7N3mkFR5yqHJtslCNHUdQYb/z/4+/9vS0Atlyugk8vGfvr0O/6HJWygfGGmWMX9pZl83mA7Uk3GjlQjC5HP2mm2ySMZn+taTXyxmT0isUWWj3brHTePux/Ib+yxHt33AXqV+mB1IKtdVjQJW02lK73XPhxse+l2UMtbfFcIfDDk7+Zgb7W3GKrfbfhR9uT5Ou0IdEuvFGYNW/QpuU56Rq4nq+tvPhOTY19HKya76ySS/I2Va5fOqXPAso0o9JlD5diu2ORGt6nu1beeHW+ffcV+g0P23Vs18q+hpJPQSRBiMmvvFfs3YHrtqIHB8bkO0IzkzDqQi263gW515VcwY+VHvc2yuiN7MD/xdyyYnyUZGMcyEK0tcn/rc/98fON7j8d2XauZsHQE356/er5+UcCf/7PpvGnV2Ji+6/K2evH35t1v/SUa48dHPermaBzDh86YjtPEXXOILZzWifE33t6lt+lHjudveQMumaxI2s6dfDbM8PKWPHd94Nh8BKZgIzVu+xuTPwPoMnhKtn9KAp7p4iu+9YiAAxaatwKX/epcE1m8iOrtr4CxQwqkm1PjBZmpYwjqWG52Y7c+L0QhmUercPMi1SQ7Buy1vcSlPfPSn0hncmq6jpC2MNUhE6tWeV1mvpVvXsHXoaT3mkCW87pWDGN9OQKVYqrhjwWbU7Nsx5Zoaz3izpbAnxAHp+E6HRComOMzoLc3ly6O/+wf/4Nx6XK9vSlAadZr5y6NN965kk0sZ2/Ubnq6JgcZmUdiC698aXoxULGNkxeJbYzUDJeNCy/+LY5UXIY3trrEsA+MW/VZ/KH33Vdrtp0e6+2rdUsUvW633Ck7VlxgtbCoQTm2ekATMrpWmbhbb5Sd8QqdPusVxNnqTZJhF/Gpl9yDGRXbGbNU+7upy3okuNIhNMemDT39bgPkYOcYxFZb4eat82gN145/U43nX/12aYJiXGeNbDzZuibsr9xwfMVKsN1i+20pwLwBcHv8Kgu61lK8urKBTdlqPHSd8mhCb254mky5fdA9cbdCk4EpclSYmnlL3tUPjC9955vjj7/7LVugUwFpb164Mk6reTPq4U2kbr7F7ju3FqrfZiMZ1lzH4t8+h2+x+S26pWI1rhscSXJWGz2StckLi21J84hL/+DHHx0nbjqmY8p3Ejy4g/BgcVp2bcfEzd27uNWA11LYueCmlDYNzQrTPOWQl9TyR1+RuQjirWOab8Vmcqtkas7MxGxkHUBisark5Bjlm2PKTcXOB9HpS4NT/Bwa3TbnSYXDA7eIFd1Bp1wPCixwLUFuJDN8++xL/ochZvadeIH/99ROqvC2MkGOQ35xO0Y/5yUFmxguSuJImD7NuXZSr45Z6GumgaUb0EJQ40JD+hDNV2ep2BVtWHQK8Vxn0MW7GG+xTc6JQb74xqv+ufi5C+/gmCmAz98vnL1YPxHsjclmConezX5kODiysTOacyXjy+dv/glr1+Nvp3fMC42uhOTS/KpXm7rH2pcZQ6p9btI/+pn3jkP+f82y8IZk6zkZaeTYP9e/OJZbTmOj0NWAxbVacN6S6/GQMWddi422phhtI936Liljzo1j4IEvHsGePBa/pflR+Oy6fWdAVzqt8tJyjliwHralUUS7Zryce+gl22YFN/wdHw3f5vK/AktkQyzmVleDn+rYJn1h4JnxHEvq2+OYudYrVpW7/lqLFr+AkiIxPedUMOT3H100SSAYrqdZfaTTZiEb/hltj4uw39BA9Q9VQPv5FzX//I8/P55+8fk4FlwWic/f1PEGU2EOjPp5O73XxET6Tl6+bGbpNNnUogb1+u7dd3ViLHtqIYmVTRzbsmqVNG+Jp+G/Nu6459Zx132nvI45SdWrmx5i1bJoaumKkRdZWxFTgojE7C4JXBNZzWAMIXMCfYGUPYkbiODu0Jzrn4YaeyeRRSrkmEtvQs+tH+1ex3JeF0ydDs9jsmNNAhznVjPjF18d/goZtju+IDz+kAl/a5ArBcDimqjfmvAdnesNCTt2++3RQSVKF90xxmQQYXf0zZd4Mq6DY/t5xVVMM6yJyd+TyOeDbWADMkE2tQQnISfCndj7v6zRF9IGfM+/9vL4rc/97nWxy1d0hz9zaWeDehOr8cgmSmOYvuvmbXs22rYJqzkmftm+e5NDMx+dxY9t7oyTE7996JKZTXPaz9ocGMeOHhkPPHq3f5V1O3FqrKdtXkw3vznErStmWtsS1uiaZ7ViKByDJkC8EwTP0DnC5i5dXfk4DrBDwVBzbKlpyIyrL8zVZ3U2o/0ieJ42qqmbNTzf+FJ7u/DtFlp3a2fVjK2uymDDx7DdPmjodKTim8WE8k10TOLwwWN1o8715JFnbvZECpgiKJYLZgfeWoKPEdsPHHSBPb1ewly7HZRPsRxb1iu+CHz6OMuvwuUubqIacYL+WegC5zOYFP+GlR1V9AYgPZPLJvLnTOX957/zP4xX33zdmZ3N/f68PgJk8fRAaoH8mVi53vQ08Yj1l2dUz2ZMg9s+3/mtN0cxOgGe7eZ4VEnGlI84lYj5XYKt5HRNMsLt3APjgUfuGnfqTo7NGrrnuL1WmJIEKxrZGqtQfOn2i1uZlk41coGEs3kpj2/NydjFdzzS7xQqtTnW3eijN3arqleONeaI0nZU+pLhYnsI+PYGicVHhWkXyf7SGzarM79I1uuYgJfGvOjhlmOBaeXeopko9k0n+R9n4+sfjdHcq/BODs2DxVqCOyBGyG/T67oErAGgBLVjbkUyD15UanxMIK7nonhqcH2azASl1MuLU9ldFSNjDlbohXSx5lVR2naSInnHzmYgfF6fwf+Dv/8fjytX6s8wExfv7MV8weZNRFOUuDeRpHUFmtNv3ZnXjk+7ND743MX7Tk7N/c/YufsmVrMv3V/glW2f7XonI8QO1zXVjhw5ND7wkQfGoSMydEw5fHUQJf3wb7GVrRc8DPtF9ougY/KR3AYjrzFr5IRnCwO0aHtCtuchSPbFABA79aVY73hLHk0Sps3hxmGwXqjdgGuuDiEjpjekkAsQ8xioV8mTKyTMWSm9G6icovgatFKTSyRr0Ckeg6fa+gJ4/Oit4+SxUzbtcgLavJLKlWtpKTiPxyBuWZTqcmxJ5LysKStgcb3CZf6+fvBWnfzeSmrBOOiDKDNJgJ5BRfZBVozJEi47nzEKmK5V9cSp0ub79WI6xvinX/zc+OqT+Y8ScJ+7dNX3L0pns7JRSy6tN7MXoXTfydvnnGy25Eg6vtSF1zHrPa5az0Eycdno6mc9SV5IOgdpTtn33H/beNdDd8qT9eD4dn41Fa83tj07fudYL17LznMOCiMGCS327JDURuDIOSS2+aIblJhGo2eABjJOaNIt6fBz/YS/lkFfzKB9yJ1g5ptaNusiDi+xcPrarSmFbz3+ybdiF5nl32QHq4w5jawXXP4H1EflEatPONKcNrlqyub6QLcH3EiLnsML3zUpMIEeu719e7DwHJzpOTJu4CDXcW3azkZBV4Psg3WsiiB7AhTkio5qpD53Inq61N8+e2Sxzl24MP7+7/72/Ln4BX0G783nDSnftqlovYHqi7SFy7L2F2z8KSVz9uLe0MhqcieOXk1mGja1mqM2/a0Tq5yZi1Tjl18+/qPvGceOH8kauOXYLevR/v644zhSj1y8G7+Rleka0Rg7eYjihjY57h2rjSNgNj3JapXX4Ox5bujFtSVezwCkdhOQ5NlwSdeQPWvZF9kIvzjcXNDpGGsSqeuKqYvL/K0S2mLmmGhA/p6D1w2XfXnB2MkTbBfxkfs+tZSRVjHvk5kbRtfx+dJ8e8M3tvMIOoJ3YWVwPcuHrefM5CKeYEaZR4OjPLjYfqXkArZOga2UEvP5mJ3Kb5nxoyfH6tUVJgNwsU7bJWpQH2DFFORt6pe+/Y3xlSfyywPws9FyiNsGC39uNLj4im+Jvzhzo0vP5o7sn5eHH0kDyUWmvu/Omqs59ndcTT70fgHhLw1jd9y6WDfddGx86KMPmlMr6HXIuoLWt8ZjvnnXOuaC07rbI59CzgmlJOu7uZiEK+GcqJVnLvYnlhdns6E4Z45BxIKuZkDMTshxBVVn8a010L22XcbEWl9r7UPK18RCQhVvKbG5u1L8+OCZs9PULbAPZQ4nRc/4w82SUevaOHXz/eM2tfYbVdPHtxR0HJ+VmgshoTxTBx6jGeSQULno5jVZgAllghc9eOSgVi1df73tZOiEb0lUcxmPY56D+KuAJ7CLHFBCO18c6ELt0hnjmr9R/ydf+Nx45+I749jhbBhvEMs06uXtcG0oERxDqs07teblF4jK33iy5WcmNMeRkxs98bzAWa+66B2HK5d1rwtt+orvhu/AeOQ994w77r651q2OXrofyNJnrGTuXvHv8oi57+f1NSDMWLkqFi7IecZuLKqMPtfthyyRA3dsh45dDqTVlSDwgjVjBargq7JLjdRvG0zdMobnqORi22d0wYlytLgunlqpU5Bqz+I6evjEeOCeH9E1xct66uzUwi41eVwhiN0Bl5K+TogizSexB22iYjNnKYUXv3OKYY/sprEvptF1gzo4F+8ClUigyS1rEhms3u5gYygpmRnJxyLwufS3/sXvjieef3acPHxonFDzxhUhjU2VTbPK5vDojT7j/lIteW5wLLNBaTKnPvNmK//Cv2FTRyPX85BPz/liQOMu/si7757/Zpy3NLkrR/f61HohrSJ5SF/XcoVpNDjt8IjxtQ5s27eh6wJrZe6P2yz7sKREb3/s68H4ezGtU2q4jJrsim+XoxluK+CloiCl81SyaiU2j2v61Lk0cyFW12i3SqzQNsYigWlq/LXTO259aJw4ekpeF95D6tNxTbjuDvCukOXCEYEMDsxyekpKW4pam3ZYvGteXVyP0QSfMGsB3hTlIsOzfVPIOwJnHZAPZ1Xlokdjs9QMHOMtvU35ffBkS3/j9Nvj7/4P/7U3yIkj2o4q7E1HDW/W2nTYSOvhzI2tWL81J54NmxypGa1t19ny7IdT8dbjF2/lVL7rt17x1oFtNf6azLvff++4407+O1+WIWvEmvijTRbOj+TUhYjbZwpKOOEmFDX+HAUaue01YcI+B9cIdvyO29fVgLSK7fjKcF5KVK7pJXscZHgrOFZirKPzeXe3xwGdC99h6vpCJGKzMBWhv7+wKk7HNFbpiHlM83hMj7LAcyBi3oFxxy0PaZM/uOUny8diVPpulYVddXK+3dnfDO8fjrF4gFpo2zwwagTZWUdH3YDDaoeOH3n/bzrsHcsGUwBVD1K2OSiALEHHBtgcKYpa3tICv1Uob0+OEcDjzz0zPvDQo+PIzfeO1/yfHORAvZHULGXvvFWfev08HLnEkpcZdA3s6XcTj3ksvMllYkLrGStedMtqbH5DskIGPP7N+NFjh8f3nnyl1iCctVancA74WOMQS4MkjkNPTtFaA6dXMOHw9uD6i3sbTSCPoIq0N/UIRHSEHm6uifjmMdDU5WyWzcPhbfxtfluNSDgdCzzPxUUcSvPX8HW5ZU+3lEWl97Mx+e5BjVUW6ArcdI4cPjaef/UbOl/+uU9OTDOcGG7DcyfKsxZpl7LLJ3hdmLxKmmsAetELndeS65vlttH/JdFG+v/VdWZNdiXHfa9poBuNpQHMDIBZMfvCRbIkKkTJlKnlwS8ORzjCH8AP/gR+94s+iB8Uth8Y4ZBtWbZkjakJSmSInCEpjrjOvmAbLIN96R1w/v7/zKq6PaM8tyq3f2Zl1Tl1z7m3G404of1OE1bEkDSfEOqTYhHj9kdQkTOTB7t+jABIbY590P70L/+sHXyI/93BF07/bB0GOJOa7aUbPz+WmwdLvWxph4fP/sXG5YtdXLbFfKyDT5anIEqOPpvcnO+p04+2Z559VOvCAdU66RCHUo7WqXCYonVkh6Q+SaojFNkqdqYsFPs/5YPkS4BE9QHIGNeZ/mAVWtb0JAdT1jFIn2vxINZ40tQUGZ3mgxkZPlOmrZxi2Tq2hPKRexrbOTxGuvu5Lv7osWfb4YP8DQAMAIIF2FkqV/LwIdEUDlx4aUHJYdEUJbn8SZPay0XYA9M4U2zcEGKbKqHBfQGTarG9CA+04WSnC5tC1bxQTk4zHqqc4sozbRoo5A/iLv6Lt3/UDsdjujdibC5c0dD1zXi02vBs9P5FWoD6G8J0JyceHwRzrmjE9diBU378aY9Xj6MRI7ns0VWN1ZQHe2Lp+LHZ1//5i+3I2oEwjDXQmvCLCQJOaxVNfx0HeToq1khjLZgVLao+L4JGk6/igipHt5TQDSpOZGh3iLBVRSOEmMkWoO4LoerptpBUhwxcb8Mj36xPa9UZsamUJFPJ9IyZutQ6Chg0fMkX2sDuW1ppr57+g66LxjIFsQ9ia4WNq8B37VDyTv+5gYJ0tSAyTlwSGg87SSquiHFrbMTMMfDpC+L6TEMlYCIwLgxpkv2NeNh0PcYdGVV+3GDrxznRp88tujQNu0uiYWQyW9ub7Xs/+tt2++ZnYclNF2PySFS/KqpNh4/NEzKbmfl0PUCUia3s6I5NH0PGeHwjwKWETquNPhM5ipA1leAVU37ZojGedDrAKWM+fGS1vfKlJzRpXxjZIhDdPwtncYfPa2+NfJlSMlTjdxwYj+4Y0ZCyMIW7BpPixbHbV59j8S1g8YNME6zbUpchBpNdYgxst0kqztTBRu9mu+Yif03SI5RNMod0yOPhqBWoumGSrOKx3PVohVVf+pRfSXOMoKdP/UY7vvZU6jjt0AYTzrrGkoCU+XTd5rxGtRbDrsuowtTcEzzQPpDZE+blgQeRS1l5RWNwD4wAIliJugBpvrNgfxCdEjnQzRYFIWlYsO5k8b+djYtZhiws8l++9HE789E/RlHxOTxm2e+usxxgNdl4N407dth1N49MwiUmXppPyeWrX0FFj1fOOfE02RZlqPK4G/4irUvKEHmdx/y5F061U48fDUOtJWvCyngd1GudFZ40MLHtJKdVotWFIuhS7pIoQzu8VLhqyTrxU3ulGv5BrmceeVz8JkXJX18aac7oiascn889SDEyKIFk2zBSqMypB1dj1HBpMklye7xOzDFFJSrCKNU2Y8amLXr2sd+M65CrrwckZlwHnPsUVKcp6wibvA5xK1+RJgd3Hr3xRt1o9HLNEbMYWKoTQI+EtWFFDuXdRoXwrqOje7oOmcfEyoCPQoiVBpV/b3RQiLs7W+3DX323bW7c8SN3mL0po8Xuqo0+/k13NDBs8sJEntE8wXBJH9y1QbOPGuApGley9Gwld7vzdXs15hs2iPrWjq62F1481fbnvxlnHQaHTTpy6vWmGi/rcUhJKly+1CDZkkquMLEBNNM41sf4Jpk7jj5mVgbRkJH45AEf0BkbVGqNwYJZ7T57rCCneZEw5iJ7jMBlzpqDow2FhpznRwqYQgSlTX2wql8o5W3t1MMvxmfxR42KROTq1xaKQzCaqXe+0hDlrlaUMljygat0VQuWCrMfMHYTon52xY+mqgjRF4yopKHq2/aQ8fRxguLSkF62yaV0A4sSbAYgB4jj9o2L7ZN3v69N502cPHxjE9ser67HK98QbFcrO7a008+bsUg6LbqSq+ieA3lqkPGsx/RLMmoeR1KC8b/w0qn2yCOHIzVPMAzhC4YnGp0geo2bcvSOHz5tROm2ehzL4hLSH6ynC9LFkjI5Uuw0QXvdGJiP8RWMcVx4Hie8ZYhYr0YSflgO7h4eGMW5YdFh0RwqLu8gyTOuRp1Be+oojRiNm7LzpN4bvWlIkSFeh1cfbk+e+HIsg3/xZSxY0ChoyJPfJnRGmLHJk+TtxRHhY+HkJMk+jcuTcly3cYCXCcHJOCoHAyB6w2iUpKk0Pqf3QX0x2xef18UhLq58c8AbshY0DNTF4we//PKTv/+zdufWFeXomya6riOHbe+XbNhVY/i8IT0WEnbZMFCD/G5Ql3NCzpXNpgVyPuf1MexupTteLbqDB5fbN775sj5aeJOzBiApC4GVCR7Y0vd+4971aNGlrBSdeCqGhIFXK6CYz4eONItmSBIYzTIfFau+ni+IeUNlcV7ntg1/xgc5lG6soGwGT1TjGDMygGeUEVI6oLJjI4YUeJWqxpt7/BIRZEpeCpSjk3Npv/4ByurKkTQZZ0TiimrdimfOWrNBYa9CGEN5kO1F0DjS51zVoOSBi30ybT82b2FCIL0Wp67S9FXaOi0aULE9WDIbjIu48CQgApRz0jCD8TiMCv3o777Vdne3vIFjZ86b2bbxmK7NHTHIcPKMw5s906Zuu7FuUMlq0gNXSvmTk1C1Kq9mFEcOAmndeqio5BMnjrRXv/yEv7isXLmGXkLrOjDIl/Y4eFmOcxd2qaLCpxrOeU2VU3kLwvmA3BNK1/1xMaJZ5jUfSQnWsEpQ2WxbIA8wYidasOacqsnAPKo2eAjwOhfqxRInILppEkPG/8VO8slVPKmL5JbgIo8febIdPcx/fpHXykylw/r+KG7GRxnnsg25JJFSjLz+fRV0UFXLP0EB40YYQYbBFmt0goUkWoHgZVQMF3cUFnyYLfVJE4YpuLChJCIOPin4QIMuX3y/XTz7q+mRnOY79eBuGp9GNuVHSFnK4KaqTTC12mvVoFlnHKiPowM9bcXDRi7V1f2ZnxY26Dd/65n2aGx0r320cCDWqlSN6At3bBLwRsABnm4iqTlIj5GSTTRiJEVXuOpRGcMGSc4NYc5mNYR5TI69fnE3HH28YPL71W2lkbbPAZpxtH5/snVgc9RUuxUhGt7FtMbbpFElQZICDN7xxkIr+w+15x77mh6Z5A+bfLkeg8JQFwB8In2xKsHR8xbv65m6sk/jF5FxEWlcbPAxGOPq0a6b8h0+Y/RIqSIMAO+EqauvYdjEFYqAZC2BYhUjicJ1xu63zfU77b1ffjf4rb5h+obmKFktop3IOdGtisovn00dD0lMvXC8sVCXYy17POvwBUxIEHKnmBbqbJIe3eEjK+1LcRfnZ+QA65CsdQBt2TnDIHdteGxJ6LDIDlYX+ewvwgff43N0kQYLcg48NZbqkKxBEKwmKGGdKhOSN94Uk7a961VU8Bwm45Owu9MTr+5qRSn2OCOnWoI0qC3kNXQB4fjyZa6ezYusWMKeePRL7eAqv5+Omtf9FKO+jGqTrnyCdMJahKuut6pURPgQg5xkTsUYuoOLQMXu1jUrUuowhyNELiqfDKYQfXTy5eKq1iC8/r4dRdP1m4ZUgrww+OFqwiWFzAljo5/56K124cwv+rfmcHLol14iQK3CaD1J6tmgzkOouN7CAPeGdW4tjoWOQYaMqubYylkkPW1qpaeN3C+8cKI9/TR/Coi8jMN6hhidDr3Z5RpFq19+iU6+esPlUFTeRSR3qyCSyweVPvBu9Lapmk5VA8VX5oqFvEom212BZOn4Oa+l01mn6U3Ljk6LOlhbbPV47m1RnyE6KxoMblH1B9VcrDtD0QJO/Uw5Wt1xOZkh8K/LXnzq9zxUxOpaKTlj3AN31sLMhIeGD1zpFDXnmmlY6gwMC3l0DZMlGbksWHMhIn7ddIR7+ND4bJFYxQbxHa9ipUVZlVyUQhgx22eb8EzEgW13Z7v94q1vt62te6oDO3uwCi8bJRCihk18NN7FsNWblydt6niUyLMXs+BPWSId44bQbSmrTXZR1liEfHB1ub36pcfaKn8Yot4FA8jFPj17hsWrbVqUhBUF17kIScyjTd7Rw3rcoLqwB0260s0btPKHIjG4X6LFGlDGHKxZqiFZLwi9cCMee0Z0J/mIn+0ewzksd5t6v0l0mseMbvZZCgB26d50smUcqnzRPf/E7+gPM8qmhFybuV4iC1xByoM6t57URCyOWhdIcYswhy7wkkz+gw8UEoeTDpqLwyV/vHTTxhdNEcJ5QpZG3wfMZwVrLFfJQTXuND4+FuPihffbWz/8q9zQQDzOaAthETEWBbbgC7k2u+RohVeurAhZPBs08JZ7Q48256VBJft7hPRHk6z2UHv22Ufbiy+djJHz0Tvr0TWCHg0dQ+kcXqGQ+DyedkxYTWmTlKREcDNIYSOoYx1roGzCDeCoIVYtzbKFIo9Ey5Aw7qR3RwjGdk0+20YuShGDY5cj2jy++IgpLpJuZfRjIUaOREU3198TRofdJjgY/rXkcjt66FRPyReoDqFLfLZpVZOwWK9rr8aw2fslU5tKSVhlcHwagy9xt3WwN8vIi51LXmEacC7YsASHPz0W6ZQocqTR4/pi1Thxn1f28OsfuUDFiwK3e/9++/Eb/7Ndu3JGqZlA3+zkl200SDYatlmOzhjPTUcFJXU8LTq11KGulwFKuXyqzybznJf8+OTH80D/2uz3f/+ldujQinBeZy2KYpDr77mBz4Rq+us5c0ySvEPthnqEN96cmgRJvOwWE4fmi7XA3a/OmuJoUqJlXhTlCB2z/FDk8tnbS2H7nNn1smauOZOJOWvPq2B0n2NI85AgFUO8CDYOqpQL5HDHdyfGWo9osltY3h/nMMlPZA4qiRmXDfLYbpWfsTivvkZkEaITtWAZBQU5s6rodlvixsNW8+HFM1CXYMok80YYSaUmgAy42Kj1+cT4GpiiA4JJxAIR4DHU5SNpQdgkVc/O7m778Zv/u+3u7mTewI1SIsaLgU+P1rwMC2IM+5mHLOg2iCOqZVDZJNNSmW2ab7B5M2uysFwv7GrIMwhc6GXfv3+p/eEfvtL2L/vfzOsUspZaE7jjYPX32/ydiGUnxB8cO/Ak+cMAwhyJwTHYz1FzJ14tyWrqYCcfhLbH5NwjJEgDm8Sdx2NLE85YCz4QZRSV7Lg40jUQ6ZOBq27y9FjjtXalVwxNthLSpLUxXk9Z5Q8aEucm/0rwFD8T6siU1C+MsKUZ05zCCBuwc2VJKydGv0Qz9xUVpN9mS3kAcuJKKYObksarqkCP5gvW2PRIrxDHwKILwzgZWLLovRQA3jg+/vAnahpKY9k99Kwxsvhx2XrCRFUfGPmQc1DrbtKTQ/JZ7JiBJVc+VcTA2CSXv2PQa3yZek7o9Onj7eWXT4UtHFoXrVK07LVQU+OVNvXSQ5iSoorLgZAtaRIHZpQncrnWFvEpiKo+k+S5jtDlTchirKkvS/hws6aLeCtpCnJAzxUcua9vkHKVv9L1caZNIlbAoBDRyt/rz945mLM0+0O+u3FNdk8GHmyqBwKruVnDIG4bedAhxlyMhfyPvsb3M1mMKUPLwgz5wrs0tQmuIRQVRsZ1clSAcVHn5wxBhBmTnvMYb4wcAoV1AiGP35IjjychZDjv3b3V3v7F99rG+i1DsNPosggmZJ9ze0OhhR1ZHn87bv9oOJO5hVFvFOWLps/OiVAfxj4Gm9tQEW9KpXdc6uRxrqEfWN7fXn3l1PgnpXmYzH2hxcF8KxjK+evQExSHSS4JermRBz1b0STKYWyqHOBlU78QC9mH5MIKP9NevQx7a/IYlosQy2/NJJu9PW4hMKnGACovSpRayO7HVsCJZJIwPAW7fP2Dtr51eyGC60IACUk2Wu4nMEiir5FBXENh6fERl0XYQr1+yhMlrLIzhyU6kuiIRF6opBBti8f3h/wbadIZJJr/giqbxzF84aMgydFNAyJWHDkwJlJ2Nxkkeyy3og/f+4f26fl3u92Px3HEDtGRYCpWsp4HL3bLUOlQ99HAykGdw15E7ppv+YQLk2MZK+cYkvScF1R4CYNJOP30w+2VuIsLrsWY1yZPZObicznrr0d2zo989GAtY4ImsY8nTFL5exhKFDkwjlLd4vjAMVbGYpcXcg0c83gcktWbbANFyzWXOnTlV5CkPlCNP0hnfpDGdOyMQ8wUw168HKLMF51x6VzAhCP0n77/F4HZTTXr1sDmKXbKyqzsGXN2GdfVoLKYHFoJRiyM8xR7hHL4TOfP4A42yieSk8RF6r/KoqLxBiOtMbS0MYYU+yVkjPLEIVVOLwREnpn0BiHBsVzgO9ub7W9e+9O2tekfm/X4wMx5RkNnKPstL5LfJOwzMV/jlKNk6RZKVgu5alQdwVzb8C/c3aMDjqy7OK18Qb/9tWfa44+tJY7zUfPv3UIjHrPPy8BDda5cj+XhhUKrgYNYp46LWOJkyTzF9aO5Ka4IMxjDWLs812iJL104SZ6AcjNeMDf7a8wxIHi9rJVZBhwZh5rOrsMzn3n4SZei5aq/MKmIXGeZYTu7W+2dM3/b7m7yeD7y9fzZU4o1x5VcwrgTVytiTbiuEhiJSjYqeqlTXCUPbFxj6dBtpjwmL5WlsZLBGaSS4sIa8SN6Wogg7PWZRyYbpGiM0GWX2VJNwhdnPD3k+NeuXmhv/P2f+46ZqL5Jq0W3YE9e1B+P6Vg8dDBlz2Zf2hd82JzTvsKkbWpF9tvWx6+Gnm11dX/7oz96uR3mW3UoaqgnIw7eiLXBRKyx7alZX7CRIuXi6qGxAR0DhY2igoTv/oljTh0q20xzDRAYx4QVWbaSo4sx7R8cGiJYX+yydawF+mrDZ140q8ICkDHriOYzaNlCQhBnORr/VuLMpZ+0Dy98P/HpzfWTjhxszNVUvAaqcSEse/3MWhJ5uhaNu4cw8wImC33fgZUX/6SS1xCzzkVXxIbhYuNuLkzmNaEzIOIUNIshyxU44guOUXJi2SgUh4692+BxXLn0STv97JfaseMn7QwiVK3nGLy30uXgFYeUIXuzlmyfvcMnS/mybvltEfUckgfvd20MEHxPjrUjq3oEP3v2unHyA8jaQGGHZJNQqmTXuYjFJD3lchUG2Zz1327b29fbvfVP2r2Ns21j83zb3r0Doi3xP23yW4XAlcjnUy90nbscia5ki/TdZ8le+6w577BByDRdE90Pz/HkxChHZjW0NMkSyzt0c/ThA7ZQC/mTPrjwvfb++e+27Z0N45QzR+oXtLSyLuaeqFDVF14s54StT49GrqynynJcjg07dvhfpg/DWCh/vs4kQWicUrg3nfH+ok1W+aDi/Gppvdfojhu5pMkQTSKPJigeZwFTeuSvkKrn1S//Xvs3//Y/tOVlvpQKCgCuwkFw6WVIzEyoNWZfnMwgLGqS8mcOI5L26kHofWzFJEIJeHletX49N5jo7tzZbK99+53Y5DcIFt5/54uv/oDw67v+1V1p6UPnkG2JMxayXsQ7Ur3N3Qct7eNPcd1pn376f9vtO7+KJ4X18WBHcRba8srDbe3wK+3UI3/QDqw8orEzm3rldhfxY74e335ZDMn1mWxINpizPrFOackYX6syEq+PQYkIxs2oqCTB015uYrocQslQ+RxT1wfSbvvw3PfaO+f4b7DDrqUpr+PQ67cT5ZZUiJwwMVrXopHBUYghF6TcQbUuPTcLMOfSOYk7+GrcwaXTGDCacJlMF6DFIBvJ7VETixRGnWjNdqLACp75PHlqSZwe3TlZlajw2GRR7pnQNzbutEceeaKdPPlUt4GaG53umGWT0YQsHW4mIkv3RUmSsSdA+VKGyl+EXHofW5zDcyp/5dH8Yix9pKDFsXpgfzsQ7cy5621nu9bUPklKhOwYzP0SlCpJGNusG+o1L9/++Fhw9Kkj7amvPd6Ov7TSzr777bZx96pxABg+zy1jPXiw2dY3L7RrN38Ud/mbcY2sxBvtWvD9DCEMiQntupNofKh8DCB4OYIKXzaz4YfKBpccXSHsszDbpPkVevRMTspkSzI+hWJxzd7bvN7ePfN6++jiDzDIB+knTOF3DscUgyymgb8FMDSlIW7cZILEsJlS7eS5GN1zZa1o3lNLbd9BHtETQXqT+TzhUXwljCPUanUXh0bUkKA5HeQcJLBWJJuuLCmLWTyY/kjj1uZ6e/nl324rB3hkLPdUF/oXNG8853VLuWIXcNG4tpGrCTv5Z71a2CTAskHdH61vaHQdw8dSHl070Da3dtq5CzcTVyeuQA4o0fmQ8JujKzM+LALkeQp59chKe/I3TrVTXznZDhw7wNK26xc/bLevnFGMsMqRsTrPpvsPdtv6xrl2+94HbWf3bjt88PTY5DTFW3aOqg+f+u4T606zSVjIhVjxIvQU5JttYbAvCFvmgfbWN2PLhqVC7qxfaW9//Nft4rVfxTLEk6f8Jp6VSgPvTKzdNP5ECzbhZ1tKip02PVTFBE1W0axXjO7gejcP8s+5Q1NdBtgX8NCFsuoEhoj86Gin+vKJ04WVEL1rKpNIlyyuufCQJ9W+1Oe8t25eaSdOPt2eePwFp5fTb1NqGVf5RotOOJ46MIRa+CSkji8dR5L0xHdfAkouu8fHEC3r7LGwWIDSK44nJ/4p6ZOPHWtn4rP43btb6UuAJVFJo5/yZ9fzJ6GtHj3Qnv/m023tibX2UIy1yyNlbNDbV8+3z878UnVlBp2yrkWnc6brBXlTn9PXt660tYPPRd2rtkdbnGvyLjuj9eiQDem2OQZD+aGBneIKH8yZobG+tk3rHTTLQqTqHPZfuvbL9vMP/6LdvH0uwr25x/yEjlZ5LSfAMrbuG2ymMo1V6ZGini4tFscsu2SQ8Ev6PeeM9GdBLnq7peNChRPoF159m0tot4RSd3I+fwgvQHSKowPkCHumAjM/1L8pDr0e5/EjcxB1//5O+/Zr/zk+r17ThujhIYDlzcPpRvw4wKY9mu5+yNEVX6BRTvoN6LJfXS+uN5AkwfDB0TFGXqPTLynnHK8DB/a1f/2vvqo/9eQabFftia81wS1IrHH92KXWrvJBjHPg6Ep74Zun26FHD+lhaXc3zmecs2DtwNqJtn/lYGKpNwD6d+uRIpjSZF4IiZ8B37r983bhs9d0N4eIUG3Ccu5kFle90qOrnNnb5rNj7ORJRQyejgUuhzS6oJxDEONWbtsHytQ9SrNzf7t9cumH7R/f++/t7r0rcV3yOweJUM6aR5Dyhk1DwSWM/B1o0ecNWsQxdprECiN5pAhTWDJHwieikvoMHl4V26MHPGsUyZsJuXB1M6ZhD+Iunm/qzjcHQ5MuccLSfCHUpoRCX8jh+mbL9tZ6tM324ov1J2wzH1yauWSNgyDROkx57eP9Z2AsJHSBu7PuaOTKn7kS5B6/myjmWvheL3Jy1hFOcj6PU9i5C7f85accSZL9RoJYuUSSrc32lcMr7ZmvP9kOn/JflNmN5s1tvrV+p135+K22rd83cAw4y85JPq4Em6JXXa1tbF4Mw1JbO/R8mKfzAYYcNphbpJcujF7pF87rJLV3uDJGCi910gvPeYE+Hx/o4Ih2qRt64u9tXGsfnP9O++jC92Jd8gnKgHolJx9ajRiUYtWJagmhxjffS8oVa1Uxc/znxgmaUxg3aN+B5ef+xKEQCaZiMFZE5tQAqetb2zhGUvfFM8SkmOgKIpqSI+p6QK9v1qGMyabhp0nS37h+qZ048VQ7deq0/JAxeWfORnqsbpqh8PanvXg0qDYaTXLYrPtJp+PFkcy7hF0+qeKqA6O420JueVIPMPz4sdV29dq9duPGevf1vpLQZLBNVfCOhSRf1LxvqT321RPtkeeP63TwpMSjuTf4/ZDDFvLl999sW3f9DT4XW6ZN8q/7OrN9IoqNHOubn7bl/cfaodUnGTnsM6byeG0kyWZHmmREdt0Rn+CuTmC7Rj6ESbTcncNG7qrMNmN4Grl64732ztnX2uVrb8ca7WAMgD9pC0mA1sUWESKLip8TiiEwOhc1KARXKH5Zuk819fW20W+kFZxUsXCY+uKphU+XD9MkZ39kgMsApkIh/EKkpH+DNtnHu23FW47GnpUSLSBzXk8+MmhcPjKUL/mUixuFHz9NIO6t325vvfV6W7/n31P3ZqEWQRYpbRqy5GwzzX5ImDRIzoJYvb1zKSxmY9EHF6GnbeExPrlIfudZO3KgfePrz7Yjcfft56l6rVmtX7ZYKNsDEPHYoNVjB9pjXz6hdxn+Ke5u7Gg15Nzc+1ePtqXl+Bw9xTFWnRZqwuw5qkg3nZfw3d9s5y/9eZyXc0QR6jyVymCLSYWzz4Taxy84PCDCJxkSXZo0/4xbGHYP4WMuVsx2djfaB+debz/78M/ajdsfByavNZ0j5x1HUfjkLkv4CEvV58LNhmjkGwk6FUZVqZsoYjxu5iJFH3MmELD7vmdqsHjpR2LsoCTNKaBehGnDkNumhTdnRF1UwpLasWD5TwgErhwTp0hUY/lZbsjyK2P4UxaOHOp7Djb0Rx/+tL337o+FyUx5GKZNT0OPOsqucbDT0uY3CMdquLR7fCvpFc2xaulKJipflp+6EXtPqsdP3TOV/OTja+0bv/vswt9x4zMhxJutLqSQPSfL5K5/T756bKW9+MfP6E15Jz9z70TjDs7m9iaPqKX9bXn1iE+Xh4+cuZbRYSKH1zoxtHB6VHLFJr/yl21755b0mjQhRgwOZaoeP1+4SKWXlWqwDRTVBYUhpaTAKAE50oIsTryNu3GX5l+D/eyD/9Y+vPB3bWv7nuwiQRiRzNHXItRAyesjiWEBEI+OV3DVLEBQFRVtnkWR5kvL3ELFuVZKHTKW+3MZPJLu4AT6wlXSEDyg7RC6JhXOSqhg5jMMQcSIZaes8VIGm7oPyuDI7btDB/SxwWhoiSHQwldwVB4zt7Y32ptv/lXcNaZ/bZZwWhHiwizIkTLCwHoMxaOmYIYl/fimHDOfWwmLtbCutmV6YyOf35A8khp68F//6uPtt/5ZPPqi5Dr4fAXFZHjzYuMqSdmD7zuwr5366iPxoYzNvavNzCb35nYLk+0hLy0fHO80ZOAcTilx4cOmc4eBeqIwn7sH7e69T9qVa38fOePzK/EE7iHFp+OLELLQKS9KxtiYAGxYQqmasKmnuPQhmZkL+yA+UlxvH3/63fajt/9Tu3LjHfm9iaMRTiNDxmaq8caWTfPmHOCLpoAM8pqkfYHG1djz62R7i2K0H5ylmotUmtTEF5EjKN9yxgIod0Z6kkgjae/jVRdS5gop9En2m0KQE7jRSa64QGoSOZ5sGSfyHQq/FymacJax6RE31HPn32tv/eR1uzMFrNJ2G3q2Ggo2Pq/jozMmxVgsehN+4wvjN7zS+wZFDiWYFhsuWf6h09zZTmdGDmTz5fgM/Y2vP9NOP32M2QciGixl1kMH5lwvPg8+/NxaO3jyQNxRd9v29m7b2fHdmm/PvcHrMd06j+j1W1bU0+tDXlCQS4u+YuK4/2CrfXbj++323fdVnTvXpcrAZnxR96Us29ynzTR78NHxSguyjNSVholwXb/1YfvlR/+jfXzhb9vm5k3VbWfvzGizCzmb1iN9OAUXyCRdzcYxw5IjOAPkmYO92EpfVptCExgZssBOkpQ54trTpSOFTeOY6LkTxCNBPQKC0cDRuNCUSrHGc/hXFkNn88W7X2UrlAsjj1j6ZVTumphxJluopca17j45cbii1tf+339pn174QGpPgzsUNqg2lg77e5Mdck6qL1zp+NDJ4UmYUOeah5gYaoeno29YHRmfrW/8WotsM/EPUf7o959vjzx8KEYIHOctNqUOxVVj6Aft4IkD7ehzh2PjsrF3YoNHg0fjm/Pa1PMdnSLqBlZzdR3OXePYwyOuxwclT8bs7K63s/F5fGv75oTuKZWusLOtoLNP8dQVis2MJceEM0+zKfGlI29t320/fe+/trfe/dN27db7cbPalp9W89T1Bph1QIaClyh85o4LVJgegzdxUInU61y0vC6SZI3Y2QaRzb1mK1E8gPYFLyEszmx534q+RQ+sCpNNX4aWTJZMGxg7+kSKKCp0BsHqy7Zi5F7AS0rVdo/RMaoWuWxeVGcMyvGqOTbDYpPfvXervfrKb7fl5WXZaZDrQkge5Bz4Uo9j4U4eNj0h4IvdxyEZv3g25GyQ5LKD7bJ5zVD61LAqs1/W01eNJ4IjscmRz56/pbuwo8KQVPK+1aV24ivH2/Kh/XriYvMyNpx9TNOmlhy2EMDdOPezdu/KB7GmXltI6zyNMUTs1EYfb/TIqcN376+3exvn2/G1r8Za7k9cUmLKtugbOaSm8IU2ju63ni8ZbGttM95oLl37aXvnzJ+3m3fOaH52GqA8xGQvwseikQc7rtKjaY3s0TXY5wAvOWhIKROba4dl7IEZObA5gnghum0apwjLvgPLz08/JiOPJepX0lDx+p3KiQypiBEjlrJ4F1NQcQNiP90o0CbbIK/j8KlF52lCQyq6dftqO3b00fbkky94s4ZNKaLBS7dcR9rpEUpXoHma055NBcpsezV8yaFul7boQxt+G+E6OsZUYzKvUyePxJ1ot52/cDud+XQhOd6o9i+1R15ea4dOrnrzqvmjFbJ+7j3b4mGtfDfPeoP3cxe8l0IN2APndZHBfjqrutjLyJdt3CAOHTwdb5T7wiKHcA6QKhprnubMbZkX0rhm6g0Yc59/ouiQdnbvtas3f9U++fT1dv7KG1EP/zJOTlPUpoiouc+5nKMQY4owx2OO8ZMdmmoqz8g72VIaSxV9VwY5drrWJ7/hYZhsRscGX4kNPoq2hIOOGzYpNfVYOU5Y/XqievRedCg80yUJuzChjA8bOWULeWjhTEkXDh7hafigyuc61XVTfvseeXbj0XNra6O9+MKvt4MHj9geKbzZHUuTji8NqgeeftlVnx/tIXjHgBcvLMokJ+kCTDsuj4tEfOW2rTDiKS+MjUAXjW/Tn37iqH4+/lk0pSxn0LHnDrVDT/D75bmJg7Om88b2nTxa4OG6m4dy63xs8M/yow51BSdWY6TiOZhmybicD6bQ+QZ4c/uzdnD18ba64n/mW/O1rL7n6bHRWY4k5cUGUxCKfTPGPui+NvZHn77WLl77cbu7filsFEQcfn+s7PgaV1RSYa0LWy4oY1Vn2SVM9ahfpNnzOX9PBCGTy6QKy93FMgSNIuIOvv8Z3cExspF5TEhfvObJQvbxWbtOdh9WutGyIQLqGYLXRhWLLtWH9M8aU1bnhRonyXXZV10EZwE6VyooP1uE/fqNS+3IkePthee+Ir0W383z6lzNMmRfccdBnZesoRxZtoR02XeXqD2wBuGzUwwbZpvcSqYrvWxTY7b8RdZnTx/To/rtO5vy4Fs5ttyOnD7QlpaXtGFZHtreR3NvajY9Nn79N3h0Nz/5Ydu4cTYyBWlta5ZJVVydB1SZYq68E/HdTUEy8v79zba5eSUe1X+t7VviI4YBlUojlBy8xjNPGbvF4CkEdTk4Em8od+6da29//K12/vJ328bW9ZjntjMJOzVifDcT+aNo2GPeujaBFXEjSVGU4xkzeVInZV29mKybqKP2m33p0ZKGHFyRMlOj2xeR8zqLKHHxiP6sPoNrCF5m1jOsaO9n0EoqS8HRZYjPYnnrkS5/dLXJK172/IstMsSUnNjXVYg4NB4LDk5BcLnsj6MvVmKvX7vYvvzl32mHD61lfhLCjZkJDZvMtBo7YWVOdWAnkg1ecghYPmcvOVpRyYrJJp2mdV+kWV9Z3tfW1lba+Yt32sb6Ttt3cKmtPRub+9CSHrlZFW3q3NDzozj2+hXVfgcPfuO977Sd21c8APWUUH10Ph9aKlHNTH5q7pMYfHv3djwu321rh14ONR7Vw2Y3HYu+OFf77at85WfcbgtOPVvb8UZ390z75NLf6K7NxnZE5qWL69B50bE7hw3waDWpII9hlBCFqziI0iVkXkjTyet8xgahla086LLL4Ou55lfkfFzvpB9ZrZe/cswbPCw6wgHAZBS9EzixyWVDSlZBCVBhXD3SyzgyY3IRdC5aNrS4OHTxhKyITFN4bE6VATph9guT+PWNu+3ixY/bqy9/ra2uHgofTykZNjXehxSXhChbgGfcQgMXgu/QlqnMdvwc8mQMvGxY97ToaNBeO1SyxyzZDf3Y0QP656UffHK9rT6+3JaP74tNe1/vaawlp6I2tDay5OS5qb3JW9vZvNduffi9trt+w2PPAwVONp8F2aNXG4RmXJFyJG1sXY43/33tyKHnQvPdUvnIlTDlnJOWPY17feubn7XL13/YPv3s++3Tq2/E3ZunD/9iiINr/c17dWmzH4OuENnN7Ne4amHM602km1ZwWPd7LpKTyGFumlyiRe8iKfYLXJjGKtcIkxQsPoP7EV0XZxSlIieqoklUPwaTgYiYiNyKAVFYD+uBwM0Yy7UG0icMOVGMz1Kjq1ypavNJTpzfIAJFeJi4FtGv37jcdra32isv/2Z8Zt0H1FnUddaJfBmqcuHSdSz6kfoa6BBQvOoiieW0R6sNWj7VGlR+SOMkzvgc125R16PjjebkI4fa408cbud27rZdViRqYzm1qXPzxqvfrecNzxO19DDwO+h3z7wZG/1WH3Aelxyak95l8URt+q0n9Ohx4U8SLCbBWTL+vjY5v6t+YOVRm/AU51AO61DlYz6QViNe99Y/bR9f+D/twpXvtuu33m7rW5/FXHYSRx7ihBb3a+QvjwNCTmY7uPQHdaxYyeV3ToWnzddGGoMs2oc9h+okOe3UM8bOkacYWo3lI3VJRfyYbP+zf9IHCx+/Bz4Sj0TuYCNNxdlCx2dzA/U5Js6sfOSNQ5/xE6w7X8hmcZHHBVALovErKbIQRfjDEn6PJUF2uD//oYdF8v125bML7cja8fb0ky9kfo9f86RXs9q5MBZtiyaGkkMyxHwXnzm+Gk+W5AqVbB+UTLxkhG4nT/GUK7hs1HFCPxtv7eyNO/pszRpxJ+8bOjZw3b21ufMub4yXbuPaR+3euR+3+zubfczos+7pqaXudkFYiMUlOW1QwrsA47fbNrYutcOrp9vy/vwIlT7NR5rlmT9oO1HnZrt59/323plvtbNXXo+7d7yJ318PH6OanCfqoyYZuB57VvfonlT64MHS5jGnnJzQiQ8femIVyyuxNOUxIaP62q0xTEiyyuYMVUPh3Jtm2Vruk8oZXI/oOZQGde65vOqDKi5a1rdAqESOoieAzr5FLhDCRWEDr7HjKLtThKYwQJkCu1rVGGLcPbxguOLQCaARsNT465dXr15sp596uT18/ETiTOLRkZc7jcctu5Xa6OkSCZ9Wy9A/cSLwR2M7WM7IBEmmyTc12eiTI2pKxDvHeHMREz955KA28qXb99r2ji973bUjojYxzXfy+gw+vnTbvPJu27z8C6KUUwmmuflE8IoOn2SfPwqofyzkCqtBttDB+Sy+vnmxrR44GZucn3bwmbyjJKPFW1Lb2Lgcj90ft0tXv9/OXnot+A/i8/xd51J9GZf1LOqAnNVVxsGGx+JBklLGnLLDC5/JNR5+gMYNO6ZxPRtHTw6JQdLiSJpriBz25VipiYKVtWhRnjUoN7hFOzVWdBw6j8h74zQR7Dg85F6MJ6lUqXuBpKobzjnWLg2gHHLqDOLJscjTE0djMUPv+IIXJujOnZvt2rWL7de+8rvxWOg/8eRGPpN+pXSKKYxkHfCxqaDCG2sM7y/Ws+EvUDLZ4GqMmzYhJhmfmCvw2L546n1M4xkqvj/e8E7EJt/a2W3nr9+JbeqNy2+79Tt5tbAFC5kWW2lnu21ceKttX/8ooqbzpXEtlswZ1WJTW2zq3NeG6xyE1OM40pacmK3tG+3O+sdtI+7C/GprIfn31xtbV9r12z9rl6/9oF259mb77MaPA3s23hg2IjzzaPgcg5wY8ilUh1z5TThd1SVviixACGJYZUse5PxWHJVcYnTKGS9wwprAaA09CFK6rTsoh8cMdQHRCkhIc8qwmaROYwwK/JHVb1a8qCajI++M2ChCd16ETGLJMncVLhZpyrGHAuyBLBiSsXH4V2JDjxfjcLGB8XiuAUJFQuWiRHaN/tGd/jJoPJsKrhB1nV56/tfbv/93/7Ed4pv1tDmJc6rIKcTzG+MXdS1jFtypkwrSRgSoueDbAw4qG73n7By2mEqq3MOzRw4AObZjHV5/92x78+NLGpo15WLnqeYBn5mD339gLlu0nfXYcD/7Vtu9dU459NEporTGOSiXEZtblxM5GS90OVPCh17rB2mOFk0hex9FF/Xse2glGL99uC8ckSGuiQex6fk1UtWolOSrGF+X2JUbF3L6cUnKGM1dXpP/fFgpw17jdAtr1ecf1uIazD82q7HUC0P9EVPetGmdsYfe16h8e2iqwEhiSIEhOuuOw+Zs1izHHZzP4DJlLoz+Q/seWFLwOVmRsAZkfTkh5ZIkqjB0+8PA4qJJZsKh0YQyJSKOwMgsgHQ/EaSZE4CNnVRj1clPon7oxs0r7eata+2lF36treSfXMaTbgl19LslnGTyGT+TYZOfOkJO5ppSlo6ajlpbr4GdZVMrTMcKotqQy1Z2yRos7uT7ltqLJ48htjNX77Rtfd72nZtyabpz81k9MMg7ty61rXM/0BdV9RdyVFswzQseuBqbOFMYSIhdav28mD4lbdLI1ReGSu0jz4P7u1HDtj6fczfnb7Pzxu9z7RgNoVhHE1j6kBlbK2YMtumuXkX7/DomL3mT7EL6Dah8hVcnA5LiszDpyKjp7qSMaataUA0tsDl+vxHYNrzMy9cC1EtLxN4+Nvgz+SVbBtEqqldJ+zwpqWYfLOL64LKHcQp3Ad2rYeDplLUwvR50gcpWZJySiNvEQ4DqUEzK4tYBsWifXb3Q7q3fic/kL/Ufn/kY8RUzcphD1t10rUqf/Nhy7liNtZfe0sTll9T9mm0YFacTPfIXKaaWIXXhxcXEHz/qL97OXb+ru7oey6PpET1bffG2+eFft/t3PvX4BIWNJOTqBZA7bNPZjPmCs9uEJ+MgvaE7TkVJkUEtt7D84npzyXjhJU26hEU9Y2VHiKbxpBc233jQ5ZPi/gt0RaFqGSoHL2MWSPEsmsVCjLyOQwX1RTlmi+PSErJigstuxa4pk3y80uAv2Tg5QXNC5agkUuwXJMnvME6eKSpc9iJJsbD6X1FkCcqcDjaeC6bIMWAGCNUbJ+sIGXefXtr0ho8oOfJmnbLFwTfGFy99om/Xv/Tyb02fyacLLZpvWDlH+adWuJJD0B0BJaj/ko+OxNACI1i0wts27vhuk67DCazPbyzJq0k3nhwQ/8T0qeN8ifVQe//yTa0Hd21/8Tbu4rs34/Ptme9ELF/HxeFwEbHg2HeWOZco6dd8PTKHbOpNroWcwSMPyQtZeGy9lQ2vxNKDFCvP4NgMDMM4i7LneEZaRtVPjOKQO+2F6blwQqUHdWwP7FMa+C+gOcOc3iOmPxxT2vR5Z3S/1n4as2smmUT5JVtNBlabIViSk2mhZB+DoXORglUOjOlEDCN9KlxKlGsbF4vyEZAwckuufJAw3gy4tSkWakisXq4dkj9EpaxHzSB/Vucudr9dvnyu/fKdN3UnP37shMugI5fT9HypDg5GQjbGwRada43PqYrFYbtzUZlDCJC99KQFPQTC1FBrHLuMQ8+WqnkYkJn98v6l9tyjR9tyrMXbF29oc3PXpk59e759r22//7/ag607zlO5yCHZubSgkjpANXF2Ne8wy0uQdOK9/n7k9/wVB6N3gMwLXDIIzmxIMTa5sHJVIuXVmVBi4vzKIhAepHAZV/VbI54MockvRO+6HD6lhmMLIo1zmro02XodkHKEFk17rGx2dhwxJK81gzwu5wqkW5E8YSgbWI3LWEF6RJe0J0wqLIEmyyT1oCZB1FHYiOkDqWopKXDxxwR0R3ceei6GpTjGohstQlUuZmnH4jgSRRmtGPDeaCwsRrDjQrt9+0b7+S/f0JhHDh2LjbA/2rJ8RYqOTi1lqNZgr80nKH3BPb4xWIUpm/ryDb2EhHUf+kI+mnyjFgiMdPzCu47nHl1rxw6utE+u327r2/GZNzb3g53Ndv/sd9qDWx8rgX7MVeemkqTMOWLpfP35XGj9CeSVj+JFthO7pG/zOcNAfAbkzTh4CE5mLhJCSOZRMdV3Ijb1mm9x+2TpOpIupXjy0JsQAOkIRWHdU8dMzl8UMrouMq41XwODkKne4vAxp74SpqoHsfzdhk5vnyzBPmfLvm9wHBpUA/dZibDPFkESVoXWACo1hAV89uazVFR6RoXqtGPchYhw5rB2RPP7+pi8KaVgSPKFUBtdmyDa5uZGe+f9t9qv3vkHPbavb9xrOzvbbd/SvnbwwKqzZKrKxRwYzXI07OUjb3BokcfAgIKEk5Q8up6DFqb+GE5LGSpM0SSG3XMqqkroafvC9/TDh9tjawfb7Y3tdvXqhbZz8Uet3XgvyuP/t54utmB7Lz5tRK+k5OGRJSXShBwTWKwlOTY1abaJpzz7NAZ6IbChp19GdRhEHtP6ZHWu/hQRumCFSz1Ib6A1Bgzex4TZqO8dJAdDTJI1834RdY/GgfOylb7791Ahhn+63qMr+/CHfGT1X2RpERgePSYLEjyLVC9n6tPbHMNxEUhOjC8KGXICjjM5PxaGoo1/DgpVvBCZA+4TU4+++gyYafXH6PCrvjlXkYGuMxeod+RJf9zNkA8ePNzWjhzXj9LWDh9rj518qj388Ml2+OCR7lvhc7uiTLUOZfNaIKCFwBSqYOGi3pi3559mkRX3dvbTmAwSm+VSlLtkyEE1Bow/zXTr9s32g5//pL3xj2/od84fYnMXgJDoFOlbq/SaEzWLQu3wILkT7lOKF2aHLx/bnDZl9Ulh7+uU41mPhlr6wsKZjx97sbYyFQteq2jMdKZSqt5rNfZB0jQWkvwyZfwC3IKvhzRGvO7q1jrJr9yZQDh/B1L++brCslhZSsFUEncF1W7PQ0cOxga3HrlHGLb6r4KVUIEzZmzyQVFOTsRBxtZFUovmomXBLSmTW2IhQubxkSuh/nkqGHjVoD0dhsKLkwEbuQzOGIWIpDOfiVRVgPhsXmBsfXHyzWMeG4TnhJR5Q6AKFNcUKxVjGTbiq2bJ0fQIGydWdw9/XSEHn1s1hhKbq07iFRjPLuSPmKWw+TOv66Z+JcnY/nsNsidpIr6glC4jRxEmSeQlPhTw/qItlBhc0oAn4UtR6+0RoDFeUGIcb78QOZ4dGTdhFnOExt1ZhoyTaCzU8fjhekOoXBFKDgQpg1eMiSxigZdBxLnQysV61ho5ThepQUXhVI6w5woqttulD1mDyZJUyUX2icsemRDTE9fEGByp6644XqmnHb8Orqh0OZXJ8dEi3ssYWKCYmAA1xAEnzilwwsg7mn9GzhdyoMIGJmwcysMbQATWl2haXAuuyINoA3js0KPxx/9N5CcXdYy8RDkydHHIvnIyp/LTKFF+eGHhMZTeNBQQI2guEieiDv8Na/mZN3Lk8JNKCJic1GvDqGwa1kMY/ANTpM2vdMGjjhSFAxrbVKow0fzNMnY+9EQDJ0sR+WjKJNLncjA+QbLB/aVYWoTHZp/6krMWyYGrjZYhiQ4KIzMXKVZdEKCqKddDuKlOxcIdJb8gjoFcQ8hWjREPqjzhVER09gaFwiG8xgaV5AvFhBsOXjGVw7EjrkZOSmXk7NLIKYqcoVcsdl3pLg/BUNicA+qLBxKRC8tnKFQekS25ZYm8sCfXpPoY5pCi9CbgOrThuqxwUxh0sUuUYuOUU37MsMTiBwFMFg/msDDMtUCJXpD1RmyDGqmrRqiGGsVCAnmTyU7HuNSJ7uhaK7RZLtK2FH4iw0oU6bfTyJ/R9ExVm5QBi4uog770IA0z6ZDmmPkIMCjjplaiyII3vvF+w5C1w7wmRalQY661WoAUUe7smUc828VlGBaASYgJJZW6yU2k/TWXdHotUskEi9dFZYWwJ3qCeKVsyK0xiPCwzVlUoAzJu39kUpqFOorS1n3B46X4Dm/t/wOH6vqGF9cbmwAAAABJRU5ErkJggg==;" vertex="1" parent="21">
                    <mxGeometry width="47.18" height="43" as="geometry"/>
                </mxCell>
                <mxCell id="23" value="Kiota" style="text;html=1;strokeColor=none;fillColor=none;align=center;verticalAlign=middle;whiteSpace=wrap;rounded=0;" vertex="1" parent="21">
                    <mxGeometry x="37.18000000000001" y="6.5" width="60" height="30" as="geometry"/>
                </mxCell>
                <mxCell id="24" value="&lt;span style=&quot;font-family: Helvetica; font-size: 12px; font-style: normal; font-variant-ligatures: normal; font-variant-caps: normal; letter-spacing: normal; orphans: 2; text-align: center; text-indent: 0px; text-transform: none; widows: 2; word-spacing: 0px; -webkit-text-stroke-width: 0px; background-color: rgb(255, 255, 255); text-decoration-thickness: initial; text-decoration-style: initial; text-decoration-color: initial; float: none; display: inline !important;&quot;&gt;公開されたOpenAPIのyml定義ファイルを使い、&lt;br&gt;APIを呼び出すソースコードを生成&lt;/span&gt;" style="text;whiteSpace=wrap;html=1;fontColor=#FF0000;fontStyle=1" vertex="1" parent="1">
                    <mxGeometry x="574.5" y="245" width="266" height="36" as="geometry"/>
                </mxCell>
            </root>
        </mxGraphModel>
    </diagram>
</mxfile>